<?xml version="1.0" standalone="no"?>
<!DOCTYPE svg PUBLIC "-//W3C//DTD SVG 1.1//EN" "http://www.w3.org/Graphics/SVG/1.1/DTD/svg11.dtd" >
<svg xmlns="http://www.w3.org/2000/svg" xmlns:xlink="http://www.w3.org/1999/xlink" version="1.1">
<metadata>
Created by FontForge 20190801 at Wed Jun 22 04:59:58 2005
 By www-data
Copyright (c) James Milligan and akaType, 2005. All rights reserved.
</metadata>
<defs>
<font id="akaPosse" horiz-adv-x="1130" >
  <font-face 
    font-family="akaPosse"
    font-weight="600"
    font-stretch="normal"
    units-per-em="2048"
    panose-1="2 2 5 0 0 0 0 0 0 0"
    ascent="1638"
    descent="-410"
    x-height="1130"
    cap-height="1614"
    bbox="-469 -469 4043 2105"
    underline-thickness="102"
    underline-position="-256"
    unicode-range="U+0020-FB02"
  />
<missing-glyph horiz-adv-x="1024" 
 />
    <glyph glyph-name=".notdef" horiz-adv-x="1024" 
 />
    <glyph glyph-name=".null" horiz-adv-x="0" 
 />
    <glyph glyph-name="nonmarkingreturn" horiz-adv-x="1024" 
 />
    <glyph glyph-name="uni0020" unicode=" " horiz-adv-x="743" 
 />
    <glyph glyph-name="uni0020" unicode="&#xa0;" horiz-adv-x="743" 
 />
    <glyph glyph-name="exclam" unicode="!" horiz-adv-x="641" 
d="M135 623q0 24 2.5 45.5t5 44t5 48.5t2.5 60q0 65 -0.5 114.5t-2 89t-3.5 71.5t-4.5 62.5t-6.5 62.5t-8 71q-7 59 -16 103t-22 80t-30.5 68.5t-42.5 68.5q42 0 82 -7.5t79.5 -16t79.5 -16t81 -7.5q37 0 75.5 6t76 12.5t73 12.5t66.5 6q0 -30 -12.5 -53.5t-27.5 -48
t-27.5 -53.5t-12.5 -69q-14 -168 -30 -334t-25 -333q0 -18 2 -29.5t4 -21t4 -18t2 -19.5h-369zM301 385q26 0 52 5t51.5 11.5t51.5 11.5t52 5q0 -28 -4 -54.5t-8.5 -53t-8.5 -52.5t-4 -53q0 -50 6.5 -96t6.5 -99l-172 17q-26 0 -50 -4t-47.5 -9.5t-48 -9.5t-51.5 -4
q0 31 3 57t7 51t7 49.5t3 51.5q0 25 -4 50.5t-8.5 51.5t-8 52.5t-3.5 52.5q22 -1 44.5 -6t44.5 -10.5t44.5 -10t44.5 -4.5z" />
    <glyph glyph-name="quotedbl" unicode="&#x22;" horiz-adv-x="758" 
d="M541 1192q-6 34 -12 58.5t-14 43.5t-20.5 35.5t-33.5 34.5q5 14 6.5 26.5t1.5 24.5q0 28 -6 55.5t-13.5 53.5t-13.5 51.5t-6 50.5q35 0 69.5 -7.5t71.5 -10.5h9q40 3 78.5 12.5t78.5 11.5q-1 -26 -7.5 -51.5t-14 -51.5t-13.5 -52t-6 -52q0 -14 2 -26.5t7 -26.5
q-26 -19 -40 -39t-22.5 -41.5t-13.5 -46.5t-11 -53h-77v0zM131 1192q-6 34 -11.5 58.5t-14 43.5t-21 35.5t-33.5 34.5q5 14 6.5 26.5t1.5 24.5q0 28 -6 55.5t-13.5 53.5t-13.5 51.5t-6 50.5q36 0 70.5 -7.5t71.5 -10.5h8q40 3 78.5 12.5t79.5 11.5q-1 -26 -7.5 -51.5
t-14 -51.5t-13.5 -52t-6 -52q0 -14 1.5 -26.5t6.5 -26.5q-26 -19 -40 -39t-22.5 -41.5t-13 -46.5t-10.5 -53h-78v0z" />
    <glyph glyph-name="numbersign" unicode="#" horiz-adv-x="2087" 
d="M301 1556q-22 0 -40.5 15t-18.5 35q0 18 15.5 28.5t37 15.5t45 6t39.5 1q24 0 63.5 -3.5t85 -9.5t92 -14t84 -18t61 -21t23.5 -22q0 -12 -3.5 -19.5t-7.5 -15t-7.5 -16.5t-3.5 -23q0 -32 11.5 -87.5t30.5 -126.5t44 -152.5t52.5 -165t56 -164t54.5 -149.5t47 -121.5
t34 -79.5q0 64 -4 143t-9.5 165t-9.5 175t-4 174q0 97 7.5 183.5t27.5 151.5t55 103.5t90 38.5q33 0 57 -12t39.5 -32.5t23 -46.5t7.5 -54q0 -29 -7.5 -58t-22 -52.5t-36 -38t-50.5 -15.5q-9 1 -15 6.5t-11.5 12t-11.5 11.5t-16 5q-14 0 -22 -27.5t-12.5 -72.5t-5.5 -101
t-1 -113q0 -94 1 -191t6 -190t14 -179t26 -158.5t42 -128.5t61 -89q0 -17 -9 -28.5t-22.5 -19t-29 -10.5t-29.5 -3q-15 0 -28 6t-25 13.5t-24.5 13.5t-27.5 6t-33.5 -4t-35.5 -4q-29 0 -53 10.5t-33 42.5h-121q-26 44 -41.5 107t-27 131.5t-21.5 135.5t-24.5 120.5t-36 86.5
t-56.5 33q-7 0 -13.5 -31t-15.5 -81.5t-21 -115.5t-31 -132.5t-45.5 -132.5t-64.5 -115.5t-88 -81.5t-116 -31q-42 0 -82.5 17t-72 46t-50.5 67t-19 81q0 37 11.5 76.5t33.5 71.5t55 53t75 21q35 0 57 -21.5t22 -56.5q0 -19 -8.5 -44t-18 -50.5t-18 -49t-8.5 -39.5
q0 -12 7 -19t24 -7q52 0 91.5 26t68.5 72t48.5 109t31 137.5t16 157t4.5 168.5q0 105 -4 197.5t-16 178t-35 166.5t-62 162q0 14 5.5 24t15.5 19q-10 16 -23 20.5t-29 4.5q-20 0 -31 -3.5t-30 -3.5zM1898 240q0 -31 -13 -53.5t-34 -37.5t-47.5 -22.5t-54.5 -7.5
q-29 0 -58 8.5t-51.5 25t-36.5 41.5t-14 58t12.5 57.5t33.5 41t48 24.5t56 8t57.5 -9.5t51 -27.5t36.5 -45t14 -61zM1761 1473q80 0 138.5 -36.5t96.5 -97.5t56.5 -139t18.5 -160q0 -87 -20 -171t-59 -151t-95.5 -108t-129.5 -41q-77 0 -135 40.5t-97 106t-59 149t-20 169.5
q0 83 18.5 162t56.5 140.5t95 99t135 37.5zM1767 987q36 0 63.5 16.5t46 44t27.5 62.5t9 72t-9.5 73t-29 64.5t-49 45.5t-68.5 17q-35 0 -60.5 -17t-42 -44t-24.5 -61t-8 -68q0 -38 9.5 -74.5t28 -65.5t45.5 -47t62 -18z" />
    <glyph glyph-name="dollar" unicode="$" horiz-adv-x="1094" 
d="M555 1792q21 0 41 2t40 5t42.5 5t48.5 2q0 -28 -9 -53.5t-19.5 -50.5t-19.5 -51t-9 -56q42 -21 80 -26.5t81 -5.5q27 0 53.5 8.5t53 18t52.5 18t52 8.5v-6q0 -32 -12 -75t-30 -94.5t-39 -109t-39 -117.5t-30.5 -120.5t-12.5 -118.5q-13 29 -22.5 65t-19.5 73t-23 72.5
t-32 64t-46 47t-66 22.5v-371q76 -38 149 -91t131 -120t93.5 -147t35.5 -172q0 -101 -32 -181t-87.5 -136.5t-130 -86.5t-159.5 -30q0 -30 9 -56t20.5 -51t20.5 -49t9 -51q-6 -2 -12 -2h-10q-20 0 -38 4.5t-36 10.5t-37.5 10.5t-42.5 4.5q-16 0 -33 -4.5t-35 -9.5
t-35.5 -9.5t-35.5 -4.5h-13q-6 0 -12 2q0 26 7.5 52t16 54t16 59.5t7.5 69.5q-38 17 -79 25t-83 8q-61 0 -117.5 -15.5t-95.5 -43.5q0 56 13 100t29 83t29 76.5t13 80.5t-2 78.5t-5 73t-5 82t-2 106.5q40 -42 73 -91.5t67 -98t73 -91.5t92 -72v410q-74 33 -149 77
t-135.5 102.5t-99 132.5t-38.5 167q0 85 32.5 161t89.5 133.5t134 91.5t166 36q0 28 -9.5 51t-21 45t-21 44t-9.5 49q25 0 47.5 -3.5t44.5 -8t43.5 -8t44.5 -3.5zM670 270q40 0 68.5 10.5t47 28t27 41t8.5 49.5q0 31 -11 62.5t-31 59t-47.5 48t-61.5 29.5v-328zM436 1348
q-33 -1 -57.5 -14t-40 -34t-23.5 -47.5t-8 -54.5q0 -29 8.5 -56.5t24.5 -50t40 -37t56 -16.5v310z" />
    <glyph glyph-name="percent" unicode="%" horiz-adv-x="1489" 
d="M248 117q-6 0 -17.5 -0.5t-26.5 -1.5t-32.5 -1.5t-34.5 -0.5q-25 0 -42 2t-17 10q17 26 42 44t52 34.5t52 34.5t42 45l678 1085q12 22 17 52t7.5 63t4.5 67t10 64q18 0 38 -17.5t43 -38t49 -38t56 -17.5q36 0 69 7.5t67 7.5q24 0 48.5 -7t43.5 -16q-21 -13 -53 -35.5
t-61.5 -46t-51 -44.5t-21.5 -32l-700 -1132q-18 -23 -25.5 -49.5t-11 -54.5t-5.5 -57t-7 -56q-18 0 -43 20t-53 44.5t-58 44.5t-59 20zM348 815q-81 0 -142 30t-101.5 80.5t-61 117t-20.5 139.5q0 70 19.5 135.5t59 116t99 80.5t139.5 30q77 0 135 -29t97 -78t59 -113.5
t20 -135.5t-19 -138t-56.5 -119.5t-94.5 -84t-133 -31.5zM336 1020q24 0 42 14t30 37t18 52.5t6 60.5t-6 60.5t-17.5 52.5t-28.5 37t-38 14q-20 0 -35.5 -15.5t-26.5 -40.5t-16.5 -56t-5.5 -62q0 -30 5 -58t15 -49t24.5 -34t33.5 -13zM1163 72q-81 0 -142 30t-101.5 80.5
t-61 116.5t-20.5 137q0 72 19.5 138.5t59 116.5t99 80t139.5 30q77 0 135 -29t97 -78t59 -113.5t20 -136.5q0 -71 -19 -137.5t-56.5 -119t-94.5 -84t-133 -31.5zM1151 276q24 0 42 14t30 37t18 52.5t6 60.5t-6 60.5t-17.5 52.5t-28.5 37t-38 14t-36.5 -15t-26 -40t-16 -56.5
t-5.5 -64.5q0 -29 5 -56t15 -48.5t24.5 -34.5t33.5 -13z" />
    <glyph glyph-name="ampersand" unicode="&#x26;" horiz-adv-x="1268" 
d="M625 1620q82 0 143 -25t101 -66.5t59.5 -95.5t19.5 -112q0 -56 -21.5 -106t-59 -93t-87 -79.5t-106.5 -65.5q21 -54 43 -112.5t44.5 -118.5t46.5 -119t50 -113q20 56 30.5 99t10.5 77q0 24 -12 45t-26.5 40.5t-26.5 38.5t-13 40q9 14 25 19.5t35 7.5t39 3.5t36 6.5
q30 12 57 32.5t54.5 40t56.5 34t64 14.5q0 -50 -21.5 -91t-47.5 -80t-47.5 -79.5t-22.5 -89.5q-10 -87 -32 -170t-67 -160q12 -29 27.5 -54.5t35 -50t44 -48.5t53.5 -50q28 -22 54 -43t46 -39.5t32.5 -34t12.5 -26.5q-40 0 -77 6t-73.5 12.5t-72.5 12.5t-74 6q-28 0 -55 -6
t-53 -13.5t-52.5 -13.5t-54.5 -6q-9 0 -20 0.5t-21 3.5q20 17 39 39t19 45q0 19 -17 41q-61 -57 -137 -92t-160 -35q-71 0 -130 23t-107 62.5t-84 92.5t-60 113t-36.5 124.5t-12.5 127.5q0 85 26.5 163.5t73 146.5t109.5 123.5t135 94.5q-11 29 -23 58t-22 58t-16 59.5
t-6 62.5q0 72 26.5 130t71.5 99.5t105.5 63.5t128.5 22zM545 240q15 0 36 2.5t40 8.5t32 16.5t13 25.5q-57 133 -124 266t-130 264q-20 0 -39.5 -22.5t-34.5 -59.5t-24 -84t-9 -96q0 -58 12.5 -115.5t41 -103t74.5 -74t112 -28.5zM616 1180q28 4 52.5 21.5t42.5 43
t28.5 55.5t10.5 58q0 34 -18 58t-58 24q-27 0 -45 -9.5t-29 -25.5t-15.5 -37t-4.5 -45q0 -37 10.5 -76t25.5 -67z" />
    <glyph glyph-name="quotesingle" unicode="'" horiz-adv-x="336" 
d="M125 1192q-6 34 -11.5 58.5t-14 43.5t-21 35.5t-33.5 34.5q5 14 6.5 26.5t1.5 24.5q0 28 -6 55.5t-13.5 53.5t-13.5 51.5t-6 50.5q35 0 69.5 -7.5t72.5 -10.5h8q40 3 78.5 12.5t79.5 11.5q-1 -26 -7.5 -51.5t-14 -51.5t-13.5 -52t-6 -52q0 -14 1.5 -26.5t6.5 -26.5
q-26 -19 -40 -39t-22.5 -41.5t-13 -46.5t-10.5 -53h-78v0z" />
    <glyph glyph-name="parenleft" unicode="(" horiz-adv-x="649" 
d="M627 1729q0 -79 -13 -131.5t-34.5 -91.5t-48.5 -72t-55.5 -73.5t-55.5 -95.5t-48.5 -137.5t-34.5 -200.5t-13 -284t13 -283.5t34.5 -200.5t48.5 -137.5t55.5 -94.5t55.5 -72.5t48.5 -71t34.5 -90.5t13 -131h-29q0 38 -25.5 68t-66.5 57.5t-94 55.5t-108 63t-108 79.5
t-94 105t-66.5 140t-25.5 184.5v648q0 97 25.5 173.5t66.5 136.5t94 106.5t108 84t108 69t94 62.5t66.5 63t25.5 71h29z" />
    <glyph glyph-name="parenright" unicode=")" horiz-adv-x="647" 
d="M20 -438q0 79 13 131.5t34.5 91.5t48.5 72t55.5 73t56 95t49 137.5t34.5 200.5t13 284t-13 284t-34.5 200.5t-49 137t-56 94.5t-55.5 73t-48.5 71.5t-34.5 90.5t-13 131h29q0 -38 25.5 -68t66.5 -57.5t94 -55.5t108 -63t108 -80t94 -105.5t66.5 -140t25.5 -184.5v-647
q0 -98 -25.5 -174t-66.5 -136t-94 -106.5t-108 -84t-108 -69.5t-94 -62.5t-66.5 -62.5t-25.5 -71h-29z" />
    <glyph glyph-name="asterisk" unicode="*" horiz-adv-x="956" 
d="M662 1661q-2 -31 -17.5 -72t-34.5 -86t-36.5 -91t-22.5 -85q21 9 44.5 25.5t48 36t49 41.5t48 40.5t44.5 33t38 20.5q7 -18 11 -38t7 -40t6.5 -40.5t8.5 -41.5l2 -8q19 -44 44 -81.5t42 -80.5q-15 -5 -32.5 -6.5t-37.5 -1.5q-46 0 -100.5 5t-105.5 5h-28q-13 0 -26 -2v-4
q19 -26 58.5 -53.5t82 -54.5t80 -53t54.5 -50q-34 -23 -71 -39t-75 -39l-8 -4q-35 -29 -64.5 -64t-66.5 -63q-17 26 -28 70t-22 93t-23.5 96.5t-32.5 82.5h-2q-19 -27 -32 -73t-24 -95t-23 -93.5t-28 -68.5q-32 23 -59.5 53t-61.5 58l-8 4q-19 12 -40 22t-42 19t-42 19
t-40 22q17 22 49.5 45t70.5 47.5t76.5 50t67.5 52.5l-6 2q-20 8 -48 11.5t-60.5 5t-66.5 2t-65 1.5t-58 4t-44 10q16 38 39 70.5t41 71.5l4 8q8 21 13 43.5t9.5 45.5t9.5 45.5t13 43.5q28 -13 60.5 -42.5t68 -64t71.5 -67.5t71 -53l-2 12q0 21 -7.5 49t-18.5 58t-24.5 61.5
t-24.5 61t-18.5 55.5t-7.5 45q40 0 79.5 -9t82.5 -12h8q46 3 91 15t92 14z" />
    <glyph glyph-name="plus" unicode="+" horiz-adv-x="1135" 
d="M39 571q0 31 -5 53t-10.5 43t-10.5 45.5t-5 59.5q29 0 54 -10.5t48 -23t47 -23t52 -10.5h223v258q0 22 -7 42.5t-15.5 40.5t-15.5 40.5t-7 43.5q25 0 48 -5.5t45.5 -12.5t46 -12.5t48.5 -5.5q22 0 44.5 5.5t44.5 11.5t43.5 11.5t42.5 5.5q0 -28 -8 -53.5t-17 -49.5
t-17 -47.5t-8 -47.5v-225h301q22 0 38.5 6.5t30.5 15t27 15t29 6.5q0 -30 -4 -54.5t-8.5 -46t-8 -43t-3.5 -45.5q0 -22 2 -41t4 -39.5t4 -43.5t2 -54q-19 0 -40.5 8.5t-43.5 19t-43 19t-39 8.5h-248v-235q0 -27 10.5 -53t23.5 -51t23.5 -49t10.5 -48q-32 0 -60.5 5.5t-56 12
t-54.5 12t-56 5.5q-24 0 -47 -3.5t-46 -8t-46 -8t-48 -3.5q0 26 12 53t26 55t26 57t12 59v200h-211q-27 0 -54.5 -10t-54 -21.5t-52.5 -21.5t-50 -10q0 26 5 50t10.5 48t10.5 48.5t5 51.5z" />
    <glyph glyph-name="comma" unicode="," horiz-adv-x="395" 
d="M41 -27q0 22 4.5 42.5t10 41t10 41t4.5 41.5q0 22 -4.5 43.5t-10 42.5t-10 42t-4.5 44q20 0 39 -4t38.5 -8.5t39 -8t39.5 -3.5q24 0 46.5 6.5t45.5 15t46 15t48 6.5q0 -29 -7 -53.5t-15.5 -48.5t-15.5 -48t-7 -51q0 -18 6 -34.5t12.5 -33t12.5 -33.5t6 -36
q-18 -16 -38.5 -26t-41.5 -19t-41 -19t-37 -26q-26 -25 -48.5 -53t-47.5 -54h-101q0 27 14 49.5t31.5 45t31.5 47.5t14 57z" />
    <glyph glyph-name="uni00AD" unicode="-" horiz-adv-x="803" 
d="M27 571q0 19 4 38.5t9 38.5t9 38t4 39q0 18 -4 35t-9 34t-9 34t-4 34q92 0 181.5 -9t184.5 -9q97 0 190.5 9t190.5 9q0 -37 -7 -73t-7 -76q0 -37 8 -70.5t8 -71.5q-94 0 -186 9.5t-187 9.5q-97 0 -189.5 -9.5t-186.5 -9.5z" />
    <glyph glyph-name="uni00AD" unicode="&#xad;" horiz-adv-x="803" 
d="M27 571q0 19 4 38.5t9 38.5t9 38t4 39q0 18 -4 35t-9 34t-9 34t-4 34q92 0 181.5 -9t184.5 -9q97 0 190.5 9t190.5 9q0 -37 -7 -73t-7 -76q0 -37 8 -70.5t8 -71.5q-94 0 -186 9.5t-187 9.5q-97 0 -189.5 -9.5t-186.5 -9.5z" />
    <glyph glyph-name="period" unicode="." horiz-adv-x="403" 
d="M188 293q25 0 49 5t47.5 10.5t47 10.5t47.5 5q0 -26 -3.5 -51.5t-8 -50t-8 -49.5t-3.5 -50q0 -47 6.5 -91t6.5 -93q-42 0 -80 8t-80 8q-24 0 -45.5 -4t-43 -8.5t-43.5 -8.5t-46 -4q0 28 3 53t6 48l6 46t3 48q0 49 -11 98t-11 99q21 -1 41 -5.5t40 -10t40 -9.5t40 -4z" />
    <glyph glyph-name="slash" unicode="/" horiz-adv-x="1159" 
d="M449 -43q-59 34 -109.5 55.5t-102.5 34t-108 17t-125 4.5q68 90 154 159l538 1198v238q54 -33 110.5 -53t114.5 -30.5t116.5 -13.5t117.5 -3q-12 -13 -33.5 -36t-44.5 -47.5t-43 -48t-28 -38.5l-549 -1227q-5 -9 -5.5 -20t-0.5 -25l4 -107q0 -15 -1.5 -30t-4.5 -27z" />
    <glyph glyph-name="zero" unicode="0" horiz-adv-x="893" 
d="M446 -2q-87 0 -161 38t-130 100.5t-90.5 143t-41.5 164.5v617q0 60 11.5 124.5t35.5 126t59 116.5t82 96.5t105.5 65.5t129.5 24q72 0 131 -24.5t106.5 -66t82.5 -96.5t58 -116.5t34.5 -125.5t11.5 -124v-508q0 -62 -12 -127t-36 -126.5t-60 -116.5t-83 -96t-105.5 -65
t-127.5 -24zM436 276q29 0 50.5 24.5t36 65.5t23.5 94t14.5 110t7 114.5t1.5 106.5t-1 107.5t-5 117t-11.5 113t-21.5 96.5t-34.5 67t-49.5 25t-49.5 -24t-35 -64t-23.5 -91.5t-14 -107.5t-7 -111.5t-2 -103.5q0 -50 2.5 -109t8.5 -119t15 -116t22.5 -99.5t31.5 -69.5
t41 -26z" />
    <glyph glyph-name="one" unicode="1" horiz-adv-x="559" 
d="M121 1309q0 29 -17 51t-37.5 43.5t-37.5 44.5t-17 55q0 12 28.5 16t69 5.5t85.5 3t77 6.5q31 5 60 17.5t57.5 25.5t57.5 23t61 10q6 0 9 -8.5t3 -14.5q-15 -57 -35.5 -111.5t-29.5 -113.5v-1182q0 -24 13.5 -46.5t29.5 -45t29.5 -44.5t13.5 -44q-35 0 -67 5.5t-64 12
t-65.5 12t-70.5 5.5q-32 0 -61 -4t-56.5 -8.5t-55 -8.5t-56.5 -4q0 30 12 57t26 53.5t26 52.5t12 54v1082z" />
    <glyph glyph-name="two" unicode="2" horiz-adv-x="926" 
d="M401 -2q-48 0 -94 5t-91.5 10.5t-93 10.5t-99.5 5q0 180 24.5 308t65 218t92 150t105 103.5t105 79.5t92 78t65 98t24.5 140q0 25 -3.5 48t-14 41t-29 29t-47.5 11q-77 0 -129 -27t-87.5 -67.5t-57 -87.5t-37 -87.5t-28.5 -67.5t-30 -27l10 202q0 58 -11.5 115.5
t-26 114.5t-26 113t-11.5 112q26 0 51 -9t49.5 -19.5t50.5 -19.5t53 -9q39 0 73.5 7.5t67 16t65.5 16t71 7.5q81 0 147 -32.5t112.5 -87t71.5 -124.5t25 -145q0 -98 -23 -172.5t-61 -133.5t-86.5 -105.5t-98.5 -86.5t-98.5 -77.5t-86.5 -79t-61 -90t-23 -111.5
q0 -23 5 -43.5t16 -36t28.5 -24.5t42.5 -9q54 0 100 22t85 57.5t69.5 79.5t52.5 89q7 13 11 28t9 29.5t12.5 27.5t22.5 21q-5 -40 -6.5 -76t-1.5 -71q0 -80 5.5 -152t10.5 -151q0 -26 7.5 -46.5t16.5 -39.5t16.5 -38t7.5 -40q-26 0 -49 7.5t-45.5 16t-47 16t-53.5 7.5
q-40 0 -75.5 -7.5t-69 -16t-67 -16t-69.5 -7.5z" />
    <glyph glyph-name="three" unicode="3" horiz-adv-x="870" 
d="M215 45q-26 0 -50.5 -7t-48.5 -15.5t-47 -15.5t-46 -7q11 46 19 83.5t14 73t10.5 72.5t7 82.5t3.5 103.5t1 136v55q17 0 34.5 -25.5t37.5 -63.5t44 -83t55.5 -83t71.5 -63.5t91 -25.5q48 0 75 22t41 55t17.5 71.5t3.5 72.5q0 88 -17 140t-43 81t-56 41t-56 19.5t-43 17
t-17 33.5q0 27 17.5 41.5t43.5 27t56 27t56 41t43.5 70t17.5 113.5q0 41 -5 82.5t-22 75t-50 54.5t-89 21q-58 0 -100.5 -25.5t-73.5 -63.5t-52 -83t-37 -83t-28.5 -63.5t-25.5 -25.5q6 93 9 158t3 116q0 49 -8.5 99t-19 93.5t-19 77.5t-8.5 52q25 0 47.5 -5t44.5 -11.5
t44.5 -11.5t47.5 -5q38 0 70.5 7t62.5 15.5t60 15.5t63 7q88 0 159 -37.5t121.5 -98.5t77.5 -139.5t27 -160.5q0 -53 -8.5 -108t-27.5 -106.5t-50 -95.5t-76 -75q75 -72 118.5 -169.5t43.5 -207.5q0 -79 -23.5 -157t-69.5 -139.5t-114 -99.5t-156 -38q-36 0 -70.5 7
t-68.5 15.5t-67 15.5t-66 7z" />
    <glyph glyph-name="four" unicode="4" horiz-adv-x="1010" 
d="M455 8q0 15 5.5 30t14 35.5t18 50t18 73.5t14 105.5t5.5 146.5h-362q-15 0 -28 -6t-25.5 -13.5t-24.5 -13.5t-24 -6q-2 6 -3.5 11t-1.5 11q0 22 5.5 46t5.5 42q0 53 -18.5 94.5t-49.5 83.5q64 41 123 98.5t104 125.5t72 143.5t27 153.5q0 35 -6.5 65t-6.5 62
q43 0 73.5 11.5t55.5 30.5t46.5 43t45.5 49t53.5 49t70 43t95 30.5t128.5 11.5q0 -19 -10.5 -47t-22.5 -60.5t-22.5 -68.5t-10.5 -70v-706q29 0 53.5 13.5t45.5 29.5t39 29.5t34 13.5q0 -29 -2.5 -55t-5.5 -52t-5.5 -54.5t-2.5 -62.5q0 -26 8 -49.5t8 -52.5q0 -14 -2 -27
t-8 -22q-11 17 -29 31t-39.5 24t-46 15.5t-47.5 5.5v-267q0 -26 12 -47.5t26 -42.5t26 -43t12 -49q-35 0 -66.5 6.5t-63 15t-62.5 15t-64 6.5q-24 0 -45.5 -5.5t-43 -12t-45 -12t-50.5 -5.5zM530 1026l-221 -364h221v364z" />
    <glyph glyph-name="five" unicode="5" horiz-adv-x="926" 
d="M33 340q0 50 19.5 96t64.5 88h20q9 -58 29 -104.5t53 -79.5t79 -50.5t108 -17.5q53 0 89.5 22t59.5 57.5t33 80.5t10 92q0 64 -12.5 119.5t-42 96.5t-78.5 65t-121 24q-47 0 -87.5 -16.5t-78.5 -39t-75 -47t-76 -40.5q0 17 3 39.5t7 44.5t8 41.5t6 30.5v612q0 12 -3.5 33
t-8 42.5t-9 41.5t-7.5 31q27 0 51 -4.5t48 -10t49.5 -10t57.5 -4.5q38 0 71.5 5.5t65.5 12t64 12t68 5.5q24 0 46 -4t44.5 -8.5t46 -8.5t51.5 -4t53 6.5t48.5 15t46.5 15t49 6.5q-21 -41 -34.5 -88t-21.5 -97t-11 -102t-3 -102q0 -32 1 -63t1 -60q-12 0 -27 18t-32 45
t-36 58t-39 58t-41 45t-42 18h-197q-22 0 -35 -15.5t-19.5 -41.5t-8.5 -59t-2 -69v-122q48 14 87 20t73 6q95 0 171 -44.5t129 -118.5t81 -170.5t28 -200.5q0 -102 -30.5 -199.5t-89.5 -173.5t-144.5 -122t-196.5 -46q-76 0 -149.5 27t-131.5 73.5t-94 108t-36 131.5z" />
    <glyph glyph-name="six" unicode="6" horiz-adv-x="977" 
d="M348 1006q40 11 74.5 15.5t66.5 4.5q72 0 133 -23t111 -63t88 -94t64 -117t39.5 -131.5t13.5 -136.5q0 -91 -23.5 -174.5t-73.5 -147t-127.5 -102t-185.5 -39.5q-112 0 -193 30t-137.5 82.5t-91.5 125t-54 157t-25.5 178t-6.5 189.5q0 82 8 177t29 189t57 181t92 154
t133.5 107.5t182.5 41.5q39 0 73.5 -9t67.5 -19.5t66.5 -19t69.5 -8.5q18 0 36 3.5t35 8t33.5 8t32.5 3.5q2 0 10 -4t10 -6q-25 -56 -46 -110t-38 -109t-31 -111t-26 -117q-15 42 -38 81t-55 69t-74.5 48.5t-96.5 18.5q-67 0 -107 -33.5t-61.5 -83.5t-28 -108t-6.5 -106z
M520 250q34 0 60.5 18t43.5 48t26 69.5t9 83.5q0 54 -13.5 109.5t-41 100.5t-68 73t-94.5 28q-11 0 -27 -0.5t-31 -4.5t-25.5 -12.5t-10.5 -23.5v-282q0 -36 13 -72.5t35.5 -66.5t54 -49t69.5 -19z" />
    <glyph glyph-name="seven" unicode="7" horiz-adv-x="1028" 
d="M377 37q-44 0 -88 -6t-87.5 -12.5t-86.5 -12.5t-86 -6q0 21 12 40.5t30 38.5t40.5 38t43.5 39.5t38.5 43t25.5 48.5q22 103 54 199t68 185.5t73.5 173.5t70 162.5t58 152.5t37.5 143q0 29 -13.5 49.5t-36 34t-51 20t-59.5 6.5q-33 0 -65.5 -6.5t-60 -18t-47.5 -28
t-28 -37.5q-16 -32 -31 -65.5t-30.5 -66.5t-33.5 -65t-40 -61q3 34 3.5 69t0.5 70q0 122 -15 241.5t-53 227.5q7 2 13 2h12q20 0 38.5 -6t37.5 -12.5t39.5 -12.5t44.5 -6q34 0 65 4t61 8.5t59 8.5t61 4q44 0 87.5 -6t87 -12.5t88 -12.5t91.5 -6q27 0 50.5 5t46 10.5t44 10.5
t45.5 5h13q8 0 14 -2q-14 -56 -40.5 -109.5t-49.5 -107.5q-16 -39 -23.5 -81.5t-13.5 -84.5t-14.5 -83.5t-26.5 -78.5q-125 -196 -185.5 -414t-74.5 -448q0 -28 14 -50.5t35.5 -40.5t46.5 -33t46.5 -29t35.5 -27.5t14 -28.5h-26q-48 0 -95.5 6t-95 12.5t-94.5 12.5t-94 6z
" />
    <glyph glyph-name="eight" unicode="8" horiz-adv-x="932" 
d="M182 762q-81 68 -120 168.5t-39 210.5q0 93 28.5 178.5t83.5 151t136.5 104.5t187.5 39q108 0 192.5 -38t142 -102.5t87.5 -150t30 -180.5q0 -51 -9 -102t-27.5 -98.5t-46.5 -90t-66 -76.5q69 -65 102 -152t33 -180q0 -88 -29 -168.5t-83 -141.5t-132.5 -97.5
t-177.5 -36.5q-106 0 -190 30.5t-143 84.5t-90.5 129.5t-31.5 165.5q0 48 10 97t30 94.5t50.5 86.5t71.5 74zM469 238q32 0 55.5 18.5t39 48.5t23 66.5t7.5 72.5q0 39 -8 77.5t-24.5 70t-41 51t-57.5 19.5q-32 0 -56 -20t-40 -52t-24.5 -71.5t-8.5 -78.5q0 -38 8 -74
t25 -64.5t42 -46t60 -17.5zM459 897q36 0 63 21t44.5 54.5t26.5 75t9 82.5t-9 84t-26 78.5t-43.5 58.5t-60.5 23q-33 0 -58.5 -23t-43 -59.5t-26.5 -81t-9 -86.5q0 -39 8 -79.5t24 -73t41 -53.5t60 -21z" />
    <glyph glyph-name="nine" unicode="9" horiz-adv-x="1006" 
d="M18 55q25 51 44.5 105.5t35 111.5t29 115.5t27.5 116.5q25 -43 40.5 -77t30.5 -59.5t31 -44t42 -30t63.5 -16.5t95.5 -5q69 0 109 27t60 72.5t25.5 104.5t5.5 124q-96 -37 -180 -37q-70 0 -130 22.5t-108 61.5t-84.5 92.5t-61.5 115.5t-37.5 130t-12.5 137
q0 98 26.5 188.5t81 159.5t138.5 110.5t198 41.5q104 0 182 -29.5t133 -82t90.5 -124.5t56 -157t28.5 -180t8 -193q0 -105 -6 -209t-25 -199.5t-54 -177t-92.5 -142t-141.5 -94.5t-201 -34q-45 0 -84 10.5t-77 23.5t-76.5 23.5t-80.5 10.5q-12 0 -24 -3.5t-24 -8t-24 -8
t-24 -3.5q-8 0 -16.5 2t-16.5 8zM340 1128q0 -51 12 -101.5t38 -91t68 -66t101 -25.5q6 0 22 1.5t33 5t30 10t13 16.5v305q0 33 -13 66.5t-34.5 60.5t-51 44t-62.5 17q-46 0 -76 -24t-48 -60t-25 -78.5t-7 -79.5z" />
    <glyph glyph-name="colon" unicode=":" horiz-adv-x="401" 
d="M186 1098q25 0 49 4.5t47.5 10.5t47 10.5t47.5 4.5q0 -26 -3.5 -49.5t-8 -47.5t-8 -49.5t-3.5 -53.5q0 -47 6.5 -91t6.5 -94q-21 0 -40 2.5t-37.5 6t-38.5 6t-44 2.5q-27 0 -49 -4t-42.5 -8.5t-41.5 -8.5t-45 -4q0 28 3 53t6 48l6 46t3 48q0 28 -3.5 53t-7.5 48.5
t-7.5 47t-3.5 47.5q21 -1 41 -5.5t40 -9.5t40 -9t40 -4zM186 360q25 0 49 5t47.5 10.5t47 10.5t47.5 5q0 -26 -3.5 -50t-8 -48t-8 -49.5t-3.5 -53.5q0 -46 6.5 -90t6.5 -94q-21 0 -40 2.5t-37.5 6t-38.5 6t-44 2.5t-45.5 -4t-43 -8.5t-43.5 -8.5t-46 -4q0 28 3 53t6 48l6 46
t3 48q0 27 -3.5 52t-7.5 49t-7.5 47.5t-3.5 47.5q21 -1 41 -5.5t40 -10t40 -9.5t40 -4z" />
    <glyph glyph-name="uni037E" unicode=";" horiz-adv-x="401" 
d="M195 1098q24 0 48 4.5t47.5 10.5t47 10.5t47.5 4.5q0 -26 -3.5 -49.5t-8 -47.5t-8 -49.5t-3.5 -53.5q0 -47 6.5 -91t6.5 -94q-21 0 -39.5 2.5t-37.5 6t-39 6t-44 2.5q-27 0 -49 -4t-42.5 -8.5t-41.5 -8.5t-45 -4q0 28 3 53t6 48l6 46t3 48q0 28 -3.5 53t-7.5 48.5
t-7.5 47t-3.5 47.5q21 -1 41 -5.5t40.5 -9.5t40.5 -9t40 -4zM41 -27q0 22 4.5 41.5t10 39.5t10 40.5t4.5 44.5q0 22 -4.5 43.5t-10 42.5t-10 42t-4.5 44q20 0 38.5 -4t37 -8.5t38 -8t42.5 -3.5q24 0 46.5 6.5t45.5 15t46 15t48 6.5q0 -29 -7 -53.5t-15.5 -48.5t-15.5 -48
t-7 -51q0 -18 6 -34.5t12.5 -33t12.5 -33.5t6 -36q-18 -16 -38.5 -26t-41.5 -19t-41 -19t-37 -26q-26 -25 -48.5 -53t-47.5 -54h-101q0 27 14 49.5t31.5 45t31.5 47.5t14 57z" />
    <glyph glyph-name="uni037E" unicode="&#x37e;" horiz-adv-x="401" 
d="M195 1098q24 0 48 4.5t47.5 10.5t47 10.5t47.5 4.5q0 -26 -3.5 -49.5t-8 -47.5t-8 -49.5t-3.5 -53.5q0 -47 6.5 -91t6.5 -94q-21 0 -39.5 2.5t-37.5 6t-39 6t-44 2.5q-27 0 -49 -4t-42.5 -8.5t-41.5 -8.5t-45 -4q0 28 3 53t6 48l6 46t3 48q0 28 -3.5 53t-7.5 48.5
t-7.5 47t-3.5 47.5q21 -1 41 -5.5t40.5 -9.5t40.5 -9t40 -4zM41 -27q0 22 4.5 41.5t10 39.5t10 40.5t4.5 44.5q0 22 -4.5 43.5t-10 42.5t-10 42t-4.5 44q20 0 38.5 -4t37 -8.5t38 -8t42.5 -3.5q24 0 46.5 6.5t45.5 15t46 15t48 6.5q0 -29 -7 -53.5t-15.5 -48.5t-15.5 -48
t-7 -51q0 -18 6 -34.5t12.5 -33t12.5 -33.5t6 -36q-18 -16 -38.5 -26t-41.5 -19t-41 -19t-37 -26q-26 -25 -48.5 -53t-47.5 -54h-101q0 27 14 49.5t31.5 45t31.5 47.5t14 57z" />
    <glyph glyph-name="less" unicode="&#x3c;" horiz-adv-x="1112" 
d="M2 535q0 25 16 43q57 49 130.5 98t155 95t167.5 88t168 79t157 66.5t135 51t101 33t55 11.5q0 -49 -33 -96.5t-87 -93t-123 -90.5t-141 -90t-140 -90t-121 -91q53 -43 114 -76.5t124 -64.5t124.5 -63.5t116 -74t97.5 -95t69 -126.5q-49 0 -126 17.5t-169.5 48.5
t-196 73.5t-206 93.5t-199.5 107t-176 115q-12 12 -12 31z" />
    <glyph glyph-name="equal" unicode="=" horiz-adv-x="958" 
d="M29 664q0 19 4.5 38t10.5 38.5t10.5 39t4.5 39.5q0 18 -4.5 36t-10.5 35.5t-10.5 35t-4.5 35.5q110 0 218 -9.5t222 -9.5q117 0 229.5 9.5t229.5 9.5q0 -39 -8.5 -76t-8.5 -78q0 -37 10.5 -71.5t10.5 -71.5q-114 0 -225 9t-226 9q-117 0 -228.5 -9t-223.5 -9zM27 227
q0 19 4.5 38.5t10.5 39t10.5 39t4.5 39.5q0 18 -4.5 36t-10.5 35.5t-10.5 34.5t-4.5 35q110 0 218 -9t222 -9q117 0 229.5 9t229.5 9q0 -38 -8.5 -75t-8.5 -78q0 -37 10.5 -72t10.5 -72q-114 0 -225 9.5t-226 9.5q-117 0 -228.5 -9.5t-223.5 -9.5z" />
    <glyph glyph-name="greater" unicode="&#x3e;" horiz-adv-x="1114" 
d="M1110 612q0 -25 -16 -43q-57 -50 -130.5 -98.5t-155 -94.5t-167.5 -88t-168 -79t-157 -66.5t-135 -51t-101 -33t-55 -11.5q0 49 33 96.5t87 93t123 90.5t141 90t140 90t121 91q-53 43 -114 76.5t-124 64.5t-124.5 63.5t-116 74t-97.5 95t-69 126.5q49 0 126 -17.5
t169.5 -48.5t196 -73.5t206 -93.5t199 -107.5t176.5 -114.5q12 -12 12 -31z" />
    <glyph glyph-name="question" unicode="?" horiz-adv-x="872" 
d="M539 469q-26 0 -48.5 4t-45.5 9.5t-47.5 9.5t-53.5 4q-22 0 -43.5 -4t-45 -9.5t-50.5 -9.5t-60 -4q36 42 46 92.5t10 104.5q0 31 -6 59.5t-13.5 58t-13.5 59.5t-6 64q24 0 44 -6t40 -12.5t42 -12.5t50 -6q51 0 89.5 18.5t64 50.5t38.5 74.5t13 90.5q0 39 -9 76t-27 65.5
t-44.5 46t-61.5 17.5q-51 0 -95 -19t-78 -50.5t-58.5 -73.5t-36.5 -87q-9 0 -13 7.5t-7 13.5q-14 125 -36 249t-61 242q23 0 42 -7t36.5 -15.5t34.5 -15.5t37 -7q37 0 69 9t64 20t65.5 20t73.5 9q105 0 184.5 -41.5t133 -110.5t80 -158t26.5 -184q0 -84 -21.5 -164.5
t-65 -144t-108.5 -104t-153 -46.5q0 -31 4 -54.5t8.5 -44.5t8.5 -40.5t4 -42.5zM334 324q25 0 50 4.5t49.5 9.5t49.5 9.5t49 4.5q0 -23 -3.5 -44t-7.5 -42.5t-7.5 -44.5t-3.5 -49q0 -40 6 -80t6 -84q-24 0 -45 2.5t-41 5l-40 5t-42 2.5q-24 0 -46.5 -3.5t-44.5 -8t-45 -8
t-48 -3.5q0 25 3 47.5t6 43.5t6 41.5t3 41.5q0 22 -4 44.5t-8.5 44.5t-8 44t-3.5 43q22 -1 43 -5t42 -8.5t42 -8.5t43 -4z" />
    <glyph glyph-name="at" unicode="@" horiz-adv-x="1858" 
d="M678 0q-101 0 -189 25.5t-161.5 72t-131 111.5t-97 143.5t-60.5 168.5t-21 186q0 136 47 256t128 221t189 180.5t229.5 135t250 85t250.5 29.5q219 0 360.5 -47.5t223 -136t113.5 -214t32 -280.5q0 -56 -7 -120t-23 -128t-42.5 -123.5t-66 -105t-93.5 -72.5t-124 -27
q-55 0 -103 20t-96 49.5t-98 64t-110 64t-133 49.5t-165 20q-17 0 -28.5 -9t-19 -22t-10.5 -27.5t-3 -25.5q0 -35 25.5 -69t64 -62t83 -45t83.5 -17h-516q10 13 26.5 21.5t33 16.5t29.5 19.5t15 30.5q-2 14 -2 26v25q0 90 24 170.5t60 149.5t78 125t78 98t60 68.5t24 36.5
t-6.5 22.5t-15 24.5t-17.5 24t-15 21q11 3 19.5 3.5t17.5 0.5q21 0 41 -4.5t40 -10t40 -10t41 -4.5q23 0 44 3t40.5 6.5t38.5 6.5t39 3q12 0 23 -1t22 -3l-111 -123q-6 -22 -8 -44.5t-2 -45.5q0 -61 16 -124t43.5 -122.5t64 -112t77 -91.5t82.5 -62t82 -23q51 0 91.5 17
t71.5 47t53 69t35.5 84t20 92t6.5 92q0 73 -17.5 148t-49.5 145.5t-78 134t-103 112.5t-124 80.5t-142 39.5l-58 4t-57 2q-126 0 -242.5 -27.5t-218 -78.5t-185 -124.5t-143 -165.5t-92 -201t-32.5 -232q0 -65 5.5 -136.5t21 -142t44.5 -134.5t76 -113t114.5 -78t160.5 -29
q95 0 161.5 16.5t115.5 45.5t87 70t76 89q15 0 22.5 -11.5t11.5 -28t4.5 -34t0.5 -30.5q0 -35 -22 -63.5t-58 -50t-82.5 -36.5t-95.5 -24.5t-96.5 -14t-85.5 -4.5zM1024 1077q-38 -29 -74.5 -65t-68.5 -77t-56.5 -86.5t-36.5 -92.5h11q68 0 130.5 -24t114.5 -58
q-20 49 -27 102t-7 107q0 49 4.5 97.5t9.5 96.5z" />
    <glyph glyph-name="A" unicode="A" 
d="M655 18q0 25 4 50.5t9.5 51t9.5 50.5t4 49q0 35 -12 70h-271q-8 -23 -11 -46.5t-3 -47.5q0 -57 20 -111t58 -96q-6 -2 -13 -2h-12q-30 0 -59.5 7t-58.5 15.5t-58.5 15.5t-60.5 7q-26 0 -49 -5t-45.5 -10.5t-45 -10.5t-45.5 -5h-4q33 23 61 78.5t52 134t45.5 176.5
t41.5 206t39 222.5t39 226.5t41.5 217.5t45.5 196.5q0 19 -5.5 36t-12 33.5t-12 34.5t-5.5 40q32 0 61 -8t57.5 -17t57.5 -17t62 -8q34 0 63.5 7.5t58.5 16t58 16t61 7.5q0 -27 -6 -50t-12.5 -47t-12.5 -50t-6 -57q21 -87 41.5 -189.5t40.5 -212t40 -221.5t40.5 -217.5
t41 -199.5t41.5 -167.5t43.5 -123t45.5 -64.5q-33 0 -68.5 5t-72 10.5t-73.5 10.5t-73 5q-45 0 -86.5 -6.5t-89.5 -6.5zM428 494h205l-98 526z" />
    <glyph glyph-name="B" unicode="B" horiz-adv-x="1016" 
d="M231 35q-27 0 -52 -6t-50.5 -12.5t-51.5 -12.5t-54 -6q0 33 8.5 62.5t20 57t24.5 55t22 56.5v1090q0 38 -8.5 72t-19 67t-19 65.5t-8.5 67.5q7 0 27.5 -4t47 -8.5t55 -8t50.5 -3.5q49 0 93.5 7.5t86.5 16t84 16t86 7.5q98 0 175.5 -38t131.5 -101t82.5 -145.5
t28.5 -170.5q0 -54 -11.5 -106.5t-35.5 -99.5t-61 -87t-88 -69q51 -29 89 -69.5t62.5 -88.5t36.5 -102t12 -109q0 -82 -26 -159t-75.5 -137t-122 -96t-165.5 -36q-50 0 -97 5.5t-93 12t-91.5 12t-93.5 5.5zM416 272q25 -14 45.5 -19t40.5 -5q37 0 66 20t49 52.5t30 74
t10 84.5q0 42 -9.5 82.5t-30 71.5t-51 50t-72.5 19q-17 0 -37 -3.5t-41 -12.5v-414zM416 905q84 0 132 18t73 50.5t31.5 76.5t6.5 95q0 41 -8 79t-27 67t-49 46t-73 17q-19 0 -40 -3.5t-46 -11.5v-434z" />
    <glyph glyph-name="C" unicode="C" horiz-adv-x="891" 
d="M344 408q0 -31 16 -55t40 -40.5t53 -25t55 -8.5q38 0 72.5 16t60.5 42.5t41.5 61t15.5 72.5q0 21 -5.5 39.5t-11.5 36.5t-11.5 36.5t-5.5 39.5q0 20 22 20q47 0 81.5 -24.5t57.5 -62.5t34 -83.5t11 -87.5q0 -77 -30.5 -146.5t-82.5 -122.5t-121 -84.5t-147 -31.5
q-50 0 -104 9.5t-105.5 28.5t-98.5 47.5t-82 66.5t-55.5 86t-20.5 106v866q0 75 33.5 147t89 128.5t127 90.5t147.5 34q39 0 75 -7t71.5 -15.5t71 -15.5t73.5 -7t75.5 7.5t71.5 24.5q-3 -35 -12 -68.5t-20 -67.5t-22.5 -68t-19.5 -68q-12 -49 -19 -99.5t-13 -101.5
q-6 -17 -9.5 -35.5l-7 -37t-9.5 -35.5t-17 -31q-9 32 -18.5 70t-21.5 76.5t-28.5 74t-40 63t-56.5 44t-77 16.5q-22 0 -44 -9.5t-39.5 -25.5t-28.5 -37.5t-11 -46.5v-802z" />
    <glyph glyph-name="D" unicode="D" horiz-adv-x="1028" 
d="M254 45q-31 0 -60 -7t-57.5 -15.5t-57.5 -15.5t-59 -7q19 36 38 73t35 75t26 78t10 81v1010q0 39 -12 82t-26 83t-26 74.5t-12 57.5q26 0 51.5 -7.5t50.5 -16t50.5 -16t52.5 -7.5q39 0 75 7.5t70.5 16t69 16t70.5 7.5q110 0 187.5 -39t129.5 -104t81.5 -150.5
t44.5 -177.5t18.5 -185t3.5 -174q0 -74 -4 -161t-18.5 -174t-42.5 -168t-75.5 -143.5t-118 -100t-169.5 -37.5q-42 0 -82 7t-80 15.5t-81 15.5t-83 7zM446 272q13 -5 26 -6.5t26 -1.5q36 0 70.5 13t61.5 36.5t43.5 55t16.5 69.5v756q0 40 -15.5 70.5t-41 51.5t-58.5 31.5
t-67 10.5q-16 0 -31 -2.5t-31 -5.5v-1078z" />
    <glyph glyph-name="E" unicode="E" horiz-adv-x="1018" 
d="M219 39q-27 0 -50 -4t-46.5 -8.5t-48 -8.5t-54.5 -4q60 198 82.5 401.5t22.5 411.5q0 195 -18 386.5t-66 373.5q22 0 42.5 -3.5t41 -7.5t42 -7.5t46.5 -3.5q42 0 80.5 7t76 15.5t75 15.5t77.5 7q33 0 63.5 -5.5t61.5 -12t63 -12t68 -5.5q30 0 55.5 5.5t49 12t47 12
t49.5 5.5q-14 -112 -30.5 -224t-16.5 -225q0 -35 2.5 -72.5t7.5 -72.5q-36 52 -72.5 113.5t-80.5 114.5t-99.5 88.5t-130.5 35.5q-18 0 -40 -2.5t-41.5 -10t-32.5 -20.5t-13 -35v-380l45 -5q38 0 70.5 11.5t62 29.5t55.5 39.5t52 40.5q0 -28 -4 -57.5t-8.5 -59.5t-8.5 -60.5
t-4 -61.5q0 -51 12 -102t21 -99q-33 0 -61 16.5t-56 36.5t-57 36.5t-64 16.5h-55v-378q0 -27 11.5 -43t29.5 -24t40.5 -10.5t43.5 -2.5q57 0 98 18.5t71 49t53.5 68.5t46 77.5t47.5 76.5t59 64q-2 -31 -3 -63t-1 -64q0 -127 16.5 -253t54.5 -247q-32 0 -61 10.5t-58 23.5
t-58.5 23.5t-61.5 10.5q-39 0 -75 -6t-72 -12.5t-73.5 -12.5t-78.5 -6q-35 0 -65.5 6t-59.5 12.5t-57.5 12.5t-59.5 6z" />
    <glyph glyph-name="F" unicode="F" horiz-adv-x="1028" 
d="M33 1604q6 2 12 2h12q22 0 42.5 -6t41 -13.5t41.5 -13.5t43 -6q37 0 70 6t64.5 13.5t62.5 13.5t65 6q36 0 71 -6t70 -13.5t71 -13.5t75 -6q29 0 58 6t57.5 12.5t57.5 12.5t59 6q0 -29 -12 -79t-27 -110.5t-27 -124.5t-12 -119q0 -50 7 -88t7 -79q0 -11 -1 -20.5t-3 -18.5
v-4q-19 40 -39.5 85t-44 89.5t-52 85.5t-63.5 72.5t-78.5 50t-97.5 18.5q-18 0 -39.5 -4t-39.5 -13.5t-30 -25t-12 -37.5v-385q77 0 123.5 17.5t76 38t49 38t42.5 17.5q0 -32 -6 -59.5t-13.5 -54.5t-13.5 -54t-6 -56q0 -25 5.5 -50.5t12 -50t12 -49t5.5 -48.5q-34 0 -59 17
t-54.5 38t-69.5 38t-104 17v-491q0 -28 13.5 -54t30 -51.5t30.5 -51t14 -52.5q-30 0 -55.5 4t-49.5 9.5t-47.5 9.5t-49.5 4q-45 0 -84 -6t-75 -12.5t-71.5 -12.5t-74.5 -6q0 33 13.5 56.5t30 49.5t30.5 60.5t14 89.5v1140q0 30 -12 64.5t-27 66t-27 56.5t-12 35z" />
    <glyph glyph-name="G" unicode="G" horiz-adv-x="995" 
d="M432 0q-75 0 -148 32t-131 86t-94 124t-36 145v797q0 75 33 152t91 139t136 101.5t168 39.5q43 0 83.5 -5.5t80 -12t79 -12t80.5 -5.5q51 0 101 11.5t98 45.5q0 -59 -10.5 -113.5t-23.5 -114t-23.5 -128.5t-10.5 -156q0 -35 2.5 -73.5t7.5 -83.5q-43 57 -69.5 107
t-47.5 92t-42 75t-51.5 56t-76 35t-116.5 12q-51 0 -83 -28.5t-50.5 -71t-25.5 -91.5t-7 -90v-580q0 -24 6 -52.5t18.5 -53t32.5 -41t48 -16.5q41 0 67 24t40.5 59t20 75.5t5.5 72.5q0 45 -8.5 88t-22.5 84t-31.5 80t-36.5 78q72 -3 142 -13t141 -10q46 0 91.5 7t90.5 24
q-26 -96 -40.5 -193t-14.5 -196q0 -121 19.5 -238t54.5 -231q-8 -5 -18 -6.5t-19 -1.5q-21 0 -43 6.5t-45 14t-46 14t-46 6.5q-42 0 -80.5 -10.5t-76.5 -22.5t-78 -22.5t-85 -10.5z" />
    <glyph glyph-name="H" unicode="H" horiz-adv-x="1096" 
d="M27 -20q0 25 11.5 61.5t26 75.5t26 76.5t11.5 66.5v1104q0 41 -12.5 73t-27 61.5t-27 59t-12.5 64.5q27 0 52 -7.5t50 -16t52 -16t59 -7.5q37 0 73.5 5.5t71.5 12t69 12t68 5.5q0 -13 -15 -38.5t-33 -61.5t-33 -81.5t-15 -99.5v-411h237v389q0 45 -10 88t-22.5 81.5
t-22.5 72.5t-10 61q29 0 56.5 -5.5t55 -12t55.5 -12t58 -5.5q33 0 63 5.5t58.5 12t57 12t57.5 5.5q0 -33 -12 -58t-26 -55.5t-26 -74.5t-12 -115v-1082q0 -51 15 -88.5t33 -67t33 -53.5t15 -47q-36 0 -67.5 6.5t-61.5 15t-61 15t-66 6.5q-31 0 -63.5 -4.5t-64.5 -10.5
t-62.5 -10.5t-55.5 -4.5q0 19 7 36.5t17 38.5t22.5 48t22.5 65t17 89.5t7 121.5v291h-244v-447q0 -33 13.5 -67.5t29.5 -67t29.5 -61t13.5 -49.5q-33 0 -62 7.5t-56.5 16t-54.5 16t-56 7.5q-33 0 -68.5 -7.5t-69 -16t-63 -16t-51.5 -7.5z" />
    <glyph glyph-name="I" unicode="I" horiz-adv-x="547" 
d="M113 1376q0 44 -15 82t-33.5 68.5t-34 53t-16.5 34.5q31 0 63 -8.5t63.5 -19t62.5 -19t61 -8.5q27 0 63 8.5t73 19t70.5 19t55.5 8.5q-1 -30 -14.5 -55.5t-29.5 -55.5t-29 -68.5t-13 -93.5l9 -1114q0 -32 13.5 -65.5t29.5 -65t29.5 -60t13.5 -50.5q-42 0 -78.5 7
t-72 15.5t-73 15.5t-82.5 7q-23 0 -46.5 -3.5t-48 -8t-49.5 -8t-52 -3.5q0 13 13.5 41t30 60.5t30.5 64.5t14 53z" />
    <glyph glyph-name="J" unicode="J" horiz-adv-x="928" 
d="M520 1391q0 30 -12 60.5t-26 59t-26 54t-12 43.5q31 0 58.5 -5t54 -11.5t53.5 -11.5t56 -5q31 0 66 1.5t68.5 7t62 16t46.5 28.5q0 -32 -11 -63.5t-23.5 -63t-23.5 -64.5t-11 -67v-1014q0 -84 -39 -150t-101 -111.5t-139 -70t-153 -24.5q-95 0 -169.5 26t-126 72.5
t-79 110.5t-27.5 141q0 59 17 114t53 97t91.5 67t131.5 25q0 -9 -8.5 -16t-21 -16t-27 -21.5t-27 -32t-21 -48t-8.5 -70.5q0 -34 13.5 -64.5t36 -53.5t53 -36.5t65.5 -13.5q31 0 60.5 10.5t53 30.5t38 47.5t14.5 62.5v959v0z" />
    <glyph glyph-name="K" unicode="K" horiz-adv-x="1141" 
d="M98 1395q0 34 -11.5 64t-26 56t-26 50.5t-11.5 48.5q33 0 63.5 -6.5t61.5 -15t63.5 -15t69.5 -6.5q33 0 62.5 6t57.5 13.5t55 13.5t56 6q-23 -56 -48.5 -112t-37.5 -116v-477q31 72 66.5 144t67.5 145.5t55.5 149t29.5 155.5q0 18 -4 31t-8.5 24.5t-8 23.5t-3.5 28
q13 0 28.5 -4t38.5 -8.5t54.5 -8.5t76.5 -4q70 0 123 10.5t94 10.5q-58 -65 -99.5 -140t-75 -154.5t-64 -160.5t-66.5 -158q48 -123 91.5 -247t88.5 -247.5t96 -245t115 -237.5q0 -9 -7 -10.5t-13 -1.5q-32 0 -60 5.5t-54.5 12t-53 12t-55.5 5.5t-57 -4t-55.5 -8.5t-56 -8.5
t-59.5 -4q0 19 6 33t12.5 29.5t12.5 35t6 50.5q-8 58 -24.5 114.5t-37 113t-42 112t-39.5 112.5q-42 -78 -79 -163t-52 -175q1 -52 16.5 -95.5t33.5 -76.5t33 -55.5t15 -32.5q-34 0 -62 5t-57 11.5t-62 11.5t-77 5q-37 0 -66 -5.5t-55 -12t-52.5 -12t-57.5 -5.5
q0 31 11.5 55.5t26 52.5t26 64t11.5 90v1123v0z" />
    <glyph glyph-name="L" unicode="L" horiz-adv-x="987" 
d="M623 1614q0 -11 -25 -34t-55 -56.5t-55 -78.5t-25 -99q-2 -73 -2 -142v-133v-485q0 -113 2 -181.5t12.5 -106t33.5 -50t64 -12.5q58 1 103.5 18.5t81 47t62 69t48.5 82.5t40.5 87t37.5 85q0 -38 -2 -80t-5 -86t-5 -88t-2 -86q0 -45 7 -87t15.5 -78t15.5 -66.5t7 -53.5
q-25 0 -45.5 6.5t-39.5 15t-37.5 15t-39.5 6.5q-35 0 -67 -6.5t-64.5 -15t-66.5 -15t-72 -6.5q-43 0 -81 8.5t-74.5 18t-72.5 18t-75 8.5q-29 0 -60 -8t-60.5 -17.5t-56 -17.5t-45.5 -8q0 36 16.5 59t37 46.5t37 53t16.5 77.5v1140q0 55 -13.5 84.5t-30 49t-30 36.5
t-14.5 47q37 0 71.5 -7.5t67.5 -16t65.5 -16t67.5 -7.5q42 0 81.5 10.5t77.5 22.5t76 22.5t77 10.5z" />
    <glyph glyph-name="M" unicode="M" horiz-adv-x="1331" 
d="M111 1399q0 44 -10.5 72t-22.5 49t-22.5 40.5t-10.5 45.5q41 0 71 -6t57.5 -13.5t56.5 -13.5t67 -6q40 0 77.5 7.5t75 16t76 16t80.5 7.5q-9 -25 -15.5 -43.5t-10 -35t-5.5 -33t-2 -36.5v-16v-43l109 -676l123 658q2 15 2 26v23q0 28 -5.5 49t-12 39t-12 35.5t-5.5 40.5
q32 0 63 -5.5t62 -12t62.5 -12t66.5 -5.5q45 0 76 3.5t60 8t62.5 8.5t84.5 4q-5 -31 -19 -59t-30 -56t-30 -56.5t-18 -59.5v-1145q0 -57 11.5 -88t25.5 -51t25.5 -36t11.5 -42q-39 0 -60.5 5.5t-40.5 12t-43 12t-69 5.5q-26 0 -48 -3.5t-42.5 -8t-41 -8t-42.5 -3.5
q0 31 10.5 52.5t23.5 48t23.5 66t10.5 106.5v557q-4 0 -15 -35t-25.5 -92.5t-32 -131t-33 -150.5t-28.5 -151.5t-20 -132.5q0 -22 5.5 -39.5t12 -33t12 -31t5.5 -33.5q-54 0 -102 6.5t-99 6.5q-20 0 -37.5 -3.5t-35.5 -8t-36.5 -8t-39.5 -3.5q18 37 26 73t8 77
q0 24 -3.5 49.5t-8.5 50.5q-25 133 -47.5 251.5t-42 206.5t-35.5 139.5t-28 51.5v-637q0 -48 10 -80.5t22.5 -59t22.5 -51.5t10 -59q-21 0 -35.5 4t-28 9.5t-29 9.5t-40.5 4q-36 0 -69.5 -5.5t-66.5 -12t-67.5 -12t-72.5 -5.5q0 28 13.5 52.5t30 52t30 62.5t14.5 83v1145z
" />
    <glyph glyph-name="N" unicode="N" horiz-adv-x="1221" 
d="M106 1348q0 42 -13.5 75t-29.5 61t-29.5 51.5t-13.5 47.5q23 0 49.5 -5.5t54 -12t56 -12t56.5 -5.5q79 0 132 8.5t92 18.5t68 18.5t60 8.5q0 -13 -5.5 -29t-12 -33.5t-12 -37t-5.5 -38.5q0 -57 12 -123.5t32 -137.5t45.5 -145t52.5 -146.5t53 -142t47 -130.5v518
q0 84 -9 142t-22.5 98t-29 65.5t-29 45.5t-22.5 38.5t-9 44.5q29 0 63 -5t70 -11t72 -11t71 -5q31 0 61 8.5t58.5 19t57.5 19t59 8.5q0 -15 -9.5 -31t-23.5 -38t-30.5 -53.5t-30.5 -77.5t-23.5 -110t-9.5 -151v-889q0 -62 21.5 -107t48 -80t48 -63.5t21.5 -58.5
q-42 0 -82.5 13.5t-82 29.5t-85 29.5t-92.5 13.5q-35 0 -69 -6.5t-67.5 -15t-67 -15t-66.5 -6.5q-3 6 -3.5 11.5t-0.5 8.5q0 13 6 24.5t13.5 30t13.5 48.5t6 80q-32 94 -62 189t-61 189.5t-64 188t-72 184.5q0 -156 5 -313.5t8 -312.5q1 -46 21.5 -92.5t45 -90t44.5 -81.5
t20 -66q-33 0 -63 7.5t-58.5 16t-57 16t-59.5 7.5q-32 0 -62.5 -7.5t-60.5 -16t-61 -16t-64 -7.5q0 31 13.5 53.5t29.5 46t29.5 53t13.5 74.5v1125z" />
    <glyph glyph-name="O" unicode="O" horiz-adv-x="913" 
d="M23 1161q0 113 37 198t97.5 141.5t139 85t162.5 28.5q85 0 163 -29t138 -87.5t95.5 -145.5t35.5 -203v-651q0 -108 -34.5 -199t-94 -157.5t-139.5 -104t-172 -37.5q-78 0 -153.5 24.5t-135.5 74.5t-98 125.5t-41 176.5v760zM565 1161q0 39 -8.5 67.5t-22.5 47t-32 28
t-37 9.5q-21 0 -43 -10.5t-40 -31.5t-29 -51.5t-11 -70.5v-715q5 -63 39.5 -94t75.5 -31q21 0 40.5 7.5t34.5 23.5t24 39t9 55v727z" />
    <glyph glyph-name="P" unicode="P" horiz-adv-x="1012" 
d="M119 1311q0 66 -13.5 111t-29.5 78.5t-29.5 59.5t-13.5 54q35 0 67.5 -9t65 -20t66 -20t71.5 -9q41 0 78 5.5t72.5 12t71 12t73.5 5.5q103 0 178.5 -40t125.5 -106.5t74.5 -151.5t24.5 -175q0 -61 -11 -121t-33 -114t-54 -100t-75 -80t-96 -53t-116 -19q-38 0 -81 8
t-91 27v-451q0 -44 16.5 -75.5t37 -55.5t37 -43.5t16.5 -40.5q-36 0 -66.5 7t-62.5 15.5t-69.5 15.5t-88.5 7q-39 0 -71.5 -7t-61 -15.5t-55 -15.5t-53.5 -7q0 21 15 45t33 54t33 67t15 82v1063zM444 897q20 -6 38.5 -10t33.5 -4q42 0 73.5 20t52.5 53t31.5 75t10.5 85
q0 42 -9.5 81t-29 70t-48 49.5t-67.5 18.5q-17 0 -36 -4t-39 -12z" />
    <glyph glyph-name="Q" unicode="Q" horiz-adv-x="969" 
d="M369 -10q-77 16 -140.5 58.5t-108.5 102.5t-70 132.5t-25 148.5v770q0 108 38 189t100 134.5t141.5 80t162.5 26.5q84 0 163 -27.5t139.5 -83t97 -138t36.5 -193.5v-735q0 -68 -19 -135t-53.5 -127t-83 -109t-108.5 -80q14 -34 42 -64.5t61.5 -58t69.5 -51.5t65 -45.5
t48 -40.5t19 -35q-17 0 -57 4.5t-90.5 10t-103.5 10t-95 4.5q-35 0 -63.5 -3.5t-55 -7t-54 -7t-58.5 -3.5zM590 1145q0 46 -10.5 81t-28 58t-41 35t-49.5 12q-50 0 -82.5 -43.5t-32.5 -134.5v-694q0 -85 33.5 -125.5t81.5 -40.5q24 0 47 10t41 30t29.5 50.5t11.5 71.5v690z
" />
    <glyph glyph-name="R" unicode="R" horiz-adv-x="1114" 
d="M129 1391q0 29 -13 53t-28 47.5t-28 47t-13 50.5q30 0 58 -4t56 -8.5t57.5 -8t62.5 -3.5q48 0 91.5 7t86 15.5t84.5 15.5t86 7q100 0 176.5 -38t127.5 -100.5t77 -143.5t26 -167q0 -57 -13 -114t-39 -108t-66 -93.5t-95 -71.5q70 -51 108.5 -118t56.5 -142t21 -154.5
t3 -156.5v-8q0 -42 13 -73.5t29 -58.5t29 -52.5t13 -53.5q-29 0 -67.5 6.5t-85.5 14.5t-102 14.5t-118 7.5h-2q-14 0 -22.5 23.5t-13 57t-6 70t-1.5 62.5q0 42 4 93.5t4 105.5q0 48 -6.5 93.5t-25.5 81t-53.5 57t-90.5 22.5q-14 0 -29 -1.5t-30 -5.5v-483q0 -31 10 -56
t22.5 -47.5t22.5 -43t10 -41.5q-32 0 -65 4t-67.5 9t-68.5 9t-67 4q-28 0 -56.5 -5.5t-57 -11.5t-58 -11.5t-58.5 -5.5q0 20 8 38t20.5 38t27 43t27 53t20.5 68.5t8 88.5v1082zM451 893q21 -8 39.5 -10t35.5 -2q47 0 81.5 21t57.5 55.5t34.5 78t11.5 88.5t-10.5 87.5
t-31.5 75.5t-51.5 53t-70.5 20q-41 0 -96 -29v-438z" />
    <glyph glyph-name="S" unicode="S" horiz-adv-x="942" 
d="M86 705q21 0 41 -33.5t45.5 -83.5t57.5 -108.5t75.5 -108.5t101.5 -83.5t134 -33.5q19 0 35.5 8.5t28.5 22.5t19 32.5t7 38.5q0 69 -26 126.5t-69 108t-97.5 96.5t-111.5 92.5t-111.5 95.5t-97.5 105t-69 122t-26 147q0 73 30.5 139t81.5 116.5t117.5 80t138.5 29.5
q45 0 87.5 -7t83.5 -15.5t82 -15.5t83 -7q27 0 51 7t47 15.5t45.5 15.5t47.5 7q-38 -156 -82.5 -310.5t-87.5 -310.5q-8 39 -18.5 81.5t-26 83t-37.5 77t-53.5 64t-73.5 43.5t-97 16q-24 0 -45.5 -8t-38 -23.5t-26.5 -37.5t-10 -50q0 -34 25.5 -71.5t67.5 -79t96 -87
t110 -96.5t110 -108t96 -120.5t67.5 -133.5t25.5 -148q0 -88 -29.5 -161t-81 -125t-120.5 -80.5t-148 -28.5q-41 0 -81.5 8t-80.5 17.5t-80 17.5t-80 8q-26 0 -53 -8t-53 -17.5t-49 -17.5t-41 -8q0 49 12.5 86.5t27 76t27 83t12.5 108.5q0 52 -2.5 101.5t-5.5 94.5t-5.5 84
t-2.5 71z" />
    <glyph glyph-name="T" unicode="T" horiz-adv-x="1032" 
d="M229 -8q0 25 15 50t33.5 53.5t33.5 62t15 75.5q1 125 3.5 261t5.5 275.5t5 280.5t2 277q0 19 -8.5 37t-30.5 18q-31 0 -56.5 -24t-47.5 -60.5t-40.5 -79t-35.5 -79t-33.5 -60.5t-32.5 -24q-2 88 -6 174t-4 174q0 29 -5 57.5t-11.5 56.5t-11.5 56.5t-5 58.5q19 0 37 -7
t35 -15.5t34 -15.5t36 -7q45 0 89 4t87.5 8.5t85.5 8.5t84 4q46 0 89.5 -9t86 -19.5t84.5 -19t86 -8.5q23 0 45 8.5t43.5 18.5t42 18.5t39.5 8.5q-7 -63 -17.5 -118t-20.5 -110.5t-17 -115t-7 -131.5q0 -32 1.5 -69t5.5 -77q-19 0 -33.5 27.5t-28.5 69t-30.5 90t-38 90
t-51 69t-70.5 27.5q-16 0 -29.5 -14t-13.5 -31q0 -147 1 -298.5t2.5 -292t3 -263t1.5 -213.5q0 -38 17 -75.5t37 -73.5t37 -69t17 -61q-34 0 -72 10.5t-78.5 23.5t-82.5 23.5t-84 10.5q-34 0 -64 -7.5t-58.5 -16t-56.5 -16t-59 -7.5z" />
    <glyph glyph-name="U" unicode="U" horiz-adv-x="1042" 
d="M82 1450q0 40 -9.5 65.5t-21.5 44t-21.5 33.5t-9.5 33q26 0 56 -5.5t65 -12t75 -12t87 -5.5q30 0 53.5 3.5t43.5 8t39.5 8t41.5 3.5q0 -16 -11.5 -33t-26 -41t-26 -59t-11.5 -86v-1010q0 -21 12 -38t30.5 -29t42.5 -18.5t48 -6.5q27 0 52.5 8.5t44.5 24t30.5 39
t11.5 53.5v1009q0 26 -10.5 50t-22.5 47t-22.5 46.5t-10.5 49.5q44 0 87 -9t89 -9q31 0 61 3.5t59.5 8t58 8.5t57.5 4q0 -25 -13.5 -50t-29.5 -58.5t-29.5 -79t-13.5 -111.5v-987q0 -52 -26 -111.5t-78.5 -110.5t-131.5 -84.5t-184 -33.5q-109 0 -191 38.5t-136.5 95.5
t-81.5 121.5t-27 117.5v1077z" />
    <glyph glyph-name="V" unicode="V" horiz-adv-x="1155" 
d="M549 25q-35 0 -64.5 -4t-56.5 -8.5t-53.5 -8.5t-55.5 -4q0 19 5 38.5t10.5 39.5t10.5 40.5t5 41.5q0 9 -0.5 18.5t-5.5 20.5l-231 1200q-9 36 -20.5 61.5t-24.5 46.5t-27 39.5t-29 40.5q16 15 43 15q22 0 49 -4t55.5 -9.5t57 -9.5t53.5 -4q29 0 56.5 6t54 12.5t53.5 12.5
t55 6h16q9 0 17 -2q-41 -59 -52.5 -128t-12.5 -139q34 -185 66.5 -369t72.5 -368q44 193 77.5 389.5t71.5 393.5q0 51 -7.5 84t-16 55.5t-16 38t-7.5 32.5q25 0 48.5 -3t46.5 -6t48.5 -6t55.5 -3q32 0 63.5 5t62 11.5t60.5 11.5t60 5q0 -10 -20.5 -40.5t-46.5 -71t-49 -86
t-28 -85.5q-27 -146 -56.5 -291t-58.5 -290.5t-57 -291t-51 -292.5q0 -45 13.5 -86.5t33.5 -79.5q-35 0 -67 4t-64 8.5t-67 8.5t-76 4z" />
    <glyph glyph-name="W" unicode="W" horiz-adv-x="1688" 
d="M313 248q0 18 -2 36t-2 21l-174 1079q-20 60 -51 116.5t-57 113.5q34 -1 66 -6t64 -11t64.5 -11t67.5 -5q36 0 68 5.5t62 12t60.5 12t63.5 5.5q0 -18 -12.5 -34.5t-27.5 -40.5t-27.5 -59t-12.5 -91q17 -184 40 -361.5t46 -357.5q35 192 63.5 379t57.5 379q0 43 -6.5 70
t-15 45.5t-15 31.5t-6.5 27q28 0 59.5 -5t65.5 -11.5t70 -11.5t73 -5q34 0 62 3t54.5 7t52 7t54.5 3q0 -12 -7.5 -24t-17 -33.5t-17 -56.5t-7.5 -93v-41q0 -11 1 -22.5t3 -24.5l92 -602q10 92 24 183t27.5 181.5t25.5 181t18 183.5q0 23 -6.5 50t-14 52.5t-14 46.5t-6.5 32
q30 0 57 -5t54 -11.5t55.5 -11.5t60.5 -5t59 5t52.5 11.5t51 11.5t54.5 5q0 -20 -12 -45t-30 -61t-39.5 -87t-39.5 -123q-49 -264 -88 -526.5t-76 -528.5q0 -51 9.5 -84.5t20.5 -56.5t20.5 -39.5t9.5 -32.5q-44 0 -81.5 4.5t-74.5 10t-77 10t-89 4.5q-57 0 -111.5 -8
t-115.5 -8q0 18 10 34.5t22.5 38.5t22.5 53.5t10 80.5q-18 173 -37.5 342t-48.5 338q-12 -88 -30.5 -177.5t-36.5 -179.5t-30.5 -180t-12.5 -178q0 -26 10 -52.5t22.5 -51.5t22.5 -46t10 -35q-34 0 -65 4t-62 8.5t-63.5 8.5t-69.5 4q-45 0 -86 -7t-76 -15.5t-63 -15.5
t-49 -7q-2 5 -2 8v6v15q0 25 4 47t9 44.5t9 48.5t4 60v19z" />
    <glyph glyph-name="X" unicode="X" horiz-adv-x="1198" 
d="M39 12q-12 0 -16.5 7.5t-4.5 15.5q60 46 105.5 102.5t81.5 120t65.5 132t57 138t56.5 137.5t65 132q-39 106 -81 212.5t-90.5 209t-107 200t-131.5 185.5q37 0 71.5 -7t69.5 -15.5t71.5 -15.5t76.5 -7q37 0 69.5 8.5t64 19t63 19t65.5 8.5q0 -24 -6 -46t-12.5 -43.5
t-12.5 -44.5t-6 -50q0 -68 23 -134t49 -129q14 40 32 86t34 90t27 83t11 65q0 21 -3.5 37.5t-7.5 30.5t-7.5 27t-3.5 28q22 0 44.5 -6.5t45.5 -15t46 -15t46 -6.5q39 0 75 3t71.5 7t70.5 7t72 3q-13 -40 -36.5 -74t-50.5 -67t-52.5 -66.5t-43.5 -70.5q-57 -122 -111 -243
t-108 -243q48 -103 87.5 -210t84 -212t99 -204.5t131.5 -186.5q-38 0 -73.5 3.5t-71.5 8t-73 8t-77 3.5q-33 0 -62.5 -6t-57.5 -12.5t-56 -12.5t-58 -6q0 14 5 34.5t11.5 43.5t11.5 47t5 45q0 78 -22 156.5t-56 150.5q-18 -40 -37 -81t-34.5 -83.5t-26 -87t-10.5 -90.5
q0 -32 8 -59t8 -62q-27 0 -59.5 5t-67 10.5t-69.5 10.5t-68 5q-27 0 -53.5 -5t-53 -11.5t-52 -11.5t-50.5 -5z" />
    <glyph glyph-name="Y" unicode="Y" horiz-adv-x="1108" 
d="M383 719q0 14 -16.5 66.5t-45 129t-65.5 170t-78.5 189t-84 186.5t-81.5 162q31 0 61 -6t60 -12.5t61 -12.5t64 -6q32 0 59 5.5t51 12t46.5 12t46.5 5.5q-1 -18 -5 -33.5t-9 -31t-9 -31t-4 -33.5q0 -33 14.5 -82t35 -104.5t43.5 -113.5t40 -108q17 57 41 116.5t46 117.5
t37.5 112.5t15.5 102.5q0 15 -6 26t-12.5 20.5t-12.5 19t-6 22.5q29 0 56 -7t53.5 -15.5t54 -15.5t59.5 -7q29 0 55 3.5t51 7.5t49 7.5t50 3.5q-46 -69 -94 -158t-92.5 -185t-84 -190t-68.5 -173t-46 -134.5t-17 -72.5v-457q0 -52 20.5 -90.5t45 -65.5t45 -44t20.5 -27
q-38 0 -75.5 6.5t-75 15t-76 15t-80.5 6.5q-31 0 -61.5 -5t-61 -10.5t-62 -10.5t-63.5 -5q0 20 17.5 52t38 69.5t38 79t17.5 80.5v426z" />
    <glyph glyph-name="Z" unicode="Z" horiz-adv-x="1047" 
d="M20 1622q27 0 52 -7t49 -15.5t48 -15.5t50 -7q33 0 64 4t62.5 8.5t64 8.5t67.5 4q41 0 80 -6t78 -12.5t79 -12.5t83 -6q25 0 48.5 5.5t47 11.5t47.5 11.5t51 5.5l-459 -1241q-2 -8 -3 -13t-1 -11q0 -13 7.5 -21t19 -12.5t26 -6t29.5 -1.5q52 0 92.5 13t73 36t58.5 53
t48.5 64t43.5 69.5t43 69.5q-2 -38 -2 -78v-82q0 -83 5 -164.5t19 -164.5q0 -19 5.5 -33.5t12 -27.5t12 -25t5.5 -25q-39 0 -77.5 7.5t-76.5 16t-76.5 16t-78.5 7.5q-34 0 -63 -4t-56 -8.5t-53.5 -8.5t-55.5 -4q-35 0 -69 5.5t-68 12t-69 12t-72 5.5q-24 0 -45 -6
t-41.5 -12.5t-42 -12.5t-47.5 -6q4 22 13 43t19.5 41.5t20.5 40.5t18 41q50 141 107 279.5t112 277t104.5 277.5t84.5 282q0 15 -15.5 25t-37 15.5t-45.5 7.5t-41 2q-51 0 -85.5 -16.5t-58 -43t-39.5 -60.5t-30.5 -69.5t-31 -69t-40.5 -59.5q0 119 -5 201t-12 137.5
t-16 90.5t-16.5 61t-13.5 48t-7 52z" />
    <glyph glyph-name="bracketleft" unicode="[" horiz-adv-x="690" 
d="M119 1055q0 102 -2.5 206.5t-10.5 202t-24 183.5t-43 151q34 -8 66.5 -10t64.5 -2q62 0 124 8.5t124.5 19t125 19t126.5 8.5q0 -40 -4 -80.5t-8.5 -80.5t-8.5 -78.5t-4 -73.5q-22 18 -52.5 29.5t-62.5 11.5q-43 0 -79 -19t-45 -59q0 -43 -0.5 -121.5t-1.5 -180t-2 -219
t-2.5 -238t-2.5 -238.5t-2 -219t-1.5 -180t-0.5 -122v-16q0 -38 11.5 -64.5t32.5 -42.5t49 -23t61 -7q25 0 50.5 3.5t47.5 12.5q0 -35 4 -70t8.5 -70.5t8.5 -72t4 -72.5q-59 0 -115.5 6.5t-112.5 14t-113 14t-118 6.5q-26 0 -51 -3t-49 -7t-47.5 -7t-47.5 -3q34 59 54 152.5
t31 216t14.5 270.5t3.5 317v527z" />
    <glyph glyph-name="backslash" unicode="\" horiz-adv-x="1327" 
d="M813 -162q-3 14 -4.5 31.5t-1.5 34.5l4 123q0 15 -0.5 27.5t-5.5 23.5l-629 1405q-10 17 -33 43.5t-49.5 55t-51.5 54.5t-38 41q67 0 134 4t133.5 16t131.5 34.5t127 60.5v-272l617 -1373q49 -40 93.5 -85.5t82.5 -96.5q-79 0 -143.5 -5.5t-124 -19.5t-117.5 -38.5
t-125 -63.5z" />
    <glyph glyph-name="bracketright" unicode="]" horiz-adv-x="702" 
d="M575 528q0 -169 3.5 -317t14.5 -270.5t31 -216t54 -152.5q-48 0 -95.5 10t-99.5 10q-60 0 -117 -6.5t-113.5 -14t-112.5 -14t-115 -6.5q0 36 3.5 72.5t8 72t8.5 70.5t4 70q22 -9 48 -12.5t50 -3.5q33 0 61.5 7t49 23t32 42.5t11.5 64.5v16q0 43 -0.5 122t-1.5 180t-2 219
t-2 238.5t-2 238t-2 219t-1.5 180t-0.5 121.5q-10 40 -46 59t-79 19q-32 0 -62.5 -11.5t-52.5 -29.5q0 35 -4 73.5t-8.5 78.5t-8 80.5t-3.5 80.5q64 0 126.5 -8.5t124.5 -19t124 -19t124 -8.5q32 0 64.5 2t66.5 10q-27 -65 -42.5 -151t-24 -183.5t-11 -202t-2.5 -206.5v-527
z" />
    <glyph glyph-name="asciicircum" unicode="^" horiz-adv-x="1059" 
d="M516 1288q-22 0 -50 -25t-60.5 -66t-68 -93.5t-71.5 -107t-71.5 -107t-68.5 -93.5t-62 -66t-52 -25q0 21 15.5 71.5t41.5 119t61.5 149.5t75 161.5t81.5 156t82 133.5t76 93t63 35q44 0 88 -42.5t88.5 -112.5t89 -159.5t88.5 -183t86.5 -183t83.5 -159.5q8 -20 12.5 -39
t4.5 -40q-18 0 -44.5 25t-58 66t-67.5 93.5t-74 107t-77 107t-76.5 93.5t-72 66t-63.5 25z" />
    <glyph glyph-name="underscore" unicode="_" horiz-adv-x="1376" 
d="M1303 -133q26 -3 38.5 -24.5t12.5 -47.5q0 -23 -9 -44t-26 -32q-519 -8 -801.5 -12t-327.5 -4q-75 0 -120 22.5t-45 71.5q0 17 8 35t28 35h1242z" />
    <glyph glyph-name="grave" unicode="`" horiz-adv-x="0" 
d="M-168 1583q23 0 51.5 -18t60 -46.5t65.5 -65.5t68.5 -75t69 -74t66.5 -63v-12q-42 10 -92.5 30.5t-101 47t-97.5 55.5t-83.5 57.5t-58.5 53t-22 40.5q0 29 22.5 49.5t51.5 20.5z" />
    <glyph glyph-name="a" unicode="a" 
d="M655 23q0 18 4 35.5t9.5 35t9.5 34.5t4 34q0 25 -12 49h-271q-14 -32 -14 -66q0 -40 20 -78t58 -67q-6 -2 -13 -2h-12q-30 0 -59.5 5t-58.5 11.5t-58.5 11.5t-60.5 5q-26 0 -49 -3.5t-45.5 -8t-45 -8t-45.5 -3.5h-4q44 22 79 82.5t65 146t56 188t52 209t53.5 209
t59.5 187.5q0 13 -5.5 24.5t-12 23.5t-12 24.5t-5.5 27.5q32 0 61 -5.5t57.5 -11.5t57.5 -11.5t62 -5.5q34 0 63.5 5t58.5 11t58 11t61 5q0 -19 -6 -35.5t-12.5 -33t-12.5 -34.5t-6 -40q28 -81 55 -180.5t54 -203.5t53.5 -204t54.5 -181.5t57 -137.5t60 -70q-33 0 -68.5 3.5
t-72 8t-73.5 8t-73 3.5q-45 0 -86.5 -4t-89.5 -4zM428 354h205l-98 369z" />
    <glyph glyph-name="b" unicode="b" horiz-adv-x="1016" 
d="M231 25q-27 0 -52 -4t-50.5 -9.5t-51.5 -9.5t-54 -4q0 23 8.5 43.5t20 40t24.5 39t22 39.5v764q0 27 -8.5 50.5t-19 46.5t-19 46t-8.5 47q7 0 27.5 -3t47 -6t55 -6t50.5 -3q49 0 93.5 5.5t86.5 11.5t84 11.5t86 5.5q98 0 175.5 -26.5t131.5 -71t82.5 -102t28.5 -119.5
q0 -38 -11.5 -74.5t-35.5 -69.5t-61 -61t-88 -49q51 -20 89 -48t62.5 -62t36.5 -71.5t12 -76.5q0 -58 -26 -112t-75.5 -95.5t-122 -66.5t-165.5 -25q-50 0 -97 4t-93 8.5t-91.5 8.5t-93.5 4zM416 190q25 -9 45.5 -12.5t40.5 -3.5q37 0 66 14t49 37t30 52t10 59q0 29 -9.5 57
t-30 50t-51 35.5t-72.5 13.5q-17 0 -37 -2.5t-41 -8.5v-291zM416 633q84 0 132 12.5t73 35t31.5 53.5t6.5 67q0 29 -8 55.5t-27 47t-49 32.5t-73 12q-19 0 -40 -2.5t-46 -7.5v-305z" />
    <glyph glyph-name="c" unicode="c" horiz-adv-x="891" 
d="M344 285q0 -22 16 -38.5t40 -28t53 -17.5t55 -6q38 0 72.5 11t60.5 30t41.5 43.5t15.5 50.5q0 15 -5.5 27.5t-11.5 25.5t-11.5 25.5t-5.5 27.5t22 15q47 0 81.5 -17.5t57.5 -44.5t34 -59t11 -60q0 -54 -30.5 -102.5t-82.5 -86t-121 -59.5t-147 -22q-50 0 -104 6.5
t-105.5 20t-98.5 33.5t-82 47t-55.5 60.5t-20.5 74.5v606q0 52 33.5 102t89 89t127 63t147.5 24q39 0 75 -4.5t71.5 -10.5t71 -10.5t73.5 -4.5t75.5 5t71.5 17q-3 -24 -12 -48t-20 -47.5t-22.5 -47t-19.5 -47.5q-12 -34 -19 -70t-13 -72q-6 -11 -9.5 -24l-7 -26t-9.5 -25
t-17 -21q-14 34 -28.5 75.5t-39.5 78t-66 61.5t-108 25q-22 0 -44 -6.5t-39.5 -17.5t-28.5 -26t-11 -32v-563z" />
    <glyph glyph-name="d" unicode="d" horiz-adv-x="1030" 
d="M254 31q-31 0 -60 -5t-57.5 -10.5t-57.5 -10.5t-59 -5q19 25 38 51t35 52.5t26 54.5t10 57v707q0 27 -12 57t-26 58t-26 52.5t-12 40.5q26 0 51.5 -5.5t50.5 -11.5t50.5 -11.5t52.5 -5.5q39 0 75 5.5t70.5 11.5t69 11.5t70.5 5.5q110 0 187.5 -27.5t129.5 -73t81.5 -105
t44.5 -124t18.5 -129.5t3.5 -122q0 -52 -4 -112.5t-18.5 -121.5t-42.5 -118t-75.5 -100.5t-118 -70t-169.5 -26.5q-42 0 -82 5t-80 10.5t-81 10.5t-83 5zM446 190q25 -6 52 -6q36 0 70.5 9.5t61.5 26t43.5 39t16.5 48.5v529q0 28 -15.5 49.5t-41 35.5t-58.5 21.5t-67 7.5
q-31 0 -62 -6v-754z" />
    <glyph glyph-name="e" unicode="e" horiz-adv-x="1018" 
d="M217 45q-26 0 -49 -2t-46 -5t-47.5 -5t-54.5 -2q60 134 82.5 274.5t22.5 284.5q0 133 -18 264t-66 256q44 0 83 -7t87 -7q42 0 80.5 4.5t76 10.5t74.5 10.5t76 4.5q33 0 63.5 -4t61.5 -8.5t63 -8t68 -3.5q29 0 54 3.5t48.5 8t47 8.5t49.5 4q-14 -75 -30.5 -152
t-16.5 -155q0 -25 2.5 -50t7.5 -50q-36 36 -72 78.5t-80 78.5t-99 60.5t-130 24.5q-18 0 -39.5 -1.5t-40.5 -6.5t-32 -14t-13 -24v-262l45 -4q37 0 69 8t61 20t55.5 27t52.5 29q0 -19 -4 -39t-8.5 -41t-8.5 -42.5t-4 -43.5q0 -34 12 -69.5t21 -67.5q-33 0 -61.5 11.5
t-56 25.5t-56 25.5t-62.5 11.5h-55v-262q0 -18 11.5 -28.5t29.5 -16t39.5 -7.5t42.5 -2q57 0 98 13t71 33.5t53.5 47t45.5 53.5t47 52.5t58 44.5q-2 -22 -3 -44t-1 -44q0 -88 16.5 -174t54.5 -170q-32 0 -61 7t-57.5 15.5t-58 15.5t-60.5 7q-39 0 -75 -3.5t-72 -7.5
t-73 -7.5t-77 -3.5q-35 0 -65.5 3.5t-59.5 7.5t-57.5 7.5t-59.5 3.5z" />
    <glyph glyph-name="f" unicode="f" horiz-adv-x="1028" 
d="M33 1122q6 2 12 2h12q22 0 42.5 -4.5t41 -9.5t41.5 -9.5t43 -4.5q37 0 70 4.5t64.5 9.5t62.5 9.5t65 4.5q36 0 71 -4.5t70 -9.5t71 -9.5t75 -4.5q29 0 58 4t57.5 9t57.5 9t59 4q0 -20 -12 -55t-27 -77t-27 -87t-12 -84q0 -35 7 -61.5t7 -55.5q0 -8 -1 -14t-3 -12v-4
q-29 42 -61 91.5t-74.5 91.5t-100.5 70.5t-139 28.5q-18 0 -39.5 -3t-39.5 -9.5t-30 -17.5t-12 -27v-268q77 0 123.5 12t76 26t49 26t42.5 12q0 -22 -6 -41t-13.5 -38t-13.5 -37.5t-6 -39.5q0 -18 5.5 -35.5t12 -35t12 -34.5t5.5 -34q-34 0 -59 12t-54.5 26.5t-69.5 26.5
t-104 12v-344q0 -19 13.5 -37t30 -36t30.5 -36t14 -36q-30 0 -55.5 3t-49.5 6t-47.5 6t-49.5 3q-45 0 -84 -4t-75 -9t-71.5 -9t-74.5 -4q0 23 13.5 39.5t30 35t30.5 43t14 62.5v799q0 21 -12 45t-27 45.5t-27 38.5t-12 24z" />
    <glyph glyph-name="g" unicode="g" horiz-adv-x="995" 
d="M432 0q-75 0 -148 22.5t-131 60t-94 86.5t-36 101v559q0 52 33 106t91 97t136 70.5t168 27.5q43 0 83.5 -4t80 -8.5t79 -8t80.5 -3.5q51 0 101 9t98 32q0 -42 -10.5 -80.5t-23.5 -80t-23.5 -89.5t-10.5 -109q0 -24 2.5 -51.5t7.5 -58.5q-43 40 -69.5 75t-47.5 64.5
t-42 52.5t-51.5 39t-76 24.5t-116.5 8.5q-51 0 -83 -20t-50.5 -50t-25.5 -64.5t-7 -62.5v-405q0 -18 6 -38t18.5 -37t32.5 -28.5t48 -11.5q41 0 67 17t40.5 42t20 53t5.5 50q0 31 -8.5 61.5t-22.5 59t-31.5 56t-36.5 54.5q72 -3 142 -9.5t141 -6.5q46 0 91.5 5t90.5 18
q-26 -68 -40.5 -136.5t-14.5 -136.5q0 -85 19.5 -167t54.5 -162q-8 -4 -18 -5.5t-19 -1.5q-21 0 -43 4.5t-45 10t-46 10t-46 4.5q-42 0 -80.5 -7t-76.5 -15.5t-78 -15.5t-85 -7z" />
    <glyph glyph-name="h" unicode="h" horiz-adv-x="1098" 
d="M27 8q0 17 11.5 41.5t26 51.5t26 52.5t11.5 45.5v759q0 28 -12.5 50t-27 42t-27 40.5t-12.5 44.5q27 0 52 -5t50 -11.5t52 -11.5t59 -5q37 0 73.5 3.5t71.5 8t69 8.5t68 4q0 -9 -15 -26.5t-33 -42t-33 -55.5t-15 -68v-283h237v269q0 30 -10 59.5t-22.5 55.5t-22.5 49.5
t-10 41.5q29 0 56.5 -4t55 -8.5t55.5 -8t58 -3.5q33 0 63 3.5t58.5 8t57 8.5t57.5 4q0 -22 -12 -39t-26 -38t-26 -51t-12 -78v-744q0 -35 15 -61t33 -46.5t33 -37t15 -31.5q-36 0 -67.5 5t-61.5 10.5t-61 10.5t-66 5q-31 0 -63.5 -3.5t-64.5 -8t-62.5 -8t-55.5 -3.5
q0 20 14.5 38t32 46.5t32 73.5t14.5 117v200h-244v-307q0 -23 13.5 -47t29.5 -46t29.5 -41.5t13.5 -33.5q-33 0 -62 5t-56.5 10.5t-54.5 10.5t-56 5q-33 0 -68.5 -5t-69 -10.5t-63 -10.5t-51.5 -5z" />
    <glyph glyph-name="i" unicode="i" horiz-adv-x="547" 
d="M113 963q0 30 -15 56.5t-33.5 48t-34 37.5t-16.5 25q31 0 63 -6t63.5 -13t62.5 -13t61 -6q27 0 63 6t73 13t70.5 13t55.5 6q-1 -21 -14.5 -39t-29.5 -39t-29 -47.5t-13 -64.5v-772q0 -22 13.5 -45.5t29.5 -45.5t29.5 -42.5t13.5 -36.5q-42 0 -78 5t-71.5 11.5t-73 11.5
t-82.5 5q-46 0 -94 -8.5t-102 -8.5q0 9 13.5 28.5t30 42.5t30.5 45.5t14 37.5v795z" />
    <glyph glyph-name="j" unicode="j" horiz-adv-x="928" 
d="M520 973q0 21 -12 43t-26 42t-26 37t-12 29q31 0 58.5 -3.5t54 -7.5t53.5 -7.5t56 -3.5q31 0 66 1t68.5 5t62 11.5t46.5 19.5q0 -23 -11 -44.5t-23.5 -43.5t-23.5 -45t-11 -48v-708q0 -59 -39 -105t-101 -78.5t-139 -49.5t-153 -17q-95 0 -169.5 18t-126 51t-79 78
t-27.5 99q0 41 17 79t53 67.5t91.5 47t131.5 17.5q0 -9 -17.5 -16t-39 -20.5t-39 -38t-17.5 -69.5q0 -23 13.5 -44t36 -37t53 -25.5t65.5 -9.5q31 0 60.5 7.5t53 21t38 33.5t14.5 44v670v0z" />
    <glyph glyph-name="k" unicode="k" horiz-adv-x="1141" 
d="M98 977q0 24 -11.5 44.5t-26 39t-26 35.5t-11.5 34q33 0 63.5 -4.5t61.5 -10.5t63.5 -10.5t69.5 -4.5q33 0 62.5 4t57.5 9t55 9t56 4q-23 -38 -48.5 -76.5t-37.5 -80.5v-336q31 51 66.5 101.5t67.5 102t55.5 104t29.5 108.5q0 13 -4 22t-8.5 17t-8 16.5t-3.5 19.5
q13 0 28.5 -3t38.5 -6t54.5 -6t76.5 -3q71 0 123 7t94 7q-58 -45 -99.5 -97t-75 -107.5t-64 -112.5t-66.5 -111q48 -86 91.5 -173t88.5 -173.5t96 -171.5t115 -166q0 -6 -7 -7t-13 -1q-32 0 -60 4t-54.5 8.5t-53 8.5t-55.5 4t-57 -2.5t-55.5 -6t-56 -6t-59.5 -2.5
q0 13 6 22.5t12.5 20t12.5 24.5t6 36q-8 40 -24.5 80t-37 79.5t-42 78.5t-39.5 79q-42 -56 -79 -115.5t-52 -122.5q1 -36 16.5 -66.5t33.5 -53.5t33 -39t15 -23q-34 0 -62 3.5t-57 8t-62 8t-77 3.5q-37 0 -66 -3.5t-55 -8t-52.5 -8t-57.5 -3.5q0 22 11.5 39t26 36.5t26 44
t11.5 62.5v787v0z" />
    <glyph glyph-name="l" unicode="l" horiz-adv-x="987" 
d="M623 1130q0 -8 -25 -23.5t-55 -39.5t-55 -55.5t-25 -69.5q-2 -51 -2 -99v-93v-340q0 -79 2 -127t12.5 -74t33.5 -34.5t64 -8.5q88 0 146.5 26.5t100 67t70 88t56.5 90.5q0 -54 -7 -116.5t-7 -122.5q0 -32 7 -60.5t15.5 -54t15.5 -47t7 -37.5q-25 0 -45.5 5t-39.5 10.5
t-37.5 10.5t-39.5 5q-35 0 -67 -5t-64.5 -10.5t-66.5 -10.5t-72 -5q-43 0 -81 6t-74.5 12.5t-72.5 12.5t-75 6q-29 0 -60 -5.5t-60.5 -12t-56 -12t-45.5 -5.5q0 25 16.5 41.5t37 32.5t37 36t16.5 54v799q0 38 -13.5 59t-30 34.5t-30 25t-14.5 32.5q37 0 71.5 -5t67.5 -11.5
t65.5 -11.5t67.5 -5q42 0 81.5 7.5t77.5 16t76 16t77 7.5z" />
    <glyph glyph-name="m" unicode="m" horiz-adv-x="1331" 
d="M111 979q0 31 -10.5 50.5t-22.5 34.5t-22.5 28.5t-10.5 31.5q41 0 71 -4.5t57.5 -9.5t56.5 -9.5t67 -4.5q40 0 77.5 5.5t75 11.5t76 11.5t80.5 5.5q-18 -35 -25.5 -55.5t-7.5 -46.5v-12v-31l109 -473l123 461q2 11 2 18v15q0 20 -5.5 34.5t-12 27t-12 25t-5.5 27.5
q32 0 63 -4t62 -8.5t62.5 -8t66.5 -3.5q45 0 76 3t60 6t62.5 6t84.5 3q-5 -21 -19 -40.5t-30 -39t-30 -40t-18 -42.5v-802q0 -39 11.5 -61t25.5 -36l25.5 -25.5t11.5 -29.5q-39 0 -60.5 4t-40.5 8.5t-43 8.5t-69 4q-26 0 -48 -2.5t-42.5 -5l-41 -5t-42.5 -2.5q0 22 10.5 37
t23.5 33.5t23.5 46t10.5 74.5v389q-4 0 -15 -24.5t-25.5 -65t-32 -92t-33 -105.5t-28.5 -106t-20 -93q0 -15 5.5 -27t12 -23t12 -21.5t5.5 -22.5q-54 0 -102 4t-99 4q-20 0 -37.5 -2.5t-35.5 -5.5t-36.5 -5.5t-39.5 -2.5q18 26 26 51.5t8 52.5q0 17 -3.5 35t-8.5 35
q-25 94 -47.5 176.5t-42 144.5t-35.5 98t-28 36v-445q0 -34 10 -56.5t22.5 -41t22.5 -36.5t10 -42q-21 0 -35.5 3t-28 6.5t-29 6.5t-40.5 3q-36 0 -69.5 -4t-66.5 -8.5t-67.5 -8.5t-72.5 -4q0 20 13.5 37.5t30 37t30 43.5t14.5 58v801z" />
    <glyph glyph-name="n" unicode="n" horiz-adv-x="1221" 
d="M106 944q0 29 -13.5 52t-29.5 42.5t-29.5 36t-13.5 33.5q23 0 49.5 -4t54 -8.5t56 -8.5t56.5 -4q79 0 132 6t92 12.5t68 12.5t60 6q0 -9 -5.5 -20t-12 -23t-12 -25t-5.5 -26q0 -61 26 -135t63.5 -151.5t79 -153.5t73.5 -140v365q0 59 -9 99.5t-22.5 68t-29 45.5t-29 32
t-22.5 27t-9 31q29 0 63 -3.5t70 -7.5t72 -7.5t71 -3.5q31 0 61 6t58.5 13t57.5 13t59 6q0 -11 -9.5 -22t-23.5 -26.5t-30.5 -37.5t-30.5 -54.5t-23.5 -77t-9.5 -105.5v-623q0 -43 21.5 -74t48 -55.5t48 -44.5t21.5 -41q-42 0 -82.5 9.5t-82 20.5t-85 20.5t-92.5 9.5
q-35 0 -69 -5t-67.5 -10.5t-67 -10.5t-66.5 -5q-3 5 -3.5 8.5t-0.5 5.5q0 9 6 17.5t13.5 21.5t13.5 34t6 56q-32 65 -62 131.5t-61 133t-64 132t-72 130.5q0 -110 5 -220.5t8 -220.5q1 -32 21.5 -64.5t45 -62.5t44.5 -56t20 -46q-33 0 -63 5t-58.5 11.5t-57 11.5t-59.5 5
q-32 0 -62.5 -5t-60.5 -11.5t-61 -11.5t-64 -5q0 21 13.5 37t29.5 32.5t29.5 37t13.5 51.5v788z" />
    <glyph glyph-name="o" unicode="o" horiz-adv-x="913" 
d="M23 813q0 79 37 138.5t97.5 99t139 59.5t162.5 20q85 0 163 -20.5t138 -61.5t95.5 -101.5t35.5 -141.5v-457q0 -75 -34.5 -139t-94 -110.5t-139.5 -72.5t-172 -26q-78 0 -153.5 17.5t-135.5 52.5t-98 87.5t-41 123.5v532zM565 813q0 27 -8.5 47t-22.5 33.5t-32 20
t-37 6.5q-21 0 -43 -7.5t-40 -22t-29 -36t-11 -49.5v-502q5 -43 39.5 -64.5t75.5 -21.5q21 0 40.5 5.5t34.5 16t24 27t9 37.5v510z" />
    <glyph glyph-name="p" unicode="p" horiz-adv-x="1012" 
d="M119 918q0 46 -13.5 77.5t-29.5 54.5t-29.5 41.5t-13.5 38.5q35 0 67.5 -6.5t65 -14t66 -13.5t71.5 -6q41 0 78 3.5t72.5 8t71 8.5t73.5 4q103 0 178.5 -28.5t125.5 -75t74.5 -106t24.5 -122.5q0 -64 -24.5 -125t-73.5 -109t-121 -77t-166 -29q-38 0 -81 5.5t-91 19.5
v-317q0 -30 16.5 -51.5t37 -38.5t37 -31t16.5 -29q-36 0 -66.5 5t-62.5 10.5t-69.5 10.5t-88.5 5q-39 0 -71.5 -5t-61 -10.5t-55 -10.5t-53.5 -5q0 15 15 31.5t33 37.5t33 47t15 58v744zM444 629q20 -5 38.5 -8t33.5 -3q42 0 73.5 14t52.5 37t31.5 52.5t10.5 60.5
q0 28 -9.5 55.5t-29 49t-48 34.5t-67.5 13q-17 0 -36 -2.5t-39 -7.5z" />
    <glyph glyph-name="q" unicode="q" horiz-adv-x="938" 
d="M369 -8q-77 12 -140.5 41.5t-108.5 71.5t-70 93t-25 105v539q0 76 38 132.5t100 94t141.5 56t162.5 18.5q84 0 163 -19.5t139.5 -58t97 -96.5t36.5 -135v-517q0 -47 -19 -93.5t-53.5 -88.5t-83 -76.5t-108.5 -56.5q14 -24 42 -45.5t61.5 -40.5t69.5 -35.5t65 -31.5
t48 -28t19 -24q-17 0 -57 3t-90.5 6.5t-103.5 6.5t-95 3q-35 0 -63.5 -2.5t-55 -5t-54 -5t-58.5 -2.5zM590 801q0 32 -10.5 56.5t-28 41t-41 25t-49.5 8.5q-50 0 -82.5 -31t-32.5 -94v-485q0 -60 33.5 -88.5t81.5 -28.5q24 0 47 7t41 21t29.5 35t11.5 49v484z" />
    <glyph glyph-name="r" unicode="r" horiz-adv-x="1114" 
d="M129 973q0 21 -13 38t-28 33t-28 32.5t-13 35.5q30 0 58 -2.5t56 -5.5t57.5 -5.5t62.5 -2.5q48 0 91.5 4.5t86 10.5t84.5 10.5t86 4.5q100 0 176.5 -26.5t127.5 -70t77 -100t26 -116.5q0 -41 -13 -80.5t-39 -75t-66 -65t-95 -49.5q70 -36 108.5 -83.5t56.5 -100
t21 -108.5t3 -110v-6q0 -29 13 -50.5t29 -40.5t29 -37t13 -38q-29 0 -67.5 4.5t-85.5 10t-102 10.5t-118 6h-2q-14 0 -22.5 16.5t-13 40t-6 49t-1.5 44.5q0 29 4 65t4 74q0 34 -6.5 65.5t-25.5 56.5t-53.5 40t-90.5 16q-29 0 -59 -6v-338q0 -21 10 -39t22.5 -33.5
t22.5 -29.5t10 -29q-63 0 -132.5 9t-135.5 9q-28 0 -56.5 -4t-57 -8.5t-58 -8t-58.5 -3.5q0 21 17.5 39.5t38 43.5t38 60t17.5 88v756zM451 625q21 -5 39.5 -7t35.5 -2q47 0 81.5 14.5t57.5 38.5t34.5 54.5t11.5 62.5q0 31 -10.5 61t-31.5 53.5t-51.5 37.5t-70.5 14
q-22 0 -45.5 -5.5t-50.5 -14.5v-307z" />
    <glyph glyph-name="s" unicode="s" horiz-adv-x="942" 
d="M86 494q21 0 41 -23.5t45.5 -58.5t57.5 -76t75.5 -76t101.5 -58.5t134 -23.5q19 0 35.5 6t28.5 16t19 23t7 27q0 48 -26 88.5t-69 75.5t-97.5 67.5t-111.5 64.5t-111.5 66t-97.5 73.5t-69 86t-26 102.5q0 52 30.5 98.5t81.5 81.5t117.5 55.5t138.5 20.5q45 0 87.5 -5
t83.5 -11t82 -11t83 -5q27 0 51 5t47 11t45.5 11t47.5 5q-38 -109 -82.5 -217t-87.5 -217q-12 41 -30 85.5t-52 82t-88 62t-136 24.5q-24 0 -45.5 -5.5t-38 -16t-26.5 -26t-10 -34.5q0 -24 25.5 -50.5t67.5 -55.5t96 -61t110 -68t110 -76t96 -84t67.5 -93t25.5 -104
q0 -61 -29.5 -112t-81 -87.5t-120.5 -56.5t-148 -20q-41 0 -81.5 5.5t-80.5 12t-80 12t-80 5.5q-26 0 -53 -5.5t-53 -12t-49 -12t-41 -5.5q0 34 12.5 60.5t27 53.5t27 58t12.5 76q0 72 -8 136.5t-8 109.5z" />
    <glyph glyph-name="t" unicode="t" horiz-adv-x="1032" 
d="M233 -2q0 18 15 35.5t33.5 37t33.5 43t15 52.5q1 87 3 182t4 192.5t3.5 196t1.5 193.5q0 12 -8.5 25.5t-30.5 13.5q-31 0 -56.5 -17t-47.5 -42.5t-40.5 -55.5t-35.5 -55.5t-33.5 -42.5t-32.5 -17q-2 60 -6 121t-4 123q0 20 -5 39.5t-11.5 39.5t-11.5 40t-5 41q19 0 37 -5
t35 -11.5t34 -11.5t36 -5q91 0 176.5 9t169.5 9q46 0 89.5 -6t86 -13t84.5 -13t86 -6q23 0 45 5.5t43.5 12.5t42 12.5t39.5 5.5q-7 -44 -17.5 -82t-20.5 -76.5t-17 -80t-7 -92.5q0 -23 1.5 -49t5.5 -54q-19 0 -33.5 19.5t-28.5 48.5t-30.5 63t-38 63t-51 48.5t-70.5 19.5
q-16 0 -29.5 -10t-13.5 -22q0 -103 2 -208.5t4 -203.5t4 -183.5t2 -148.5q0 -26 17 -52.5t37 -51.5t37 -48t17 -42q-34 0 -72 7.5t-78.5 16t-82.5 16t-84 7.5q-34 0 -64 -5t-58.5 -11.5t-56.5 -11.5t-59 -5z" />
    <glyph glyph-name="u" unicode="u" horiz-adv-x="1042" 
d="M82 1016q0 28 -9.5 45.5t-21.5 30.5t-21.5 23.5t-9.5 23.5q26 0 56 -4t65 -8.5t75 -8.5t87 -4q30 0 53.5 2.5t43.5 5.5t39.5 5.5t41.5 2.5q0 -11 -11.5 -23t-26 -29t-26 -41t-11.5 -60v-707q0 -15 12 -27.5t30.5 -20.5t42.5 -12.5t48 -4.5q27 0 52.5 6t44.5 17.5
t30.5 27.5t11.5 37v706q0 19 -10.5 35.5t-22.5 33t-22.5 33t-10.5 34.5q44 0 87 -7.5t89 -7.5q62 0 120.5 9.5t115.5 9.5q0 -18 -13.5 -35.5t-29.5 -40.5t-29.5 -55t-13.5 -78v-692q0 -36 -26 -78t-78.5 -77.5t-131.5 -59t-184 -23.5q-109 0 -191 27t-136.5 67t-81.5 85
t-27 81v756z" />
    <glyph glyph-name="v" unicode="v" horiz-adv-x="1155" 
d="M549 16q-35 0 -64.5 -2.5t-56.5 -5.5t-53.5 -5.5t-55.5 -2.5q0 13 5 27t10.5 28t10.5 28.5t5 29.5q0 6 -0.5 12t-5.5 14l-231 840q-9 25 -20.5 43t-24.5 32.5t-27 27.5t-29 28q8 6 18.5 8t24.5 2q22 0 49 -3t55.5 -6l57 -6t53.5 -3q29 0 56.5 4t54 9t53.5 9t55 4h16
q9 0 17 -2q-41 -40 -52.5 -88.5t-12.5 -97.5q34 -130 66.5 -259t72.5 -257q44 135 77.5 272.5t71.5 276.5q0 35 -7.5 58t-16 38.5t-16 27t-7.5 23.5q25 0 48.5 -2t46.5 -5t48.5 -5t55.5 -2q32 0 63.5 3.5t62 8t60.5 8.5t60 4q0 -8 -20.5 -29t-46.5 -49.5t-49 -60t-28 -59.5
q-54 -206 -115 -408t-108 -407q0 -32 13.5 -61.5t33.5 -55.5q-35 0 -67 2.5t-64 5.5t-67 5.5t-76 2.5z" />
    <glyph glyph-name="w" unicode="w" horiz-adv-x="1671" 
d="M305 174q0 12 -2 24.5t-2 14.5l-174 756q-20 43 -51.5 82t-57.5 79q34 -1 66.5 -4.5t64.5 -8t64.5 -8t67.5 -3.5q36 0 67.5 3.5t62 8t61 8.5t63.5 4q0 -13 -12.5 -24.5t-27.5 -28t-27.5 -41t-12.5 -63.5q17 -128 40 -251.5t46 -250.5q35 133 63.5 264.5t57.5 265.5
q0 30 -7 49t-15 31.5t-15 21.5t-7 19q28 0 60 -3.5t66 -7.5t70 -7.5t73 -3.5q34 0 62 2t54.5 5t52 5t54.5 2q0 -8 -7.5 -16.5t-17 -23.5t-17 -40t-7.5 -65v-29q0 -8 1 -15.5t3 -17.5l92 -422q10 64 24 128t27.5 127.5t25 127.5t17.5 129q0 16 -6.5 35t-14 36.5t-14 31.5
t-6.5 22q30 0 57.5 -3.5t54.5 -7.5t55.5 -7.5t60.5 -3.5t59 3.5t52.5 7.5t51 7.5t54.5 3.5q0 -14 -12 -31l-30 -42.5t-39.5 -61t-39.5 -86.5q-50 -186 -88.5 -368t-75.5 -369q0 -35 9.5 -58.5t20.5 -40t20.5 -28t9.5 -23.5q-44 0 -81.5 3.5t-74.5 7t-77 7t-89 3.5
q-57 0 -111 -6t-116 -6q0 13 10 24t22.5 26.5t22.5 37.5t10 57q-18 121 -37.5 239t-48.5 236q-12 -61 -31 -123.5t-36.5 -125.5t-30 -126t-12.5 -125q0 -18 10 -36.5t22.5 -35.5t22.5 -32t10 -25q-34 0 -65 2.5t-62 6t-63.5 6t-69.5 2.5q-45 0 -86 -5t-76 -10.5t-63 -10.5
t-49 -5q-2 3 -2 5v5v10q0 18 4 33.5t9 31.5t9 34t4 41v14z" />
    <glyph glyph-name="x" unicode="x" horiz-adv-x="1198" 
d="M39 8q-12 0 -16.5 5t-4.5 12q90 48 148.5 112.5t103.5 136t85.5 144.5t93.5 139q-39 75 -81 149.5t-90.5 146.5t-107 139.5t-131.5 129.5q37 0 71.5 -4.5t69.5 -10.5t71.5 -10.5t76.5 -4.5q37 0 69.5 6t64 13t63 13t65.5 6q0 -17 -6 -32t-12.5 -30.5t-12.5 -31.5t-6 -35
q0 -47 23 -93t49 -91q14 28 32 60t34 63t27 58.5t11 45.5q0 15 -3.5 26t-7.5 21t-7.5 19t-3.5 20q22 0 44.5 -4.5t45.5 -10.5t46 -10.5t46 -4.5q78 0 146.5 7t142.5 7q-13 -28 -36.5 -52t-50.5 -47t-52.5 -46t-43.5 -49q-57 -87 -111 -171t-108 -169q48 -72 87.5 -147.5
t84 -149t99 -143t131.5 -130.5q-38 0 -73.5 2.5t-71.5 6t-73 6t-77 2.5q-33 0 -62.5 -4t-57.5 -9.5t-56 -9.5t-58 -4q0 10 5 24.5t11.5 30.5t11.5 32.5t5 31.5q0 56 -22 110t-56 105q-18 -28 -37 -57t-34.5 -59t-26 -61t-10.5 -63q0 -21 8 -40t8 -44q-27 0 -59.5 3.5t-67 7
t-69.5 7t-68 3.5q-27 0 -53.5 -3.5t-53 -8t-52 -8t-50.5 -3.5z" />
    <glyph glyph-name="y" unicode="y" horiz-adv-x="1108" 
d="M383 504q0 10 -16.5 46.5t-45 90t-65.5 119t-78.5 132t-84 130t-81.5 113.5q31 0 61 -4t60 -8.5t61 -8.5t64 -4q32 0 59 4t51 8.5t46.5 8.5t46.5 4q-1 -12 -5 -23.5t-9 -22t-9 -22t-4 -23.5q0 -23 14.5 -57.5t35 -73.5t43.5 -79.5t40 -75.5q17 40 41 81.5t46 82t37.5 79
t15.5 72.5q0 11 -6 18.5t-12.5 14t-12.5 13.5t-6 16q29 0 56 -5t53.5 -11.5t54 -11.5t59.5 -5q58 0 106 8t99 8q-46 -48 -94 -110.5t-92.5 -129.5t-84 -133t-68.5 -121t-46 -94t-17 -51v-319q0 -37 20.5 -64t45 -46t45 -31t20.5 -19q-38 0 -75.5 5t-75 10.5t-76 10.5
t-80.5 5q-31 0 -61.5 -3.5t-61 -8t-62 -8t-63.5 -3.5q0 14 17.5 36t38 48.5t38 55.5t17.5 57v299z" />
    <glyph glyph-name="z" unicode="z" horiz-adv-x="1047" 
d="M20 1135q27 0 52 -5t49 -10.5t48 -10.5t50 -5q33 0 64 2.5t62.5 5.5t64 5.5t67.5 2.5q41 0 80 -4t78 -8.5t79 -8t83 -3.5q25 0 48.5 3.5t47 8t47.5 8.5t51 4l-459 -868q-2 -6 -3 -10t-1 -9q0 -9 7.5 -14.5t19 -8.5t26 -4t29.5 -1q78 0 131 20t93 51t71 69t64 73
q-2 -26 -2 -54v-57q0 -59 5 -115.5t19 -115.5q0 -13 5.5 -23.5t12 -19.5t12 -17.5t5.5 -17.5q-39 0 -77.5 5t-76.5 11.5t-76.5 11.5t-78.5 5q-34 0 -63 -2.5t-56 -6t-53.5 -6t-55.5 -2.5q-35 0 -69 4t-68 8.5t-69 8.5t-72 4q-24 0 -45 -4t-41.5 -9.5t-42 -9.5t-47.5 -4
q4 15 13 30t19.5 29.5t20.5 28.5t18 29q50 98 107 195t112 194t104.5 194.5t84.5 198.5q0 11 -15.5 17.5t-37 10t-45.5 4.5t-41 1q-51 0 -85.5 -11.5t-58 -30t-39.5 -42t-30.5 -48t-31 -48t-40.5 -41.5q0 83 -5 140.5t-12 96.5t-16 63.5t-16.5 42.5t-13.5 33t-7 36z" />
    <glyph glyph-name="braceleft" unicode="{" horiz-adv-x="698" 
d="M440 -469q-109 0 -172 80t-63 248v538q0 61 -19.5 97.5t-48.5 59t-64.5 38.5t-66.5 37q30 12 61 32t56.5 47t42 61.5t16.5 76.5v508q0 90 28 180.5t76.5 164t115 119.5t143.5 46q20 0 45 -3t46.5 -12.5t36.5 -27t15 -47.5v-13q-12 13 -28 15t-31 2q-36 -2 -61.5 -21
t-42.5 -50t-27 -70t-15 -81t-6.5 -82.5t-1.5 -74.5v-408q0 -54 -5.5 -105.5t-20.5 -96.5t-42 -82.5t-71 -63.5q51 -14 83.5 -41t52 -64t27 -82.5t7.5 -95.5q0 -49 -5 -101t-10.5 -103.5t-10.5 -100.5t-5 -92q0 -70 2.5 -129.5t15.5 -103t39 -68t74 -24.5q11 0 22 0.5t25 3.5
q-45 -54 -99 -82.5t-114 -28.5z" />
    <glyph glyph-name="bar" unicode="|" horiz-adv-x="606" 
d="M236 -379q-25 0 -49.5 -4t-49 -9.5t-49 -9.5t-49.5 -4q0 22 14.5 47t32.5 59.5t32.5 80.5t14.5 110v1563q0 75 -18.5 124.5t-41 83.5t-41 56.5t-18.5 42.5q42 0 81.5 -8.5t79 -19t79 -19t80.5 -8.5q32 0 63.5 8.5t63 19t62 19t61.5 8.5q0 -29 -15 -57.5t-32.5 -61
t-32.5 -71.5t-15 -90v-1682q0 -48 15.5 -80t34 -57t34 -46.5t15.5 -47.5q-48 0 -92 8.5t-86 18t-85 18t-89 8.5z" />
    <glyph glyph-name="braceright" unicode="}" horiz-adv-x="698" 
d="M258 -469q-60 0 -114 28.5t-99 82.5q14 -3 25 -3.5t22 -0.5q48 0 74 24.5t39 68t15.5 103t2.5 129.5q0 43 -4.5 92t-10.5 100.5t-10.5 103.5t-4.5 101q0 50 7.5 95.5t26.5 82.5t51.5 64t83.5 41q-44 26 -71 63.5t-42 82.5t-20.5 96.5t-5.5 105.5v408q0 34 -1.5 74.5
t-6.5 82.5t-15 81t-27 70t-42 50t-61 21q-16 0 -31.5 -2t-28.5 -15v13q0 30 15 47.5t37 27t47 12.5t45 3q51 0 97.5 -21t87 -58t73 -86.5t56 -106t36 -117.5t12.5 -121v-508q0 -42 16 -76.5t41.5 -61.5t57 -47t61.5 -32q-32 -21 -66.5 -37t-64 -38.5t-48.5 -59t-19 -97.5
v-538q0 -168 -63.5 -248t-172.5 -80z" />
    <glyph glyph-name="asciitilde" unicode="~" horiz-adv-x="1024" 
d="M47 1278q-7 0 -11.5 8.5t-7.5 21t-4 26t-1 22.5q0 82 32 135t80 83.5t104.5 42t104.5 11.5t100.5 -18t103.5 -45t99.5 -59t88.5 -59t70.5 -45t45.5 -18q31 0 51.5 21.5t33.5 53.5t18.5 70.5t5.5 72.5q8 16 18 16q5 0 9 -7.5t7 -19t4.5 -25.5t1.5 -26q0 -65 -20.5 -116.5
t-53.5 -87.5t-75.5 -55t-87.5 -19q-53 0 -106.5 17t-106 43t-103 55.5t-97 55.5t-87.5 43t-74 17q-38 0 -62.5 -15.5t-38.5 -41t-20 -58.5t-6 -67q0 -33 -16 -33z" />
    <glyph glyph-name="uni007F" horiz-adv-x="0" 
 />
    <glyph glyph-name="exclamdown" unicode="&#xa1;" horiz-adv-x="639" 
d="M504 709q0 -25 -2.5 -46.5t-5 -44t-5 -48.5t-2.5 -60q0 -65 0.5 -114.5t2 -88.5t3.5 -71.5t4.5 -63t6 -62.5t8.5 -71q7 -59 16 -103t21.5 -80t30.5 -68.5t43 -68.5q-42 0 -82 7.5t-80 16.5t-79.5 16.5t-80.5 7.5q-37 0 -75.5 -6t-76 -12.5t-73 -12.5t-66.5 -6
q0 30 12.5 53.5t27.5 48t27.5 53t12.5 68.5q14 168 30 334t25 334q0 18 -2 29.5t-4 20.5t-4 17.5t-2 20.5h369zM338 946q-26 0 -52 -5t-51.5 -11.5t-51.5 -11.5t-52 -5q0 28 4 54.5t8.5 53t8.5 52.5t4 53q0 50 -6.5 96t-6.5 99l172 -16q26 0 50 4t47.5 9t48 9t51.5 4
q0 -31 -3 -57.5t-7 -51t-7 -49t-3 -51.5q0 -25 3.5 -50.5t8 -51.5t8.5 -52.5t4 -52.5q-22 1 -44.5 6t-44.5 10.5t-44.5 10t-44.5 4.5z" />
    <glyph glyph-name="cent" unicode="&#xa2;" horiz-adv-x="967" 
d="M477 31q-17 0 -32 -3.5t-29 -7t-27.5 -7t-28.5 -3.5q0 17 8.5 36t19 44.5t19.5 59.5t9 81q-119 16 -197 68t-124 129.5t-64.5 176.5t-18.5 210q0 123 28 220t80.5 167t127.5 112.5t168 57.5v19q0 56 -11 93t-24 62t-24 42t-11 32q24 0 46.5 -6.5t45.5 -15t47 -15t50 -6.5
q19 0 38 6.5t37 15t36 15t36 6.5q0 -21 -8.5 -42.5t-19 -46t-19 -54t-8.5 -66.5v-61q17 -7 34.5 -12t40.5 -5q57 0 86.5 7.5t47.5 16t33 16t42 7.5q-5 -32 -16 -64l-22 -64t-19 -63.5t-8 -62.5q0 -60 6 -119.5t6 -113.5q-8 0 -22.5 23t-41 54t-67 63t-100.5 50v-524
q45 13 76 34.5t52 47t34 51.5t23.5 46.5t20 34t23.5 13.5q0 -76 7.5 -131.5t18 -96t23.5 -69.5t23.5 -52.5t18 -44t7.5 -44.5q-18 0 -27 3.5t-16.5 8t-19 8t-35.5 3.5q-18 0 -43 -12.5t-55 -31t-63.5 -39t-67.5 -36.5v-90q0 -35 9 -58.5t20.5 -42t20.5 -34.5t9 -35
q-29 0 -55 6t-51 13.5t-50 13.5t-53 6zM309 678q0 -54 31 -82.5t76 -40.5v532q-45 -12 -76 -38.5t-31 -73.5v-297v0z" />
    <glyph glyph-name="sterling" unicode="&#xa3;" horiz-adv-x="1190" 
d="M279 35q-30 0 -57.5 -4t-54 -8.5t-52.5 -8.5t-52 -4q60 79 98 164.5t60 176t31.5 184.5t13.5 190q-29 -2 -53 -3.5t-41 -4.5q-38 -3 -62 -8t-40.5 -10.5t-29.5 -9t-28 -3.5q0 17 4 31.5t8.5 30.5t8.5 36t4 47q0 31 -8.5 59.5t-8.5 63.5q10 0 21.5 -4t28.5 -10t41.5 -13.5
t60.5 -13.5q20 -2 44.5 -3t55.5 -3q-2 25 -2 48v49q0 81 6.5 162t18.5 161q1 71 30.5 125t78.5 90.5t113.5 55t137.5 18.5q27 0 49.5 -5.5t46.5 -12t51.5 -12t65.5 -5.5q41 0 65.5 5.5t42.5 12t34.5 12t40.5 5.5q0 -20 -6.5 -34.5t-15 -30t-15 -34.5t-6.5 -47
q0 -59 -3.5 -108.5t-8.5 -94.5t-9.5 -89.5t-5.5 -92.5q-14 0 -24 23t-22 57t-29.5 74t-46 74t-71.5 57t-106 23q-22 0 -45.5 -6.5t-42.5 -20t-31.5 -34t-13.5 -48.5q-2 -57 -2 -108v-97v-88q0 -41 2 -82h16q71 0 115 8t72 18t45.5 18t36.5 8q0 -19 -4.5 -38t-10 -38t-10 -38
t-4.5 -38q0 -18 2.5 -34.5t5.5 -33t5.5 -33.5t2.5 -36q-12 0 -25 8.5t-36 18t-61 18t-99 8.5h-45q2 -26 2 -52v-52q0 -70 -5 -141t-13 -156q1 -31 11.5 -49.5t28 -28t40 -12.5t47.5 -3q84 0 143 27t100 67.5t68 87.5t47 88t37.5 68.5t40.5 28.5q-5 -45 -7.5 -89t-2.5 -89
q0 -118 18.5 -231t58.5 -222q-27 0 -47.5 10.5t-46.5 23.5t-63.5 23.5t-98.5 10.5q-41 0 -75 -6t-67 -12.5t-67.5 -12.5t-76.5 -6q-44 0 -82 6t-78 12.5t-85 12.5t-103 6z" />
    <glyph glyph-name="currency" unicode="&#xa4;" horiz-adv-x="4053" 
d="M18 807q59 36 140 65.5t177 53t204 41t223 29t233 17t234 5.5q119 0 231.5 -8t221.5 -20t215.5 -27t213.5 -29q51 48 106 87t118 66q18 0 18 -22q-18 -38 -37.5 -76t-38.5 -76q106 -12 214 -19t223 -7q123 0 232.5 10t212 25t201 32.5t198.5 32.5t204.5 25t220.5 10
q26 0 43 -5t17 -13q-107 -70 -252.5 -126t-327.5 -95t-399.5 -60t-468.5 -21q-109 0 -211.5 7t-204.5 18q-71 -136 -140.5 -269.5t-135.5 -271.5q-38 -77 -72.5 -153.5t-69.5 -155.5q-23 -51 -45 -101t-45 -100q-23 -40 -55 -63t-74 -23q-24 0 -42 10.5t-29.5 27.5t-17 40
t-5.5 47q0 44 13 101.5t34.5 121.5t49.5 130.5t56.5 128t56.5 115t50 91.5q59 87 118.5 176.5t125.5 174.5q-87 9 -175 20t-177.5 20.5t-180.5 16t-184 6.5q-65 0 -135.5 -2t-141 -6.5t-137.5 -13t-125 -21t-104.5 -29.5t-75.5 -40zM3416 489q0 -51 -15.5 -103t-41.5 -95
q-50 -82 -125.5 -124t-169.5 -42q-25 0 -46 2t-40 7.5t-37 15.5t-37 26l-25 -53q-14 -32 -36 -62.5t-49.5 -58t-60.5 -49.5t-69 -37q-18 -6 -37.5 -10t-39.5 -4q-22 0 -41.5 5.5t-34.5 16.5t-24 28.5t-9 41.5q0 7 2.5 18.5t7 21.5t11.5 17.5t16 7.5q11 0 26 -9t39 -9
q28 0 52.5 15t45.5 37t36.5 48t25.5 47l213 467h168l-12 -30q26 15 58 26t63 11q40 0 74.5 -11t59 -32.5t38.5 -54t14 -75.5zM416 -272q-20 0 -26.5 5t-6.5 11t2.5 12t5.5 13l371 804h168l-201 -438q26 40 66.5 59t87.5 19q22 0 44 -5t39.5 -16t28.5 -29t11 -44
q0 -48 -25.5 -84t-64 -61.5t-84.5 -39.5t-87 -18q6 -56 19 -101t32.5 -85t45.5 -79t59 -83h-156q-61 75 -90 153t-37 175l-73 -168h-129zM588 573q0 -21 -9 -51t-22.5 -62.5t-28 -65t-24.5 -58.5q-3 -9 -6.5 -18.5t-3.5 -18.5q0 -19 12.5 -28t34.5 -9q6 0 17.5 5t19.5 5
t8 -6v-8q0 -14 -5 -29.5t-10 -23.5q-15 -32 -47.5 -57t-77.5 -25q-34 0 -63.5 13t-44.5 36q-37 -29 -77.5 -38t-88.5 -9q-31 0 -58.5 6t-48.5 20t-33 37t-12 58q0 47 18.5 85t50 65t72 42t85.5 15q18 0 37.5 -3t39 -8.5t37 -14.5t29.5 -21q7 10 16 26.5t17.5 34.5t14 35.5
t5.5 29.5q0 25 -16.5 33t-36.5 8q-45 0 -84 -19t-63 -54l-70 73q27 25 53.5 43t54.5 29t59.5 16t68.5 5q23 0 54 -2t59 -11t47.5 -28t19.5 -52zM1575 561q0 -21 -9 -51t-22 -63t-27.5 -65t-25.5 -58q-3 -10 -6.5 -19t-3.5 -18q0 -19 12.5 -28t34.5 -9q6 0 17.5 5t19.5 5
t8 -6v-8q0 -14 -4.5 -29.5t-9.5 -23.5q-16 -32 -48 -57t-77 -25q-34 0 -63.5 13t-45.5 36q-37 -29 -77.5 -38t-88.5 -9q-31 0 -58.5 6t-48 19.5t-32.5 36.5t-12 58q0 47 18.5 85t49.5 65t71.5 42t85.5 15q18 0 37.5 -2.5t39 -8.5t37 -15t29.5 -21q7 11 16.5 27.5t17.5 34.5
t14 35.5t6 29.5q0 25 -17 33t-37 8q-45 0 -83.5 -19t-63.5 -55l-70 74q27 25 53.5 43t54.5 28.5t59.5 15.5t68.5 5q23 0 54 -2t59 -11t47.5 -27.5t19.5 -51.5zM2767 659q31 0 31 -14q0 -11 -16 -26t-38 -27q-18 -11 -38.5 -28t-39.5 -36q-39 -40 -73 -95t-63 -113
t-53 -113.5t-44 -95.5q-20 -41 -50.5 -80t-68 -69.5t-80 -49t-86.5 -18.5t-81 20t-48 55q-6 19 -6 33q0 17 8.5 27t30.5 10q11 0 29 -9.5t43 -9.5q22 0 46 16.5t45.5 40.5t40 51t30.5 48q18 32 30.5 61.5t28.5 61.5q-3 10 -9 32t-15 49t-20 55.5t-23 52t-25 38.5t-25 15
q-11 0 -21.5 -11t-19.5 -26t-16 -30t-10 -23l-50 22q9 27 22 58t31 57t42.5 43.5t58.5 17.5q26 0 49 -15t41 -38q17 -21 32.5 -45.5t28.5 -49t23.5 -47t16.5 -38.5q21 45 55 89t76 79q40 32 85 53.5t95 21.5zM3955 492q0 -14 -2.5 -33t-6.5 -38.5t-10.5 -37t-13.5 -29.5
h-277q-8 -14 -11 -33t-3 -34q0 -32 20.5 -47t49.5 -15q55 0 100.5 17.5t91.5 46.5v-94q-51 -38 -110 -54t-121 -16q-41 0 -76 10.5t-60.5 32.5t-40 54.5t-14.5 76.5q0 33 9.5 68t27 69.5t41 66.5t51.5 60q45 44 98 71.5t107 27.5q41 0 69.5 -12.5t46.5 -35t26 -54t8 -68.5z
M3228 512q0 26 -12.5 43.5t-41.5 17.5q-15 0 -30 -8t-30 -21.5t-29 -31.5t-27 -39q-16 -24 -30 -51t-24 -53t-16 -48.5t-6 -37.5q0 -31 18 -42.5t45 -11.5q18 0 35.5 10t34.5 27t32.5 39.5t28.5 46.5q23 45 37.5 88.5t14.5 71.5zM874 102q0 11 -6.5 17t-17.5 6
q-28 0 -57 -17t-55.5 -41.5t-49 -52t-37.5 -49.5q71 3 131 37q12 7 28 17.5t30.5 24t24 28.5t9.5 30zM1329 301q-4 10 -13 18t-20.5 13.5t-24 8.5t-22.5 3q-34 0 -59 -25t-25 -59q0 -22 16 -33.5t38 -11.5q27 0 45.5 9t31.5 22.5t20.5 28t12.5 26.5zM342 313q-4 10 -13 18
t-20.5 13.5t-24 8.5t-22.5 3q-34 0 -59 -25t-25 -59q0 -21 16 -33t37 -12q27 0 46 9t32 22.5t20.5 28.5t12.5 26zM3826 518q0 19 -5.5 36t-27.5 17q-18 0 -36 -16.5t-33.5 -39.5t-27.5 -46.5t-18 -38.5h129q8 22 13.5 44t5.5 44z" />
    <glyph glyph-name="yen" unicode="&#xa5;" horiz-adv-x="1112" 
d="M385 537v180q0 3 -1.5 13.5t-6.5 23.5q-98 0 -159 -7t-98 -15.5t-58 -15.5t-39 -7q0 17 4 32.5t9 32t9 35t4 39.5q0 18 -3.5 37t-7.5 37t-7.5 32t-3.5 21q16 0 36 -7.5t52.5 -17t81 -17.5t122.5 -9q-28 76 -64.5 167.5t-77 185t-82 182t-79.5 157.5q31 0 60.5 -6
t59.5 -12.5t60.5 -12.5t63.5 -6q32 0 59 5.5t50.5 12t46 12t45.5 5.5q0 -18 -4 -33.5t-8.5 -30.5t-8.5 -31t-4 -34q0 -32 14.5 -81t35 -105t43.5 -113.5t40 -106.5q16 57 39.5 116t45.5 117t37.5 112t15.5 102q0 15 -6 26t-12.5 20.5t-12.5 19t-6 22.5q29 0 56 -7
t53.5 -15.5t54 -15.5t59.5 -7q29 0 55 3.5t51 7.5t49 7.5t50 3.5q-43 -65 -88 -148t-87.5 -172.5t-80.5 -179t-68 -165.5q75 1 121.5 6t75 11t46.5 10.5t36 4.5q0 -14 -3.5 -27.5t-8 -28t-8 -29.5t-3.5 -33q0 -32 5 -65t5 -58q-21 0 -40 6t-52 12.5t-87.5 12.5t-145.5 6
q-10 -28 -13.5 -46t-3.5 -26v-145h19q89 0 144 7.5t90.5 17t58 17t45.5 7.5q0 -18 -5.5 -35.5t-12 -34.5t-12 -35t-5.5 -37q0 -15 3 -29.5t7 -29.5t7 -31t3 -35q-16 0 -32.5 7.5t-45.5 16.5t-76.5 16.5t-125.5 7.5h-62v-142q0 -51 20 -89t44.5 -65t44.5 -44t20 -27
q-38 0 -75 6.5t-74.5 15t-76 15t-79.5 6.5q-31 0 -61.5 -5t-61 -10.5t-62 -10.5t-63.5 -5q0 20 17.5 51.5t38 69t38 78.5t17.5 80v76q-53 0 -94.5 -2.5t-73.5 -4.5q-48 -3 -78 -8t-50.5 -9.5t-36.5 -7.5t-36 -3q0 16 5 30t11.5 29t11.5 32.5t5 41.5q0 15 -3.5 28.5
t-7.5 27.5t-7.5 28.5t-3.5 30.5q19 0 39 -6.5t57 -15t98 -15t162 -6.5h2z" />
    <glyph glyph-name="brokenbar" unicode="&#xa6;" horiz-adv-x="610" 
d="M489 -201q0 -48 15.5 -80t34 -57t34 -46.5t15.5 -47.5q-48 0 -92 8.5t-86 18t-85 18t-89 8.5q-25 0 -49.5 -4t-49 -9.5t-49 -9.5t-49.5 -4q0 22 14.5 47t32.5 59.5t32.5 80.5t14.5 110v424q-8 56 -26.5 95.5t-38.5 67.5t-35 47.5t-15 37.5q42 0 81.5 -8.5t79 -19t79 -19
t80.5 -8.5q32 0 63.5 8.5t63 19t62 19t61.5 8.5q0 -29 -14.5 -57.5t-32.5 -61t-32.5 -71.5t-14.5 -90zM240 834q-25 0 -49 -4t-48.5 -9.5t-49.5 -9.5t-50 -4q0 18 11.5 39.5t26.5 49t30 64t22 84.5v410q0 75 -18.5 124.5t-41 83.5t-41 56.5t-18.5 42.5q42 0 81.5 -8.5
t79 -19t79 -19t80.5 -8.5q32 0 63.5 8.5t63 19t62 19t61.5 8.5q0 -29 -15 -57.5t-32.5 -61t-32.5 -71.5t-15 -90l5 -469q0 -48 15.5 -80t33.5 -57t33.5 -47t15.5 -48q-48 0 -91.5 8.5t-86 18.5t-85 18.5t-89.5 8.5z" />
    <glyph glyph-name="section" unicode="&#xa7;" horiz-adv-x="1073" 
d="M1051 35q0 -84 -36 -156t-95.5 -124t-136.5 -81.5t-160 -29.5q-49 0 -97.5 10t-96.5 21.5t-97 21.5t-99 10q-51 0 -82 -8.5t-52 -19t-38.5 -19t-42.5 -8.5q1 40 15 71.5t31 67t31 82t14 115.5q0 61 -2.5 96.5t-5 62.5t-5 52t-2.5 65q50 -62 105 -125t118.5 -114t138 -83
t162.5 -32q47 0 79 27.5t32 82.5q0 60 -27 98t-71.5 63t-101.5 41t-116.5 33t-116.5 38.5t-101.5 58t-71.5 92t-27 138.5q0 56 10 95t27.5 69t42 54t53.5 50q-31 28 -57.5 59.5t-46 66.5t-30.5 75.5t-11 87.5q0 73 29.5 141.5t81 121.5t122 84.5t152.5 31.5q43 0 83.5 -8
t81.5 -17t83 -17t88 -8q49 0 80 7t52.5 15.5t39.5 15.5t41 7q0 -20 -7.5 -42t-18.5 -51t-24 -67t-24 -89t-18.5 -118t-7.5 -153q-21 73 -62 124t-96 83t-121 46.5t-137 15.5q-26 0 -46 -11.5t-33.5 -28.5t-20.5 -38t-7 -39q0 -45 27.5 -73.5t73 -48.5t103 -35.5t118 -34.5
t118.5 -45.5t103.5 -68.5t73.5 -104t28 -151q0 -36 -6 -74t-19.5 -73t-34.5 -65.5t-52 -52.5q59 -54 91 -128.5t32 -155.5zM674 461q17 0 29 12.5t20 30t12 36.5t4 33q0 52 -21 86.5t-57.5 55.5t-85 30t-102.5 9q-10 0 -23 -14t-24 -34.5t-19 -42.5t-8 -38q0 -48 22.5 -79.5
t61 -50t88 -26.5t103.5 -8z" />
    <glyph glyph-name="dieresis" unicode="&#xa8;" horiz-adv-x="688" 
d="M25 1280q0 24 10 42.5t26.5 31t38 19.5t43.5 7q45 0 76 -22t31 -72q0 -48 -33 -73t-78 -25q-23 0 -43.5 5t-36.5 15.5t-25 28t-9 43.5zM430 1282q0 51 31 74.5t78 23.5q21 0 43 -6.5t40 -19t30 -31t12 -43.5q0 -24 -11 -41.5t-28 -29t-37.5 -17.5t-40.5 -6q-22 0 -43 6
t-37.5 18t-26.5 30t-10 42z" />
    <glyph glyph-name="copyright" unicode="&#xa9;" horiz-adv-x="1659" 
d="M823 1618q190 0 341.5 -55.5t256.5 -159.5t161 -255t56 -341q0 -175 -55 -323.5t-156 -256.5t-245 -168.5t-322 -60.5q-204 0 -361.5 51.5t-264 153.5t-161.5 254.5t-55 355.5q0 183 59 331.5t165.5 253.5t254.5 162.5t326 57.5zM831 1534q-186 0 -322.5 -55t-226.5 -156
t-134 -244t-44 -319q0 -101 26 -191t73 -166.5t113 -137t145 -103t169.5 -65.5t186.5 -23q161 0 296.5 46.5t233.5 136t152.5 220t54.5 297.5q0 107 -25 205.5t-71.5 183t-111.5 153t-145.5 117t-174 75t-195.5 26.5zM731 598q0 -18 12.5 -31.5t32 -23t42.5 -14.5t44 -5
q31 0 58.5 9.5t48.5 24.5t33 34.5t12 40.5l-27 84q0 12 17 12q37 0 65 -14t46 -35.5t27 -46.5t9 -47q0 -43 -24.5 -82t-65.5 -68.5t-96.5 -47t-116.5 -17.5q-40 0 -83 5t-84.5 15.5t-79 26.5t-65.5 37t-44.5 48t-16.5 60v484q0 41 27 81t71.5 71t101.5 50t118 19q30 0 59 -4
t57 -8.5t56.5 -8.5t58.5 -4q31 0 61 4t56 15q-2 -20 -9 -39.5t-16 -38.5t-18 -37.5t-15 -36.5q-11 -29 -16 -57l-10 -56q-6 -9 -8.5 -19.5t-5.5 -20.5t-7.5 -20t-13.5 -17q-11 27 -22.5 60t-31.5 62t-53 48.5t-86 19.5q-18 0 -35.5 -5t-31.5 -13.5t-22.5 -20t-8.5 -24.5
v-449z" />
    <glyph glyph-name="ordfeminine" unicode="&#xaa;" horiz-adv-x="573" 
d="M332 1059q0 18 6 35t6 34q0 13 -6 25h-135q-6 -15 -6 -33q0 -20 9.5 -38.5t29.5 -32.5q-5 -2 -13 -2l-119 16q-26 0 -47.5 -5t-44.5 -5h-2q22 11 39.5 41t32.5 73t28 94.5t26 104.5t26.5 104t30.5 93q0 7 -3 12.5t-6.5 11.5t-6.5 12.5t-3 14.5l119 -19q17 0 32 3
t29.5 6.5t29 6.5t30.5 3q0 -10 -3 -18.5t-6.5 -17t-6.5 -17t-3 -19.5q15 -41 28.5 -91t27 -102t26.5 -102.5t27 -91t28.5 -68t30.5 -34.5l-143 10zM217 1225h102l-49 184zM131 866q0 30 12 54t31.5 41.5t45.5 26.5t54 9q27 0 54.5 -10.5t50 -28.5t37 -42t14.5 -52
q0 -32 -12 -56.5t-32.5 -40.5t-47.5 -24t-57 -8q-29 0 -56 9t-48 26t-33.5 41t-12.5 55z" />
    <glyph glyph-name="guillemotleft" unicode="&#xab;" horiz-adv-x="1071" 
d="M788 559q0 -37 19 -78t48 -84t62.5 -87t62.5 -87t48 -84.5t19 -79.5q-41 48 -100 97.5t-123 97t-127.5 92t-114 83.5t-82 70.5t-31.5 53.5q0 23 30.5 57.5t79.5 76.5t111.5 89t127 95.5t124.5 96.5t105 91q0 -34 -19 -76.5t-48 -88.5t-62.5 -94t-62.5 -92t-48 -82.5
t-19 -66.5zM328 559q0 -37 19 -78t48 -84t62 -87t62 -87t48 -84.5t19 -79.5q-41 48 -100 97.5t-123 97t-127.5 92t-114 83.5t-82 70.5t-31.5 53.5q0 23 30.5 57.5t80 76.5t112 89t126.5 95.5t124 96.5t105 91q0 -34 -19 -76.5t-48 -88.5t-62 -94t-62 -92t-48 -82.5
t-19 -66.5z" />
    <glyph glyph-name="logicalnot" unicode="&#xac;" horiz-adv-x="905" 
d="M606 446q-37 0 -72 -9t-73 -9q0 13 8.5 28.5t19.5 35.5t22.5 47t16.5 63v238q-31 2 -62.5 3t-62.5 1q-97 0 -189.5 -9.5t-186.5 -9.5q0 19 4 38.5t9 38.5t9 38t4 39q0 18 -4 35t-9 34t-9 34t-4 34q92 0 181.5 -9t184.5 -9q58 4 117 6t117.5 5t116 9.5t112.5 18.5
q0 -22 -10.5 -44t-23.5 -47.5t-23.5 -56t-10.5 -67.5l5 -344q0 -36 11 -59.5t24.5 -42t24.5 -34t11 -34.5q-35 0 -67 6t-63 13t-62.5 13t-65.5 6z" />
    <glyph glyph-name="registered" unicode="&#xae;" horiz-adv-x="1157" 
d="M573 1677q132 0 237 -38t177.5 -110t111 -176t38.5 -235q0 -121 -38 -224t-107.5 -178t-169 -117t-222.5 -42q-283 0 -432.5 142t-149.5 423q0 126 40.5 228.5t114 175t175.5 112t225 39.5zM580 1620q-128 0 -222.5 -38t-156.5 -108t-92.5 -169t-30.5 -220
q0 -105 39.5 -192.5t106.5 -150t156 -97.5t189 -35q111 0 204.5 32.5t161 94.5t105 152.5t37.5 206.5q0 111 -38 207t-105 166.5t-157.5 110.5t-196.5 40zM348 1356q0 11 -7 20.5t-15.5 18.5t-15.5 18t-7 19q34 0 63 -4.5t66 -4.5q52 0 97.5 8.5t93.5 8.5q55 0 97 -14.5
t70.5 -38.5t43 -55t14.5 -64q0 -45 -29.5 -86t-89.5 -64q38 -20 59.5 -45.5t31.5 -54.5t12 -60t2 -61v-2q0 -16 7.5 -28.5t16 -23t16 -20.5t7.5 -20q-32 0 -85.5 8t-119.5 8q-9 0 -14 9t-8 22t-4 27t-1 24q0 17 3 36.5t3 41.5q0 18 -4 35.5t-14.5 31t-29.5 22t-50 9.5
q-8 0 -15.5 -1t-17.5 -3v-186q0 -12 6 -21.5t12.5 -17.5t12.5 -16t6 -17q-35 0 -69.5 5t-77.5 5q-37 0 -66 -7t-61 -7q0 12 9.5 22.5t21 24.5t21 33.5t9.5 48.5v416zM524 1163q13 -2 23.5 -3t19.5 -1q25 0 44 8t32 21.5t19 30t6 34.5q0 17 -6 33t-17 29t-28 20.5t-39 7.5
q-11 0 -24.5 -2.5t-29.5 -7.5v-170z" />
    <glyph glyph-name="uni00AF" unicode="&#xaf;" horiz-adv-x="803" 
d="M27 1221q0 19 4 38t9 38t9 38t4 39q0 18 -4 35t-9 34t-9 34t-4 34q92 0 181.5 -9t184.5 -9q97 0 190.5 9t190.5 9q0 -37 -7 -73t-7 -76q0 -37 8 -70.5t8 -70.5q-94 0 -185.5 9t-187.5 9q-97 0 -189.5 -9t-186.5 -9z" />
    <glyph glyph-name="uni00AF" unicode="&#x2c9;" horiz-adv-x="803" 
d="M27 1221q0 19 4 38t9 38t9 38t4 39q0 18 -4 35t-9 34t-9 34t-4 34q92 0 181.5 -9t184.5 -9q97 0 190.5 9t190.5 9q0 -37 -7 -73t-7 -76q0 -37 8 -70.5t8 -70.5q-94 0 -185.5 9t-187.5 9q-97 0 -189.5 -9t-186.5 -9z" />
    <glyph glyph-name="degree" unicode="&#xb0;" horiz-adv-x="449" 
d="M18 1411q0 45 15.5 82.5t43 64.5t65.5 42.5t83 15.5q44 0 81.5 -14.5t65 -41.5t43 -64.5t15.5 -82.5q0 -42 -16.5 -80t-45 -66.5t-66 -45.5t-79.5 -17q-45 0 -82.5 15.5t-64.5 43.5t-42.5 65.5t-15.5 82.5zM139 1419q0 -94 94 -94q16 0 30.5 7.5t25 19t16.5 26t6 29.5
q0 45 -18.5 66.5t-65.5 21.5q-16 0 -32 -5.5t-28.5 -15.5t-20 -24t-7.5 -31z" />
    <glyph glyph-name="plusminus" unicode="&#xb1;" horiz-adv-x="1026" 
d="M684 401q86 0 139 10t87 22t55.5 22t44.5 10q0 -23 -5.5 -46t-12 -46t-12 -46t-5.5 -46q0 -24 3 -44.5t7 -40t7 -40.5t3 -45q-17 0 -32.5 10t-42.5 22.5t-72.5 22.5t-122.5 10h-354q-70 0 -119 -3.5t-83 -8.5t-56 -11.5t-38 -11.5t-30 -8.5t-31 -3.5q0 20 4.5 38t10 38
t10 44t4.5 56q0 38 -10 74t-10 78q21 0 39.5 -9t52.5 -20t92.5 -20t157.5 -9zM55 987q0 26 -4 45t-8.5 37.5t-8 39.5t-3.5 52q24 0 45 -9t41.5 -20.5t41 -20.5t44.5 -9h194v223q0 19 -6.5 36.5t-14 35t-14 35.5t-6.5 38l164 -32q19 0 38.5 4.5t38.5 10.5t38 10.5t37 4.5
q0 -24 -6.5 -46t-15 -42.5t-15 -41t-6.5 -42.5v-194h260q19 0 33.5 6t26.5 12.5t23 12.5t25 6q0 -26 -3.5 -47t-7.5 -40t-7.5 -37t-3.5 -38q0 -19 1.5 -35.5t3.5 -34.5t3.5 -38.5t1.5 -47.5l-143 49h-213v-204q0 -23 9 -45.5t19.5 -44t19.5 -42t9 -40.5q-27 0 -51.5 4.5
t-48.5 9.5t-48 9.5t-49 4.5q-40 0 -78.5 -9t-80.5 -9q0 22 10 45t22.5 47t22.5 49t10 51v174h-182q-24 0 -48 -8.5t-47 -19t-45 -19t-42 -8.5q0 22 3.5 43t8 42t8.5 42.5t4 44.5z" />
    <glyph glyph-name="twosuperior" unicode="&#xb2;" horiz-adv-x="485" 
d="M211 807q-48 0 -92 8t-96 8q0 90 12.5 154t32.5 109.5t45.5 75t52.5 51.5t52.5 40t45.5 39t32.5 49t12.5 70q0 25 -9 45.5t-38 20.5q-38 0 -64 -13.5t-43.5 -34t-28.5 -44t-18.5 -44t-14 -34t-15.5 -13.5l4 101q0 29 -6 58t-12.5 57t-12.5 56t-6 56q13 0 25.5 -4.5
t25 -10t25 -10t26.5 -4.5q19 0 36.5 4t34 8.5t33 8.5t34.5 4q40 0 73.5 -16.5t57 -43.5t36.5 -62t13 -73q0 -65 -20 -110.5t-50 -79t-65 -59.5t-65 -52t-50 -56t-20 -71q0 -23 10 -40t35 -17q27 0 50 11t42.5 29t34.5 40.5t26 44.5q4 6 6 13.5t4.5 14.5t6.5 13.5t12 11.5
q-3 -20 -3.5 -38.5t-0.5 -35.5q0 -40 2.5 -75.5t5.5 -75.5q0 -13 3.5 -23.5t8 -20t8 -19t3.5 -21.5q-13 0 -24.5 3.5t-22.5 8t-23 8.5t-27 4q-20 0 -37.5 -4t-34.5 -8.5t-34 -8t-35 -3.5z" />
    <glyph glyph-name="threesuperior" unicode="&#xb3;" horiz-adv-x="461" 
d="M121 821q-26 0 -50 -11t-46 -11q7 34 12 59.5t8 54t4.5 65.5t1.5 95v29q9 0 17.5 -12.5t19 -32t22.5 -41.5t28 -41.5t35.5 -32t45.5 -12.5q24 0 37.5 11t20.5 27.5t8.5 35.5t1.5 36q0 44 -8.5 69.5t-21.5 40t-27.5 20.5t-27.5 10t-21.5 9t-8.5 17q0 13 8.5 20.5t21.5 14
t28.5 13.5t28.5 20.5t21.5 35t8.5 56.5q0 21 -2.5 41.5t-11 37.5t-25.5 27.5t-45 10.5q-29 0 -50.5 -12.5t-36.5 -32t-25.5 -41.5t-18.5 -41.5t-14 -32t-13 -12.5q3 46 4.5 78.5t1.5 58.5q0 24 -4.5 49t-9.5 46.5t-9.5 38.5t-4.5 26q26 0 46.5 -8.5t45.5 -8.5q19 0 35.5 3.5
t31.5 8t30 8t32 3.5q43 0 78.5 -18.5t61 -49.5t39 -70t13.5 -79q0 -27 -4 -55t-13.5 -53.5t-25.5 -47.5t-39 -37q39 -37 60.5 -85.5t21.5 -102.5q0 -40 -11.5 -79t-34.5 -69.5t-57 -49.5t-79 -19q-35 0 -69 11t-66 11z" />
    <glyph glyph-name="acute" unicode="&#xb4;" horiz-adv-x="0" 
d="M147 1583q29 0 51.5 -20.5t22.5 -49.5q0 -16 -22 -40.5t-58 -53t-83 -57.5t-97.5 -55.5t-101 -47t-92.5 -30.5v12q32 27 66.5 63t68.5 74t68 75t65.5 65.5t59.5 46.5t52 18z" />
    <glyph glyph-name="uni00B5" unicode="&#xb5;" horiz-adv-x="1034" 
d="M84 1016q0 28 -9.5 45.5t-21 30.5t-21 23.5t-9.5 23.5q26 0 55.5 -4t64.5 -8.5t75 -8.5t87 -4q30 0 53.5 2.5t43.5 5.5t39.5 5.5t41.5 2.5q0 -11 -11.5 -23t-26 -29t-26 -41t-11.5 -60v-707q0 -15 12 -27.5t30.5 -20.5t42.5 -12.5t48 -4.5q27 0 52.5 6t44.5 17.5
t30.5 27.5t11.5 37v706q0 19 -10.5 35.5t-22.5 33t-22.5 33t-10.5 34.5q44 0 87 -7.5t90 -7.5q61 0 119.5 9.5t115.5 9.5q0 -18 -13.5 -35.5t-29.5 -40.5t-29.5 -55t-13.5 -78v-692q0 -36 -26 -78t-78.5 -77.5t-131.5 -59t-184 -23.5q-106 0 -184 25v-191q17 -40 24 -82
t7 -84v-24q0 -13 -2 -25q-35 -29 -71.5 -39t-76.5 -10q-25 0 -50.5 2.5t-51.5 5.5q-35 14 -48.5 38.5t-13.5 55.5q0 20 4.5 41.5t10 42.5t11 40.5t7.5 37.5v404q-2 6 -2 11v11v756z" />
    <glyph glyph-name="uni00B5" unicode="&#x3bc;" horiz-adv-x="1034" 
d="M84 1016q0 28 -9.5 45.5t-21 30.5t-21 23.5t-9.5 23.5q26 0 55.5 -4t64.5 -8.5t75 -8.5t87 -4q30 0 53.5 2.5t43.5 5.5t39.5 5.5t41.5 2.5q0 -11 -11.5 -23t-26 -29t-26 -41t-11.5 -60v-707q0 -15 12 -27.5t30.5 -20.5t42.5 -12.5t48 -4.5q27 0 52.5 6t44.5 17.5
t30.5 27.5t11.5 37v706q0 19 -10.5 35.5t-22.5 33t-22.5 33t-10.5 34.5q44 0 87 -7.5t90 -7.5q61 0 119.5 9.5t115.5 9.5q0 -18 -13.5 -35.5t-29.5 -40.5t-29.5 -55t-13.5 -78v-692q0 -36 -26 -78t-78.5 -77.5t-131.5 -59t-184 -23.5q-106 0 -184 25v-191q17 -40 24 -82
t7 -84v-24q0 -13 -2 -25q-35 -29 -71.5 -39t-76.5 -10q-25 0 -50.5 2.5t-51.5 5.5q-35 14 -48.5 38.5t-13.5 55.5q0 20 4.5 41.5t10 42.5t11 40.5t7.5 37.5v404q-2 6 -2 11v11v756z" />
    <glyph glyph-name="paragraph" unicode="&#xb6;" horiz-adv-x="1696" 
d="M512 -422q0 24 19 47.5t41.5 54t41.5 71t19 97.5v521q-104 -37 -191 -37q-107 0 -187.5 49t-134 129.5t-80 184t-26.5 212.5q0 111 30.5 210.5t90.5 175.5t148.5 120.5t203.5 44.5q99 0 198 -10.5t198 -15.5q65 3 130.5 14.5t131.5 11.5q34 0 66.5 -6.5t65.5 -15
t66.5 -15t69.5 -6.5q33 0 65 8.5t64 18t64.5 18t66.5 8.5q-12 -32 -27 -62.5t-31.5 -60t-32.5 -59.5t-28 -61v-1418q0 -38 13 -70t29 -60t29 -53t13 -50q-35 0 -67 7t-65 15.5t-67.5 15.5t-72.5 7q-68 0 -126 -7t-118 -7q0 20 13 40t29 49.5t29 71.5t13 107v979q0 28 2 60.5
t2 66.5q0 37 -4 72.5t-16 62.5t-34 43.5t-58 16.5q-23 0 -42.5 -8.5t-33.5 -23t-22.5 -33t-8.5 -38.5v-1223q0 -57 9.5 -91.5t20.5 -59.5t20.5 -45.5t9.5 -48.5q-28 0 -54 2.5t-54 5.5t-60.5 5.5t-73.5 2.5q-43 0 -81 -6.5t-74 -14t-70.5 -14t-71.5 -6.5zM618 1147
q-15 9 -34 12.5t-39 3.5q-29 0 -58.5 -9t-53 -26.5t-38 -44.5t-14.5 -63v-246q0 -47 25 -75t62 -42.5t79.5 -19t77.5 -4.5z" />
    <glyph glyph-name="uni2219" unicode="&#xb7;" horiz-adv-x="403" 
d="M188 971q25 0 49 4.5t47.5 10.5t47 10.5t47.5 4.5q0 -26 -3.5 -49.5t-8 -47.5t-8 -49.5t-3.5 -53.5q0 -47 6.5 -91t6.5 -94q-21 0 -40 2.5t-38 6t-39 6t-43 2.5q-24 0 -45.5 -4t-43 -8.5t-43.5 -8.5t-46 -4q0 28 3 53t6 48l6 46t3 48q0 28 -3.5 53t-7.5 48.5t-7.5 47
t-3.5 47.5q21 -1 41 -5.5t40 -9.5t40 -9t40 -4z" />
    <glyph glyph-name="uni2219" unicode="&#x2219;" horiz-adv-x="403" 
d="M188 971q25 0 49 4.5t47.5 10.5t47 10.5t47.5 4.5q0 -26 -3.5 -49.5t-8 -47.5t-8 -49.5t-3.5 -53.5q0 -47 6.5 -91t6.5 -94q-21 0 -40 2.5t-38 6t-39 6t-43 2.5q-24 0 -45.5 -4t-43 -8.5t-43.5 -8.5t-46 -4q0 28 3 53t6 48l6 46t3 48q0 28 -3.5 53t-7.5 48.5t-7.5 47
t-3.5 47.5q21 -1 41 -5.5t40 -9.5t40 -9t40 -4z" />
    <glyph glyph-name="cedilla" unicode="&#xb8;" horiz-adv-x="0" 
d="M57 20q-5 -6 -5.5 -14t-0.5 -16v-21q27 0 50 -10.5t39.5 -27.5t26 -39t9.5 -44q0 -37 -17 -70.5t-46.5 -59t-70 -41t-87.5 -15.5q-37 0 -75 3.5t-70 19.5q17 35 25 74t11 79q23 -29 51.5 -51.5t71.5 -22.5q15 0 32.5 3t32.5 10.5t24.5 19t9.5 29.5q0 12 -6 20t-15 12.5
t-19.5 6.5t-19.5 2q-25 0 -46.5 -4t-43.5 -4l10 110q0 14 -2 26.5t-8 24.5h139z" />
    <glyph glyph-name="onesuperior" unicode="&#xb9;" horiz-adv-x="315" 
d="M78 1477q0 15 -8.5 26t-18 21.5t-18 22.5t-8.5 28q0 5 14 7t34.5 3t42.5 1.5t38 2.5q15 3 29.5 9.5t28.5 13t29 11.5t31 5q3 0 5 -4.5t2 -7.5q-8 -28 -18 -56t-15 -57v-590q0 -12 6.5 -23.5t15 -22.5t15 -22t6.5 -22q-18 0 -34 2.5t-32 6t-32.5 6t-34.5 2.5
q-32 0 -59 -6.5t-56 -6.5q0 15 6 29t12.5 27t12.5 26t6 27v541z" />
    <glyph glyph-name="ordmasculine" unicode="&#xba;" horiz-adv-x="471" 
d="M18 1446q0 40 18.5 70t49 50t69.5 30t81 10q43 0 82 -10.5t69 -31t48 -51.5t18 -71v-228q0 -38 -17.5 -69.5t-47.5 -55t-70.5 -36.5t-86.5 -13q-38 0 -75.5 8.5t-67.5 26t-49 43.5t-21 62v266zM289 1446q0 28 -15.5 40.5t-33.5 12.5q-22 0 -42 -14.5t-20 -42.5v-250
q2 -22 20 -32.5t38 -10.5q21 0 37 10.5t16 32.5v254zM80 866q0 30 11.5 54t31.5 41.5t45.5 26.5t54.5 9q27 0 54.5 -10.5t50 -28.5t37 -42t14.5 -52q0 -32 -12 -56.5t-33 -40.5t-48 -24t-57 -8q-29 0 -56 9t-47.5 26t-33 41t-12.5 55z" />
    <glyph glyph-name="guillemotright" unicode="&#xbb;" horiz-adv-x="1071" 
d="M283 559q0 28 -19 66.5t-48 82.5t-62 92t-62 94t-48 88.5t-19 76.5q44 -43 104.5 -91t124.5 -96.5t126.5 -95.5t111.5 -89t79.5 -76.5t30.5 -57.5q0 -22 -31.5 -53.5t-82 -70.5t-114 -83.5t-127.5 -92t-122.5 -97t-99.5 -97.5q0 38 19 79.5t48 84.5t62 87t62 87t48 84
t19 78zM743 559q0 28 -19 66.5t-48 82.5t-62 92t-62 94t-48 88.5t-19 76.5q45 -43 105 -91t124.5 -96.5t127 -95.5t111.5 -89t79.5 -76.5t30.5 -57.5q0 -22 -31.5 -53.5t-82 -70.5t-114 -83.5t-127.5 -92t-123 -97t-100 -97.5q0 38 19 79.5t48 84.5t62 87t62 87t48 84t19 78
z" />
    <glyph glyph-name="onequarter" unicode="&#xbc;" horiz-adv-x="1583" 
d="M459 -43q-59 34 -109.5 55.5t-102 34t-108 17t-125.5 4.5q34 45 72.5 84.5t81.5 74.5l940 1196v238q54 -33 110.5 -53t114.5 -30.5t116.5 -13.5t117.5 -3q-12 -13 -33.5 -36t-44.5 -47.5t-43 -48t-29 -38.5l-950 -1225q-5 -9 -5.5 -20t-0.5 -25l4 -107q0 -15 -1.5 -30
t-4.5 -27zM264 1438q0 15 -8.5 26t-18 21.5t-18 22.5t-8.5 28q0 5 14 7t34.5 3t42.5 1.5t38 2.5q15 3 29.5 9.5l29 13t29.5 11.5t31 5q3 0 4.5 -4.5t1.5 -7.5q-8 -28 -18 -56t-15 -57v-590q0 -12 6.5 -23.5t15 -22.5t15 -22t6.5 -22q-18 0 -34 2.5t-32 6t-32.5 6t-34.5 2.5
q-32 0 -59 -6.5t-56 -6.5q0 15 6 29t12.5 27t12.5 26t6 27v541zM1174 16q0 11 5.5 23t12.5 34.5t12.5 60.5t5.5 102h-180q-15 0 -27 -9.5t-24 -9.5q-2 4 -2 10q0 11 2 23.5t2 21.5q0 26 -8.5 47t-24.5 41q32 21 61.5 50t52 63t35.5 71.5t13 76.5q0 18 -3 33t-3 30
q29 0 47.5 10t33.5 25t30 32.5t37 32.5t54.5 25t82.5 10q0 -10 -5 -24t-11.5 -30.5t-11.5 -34t-5 -34.5v-354q15 0 27 6.5t22 15t19 15t18 6.5q0 -29 -4 -53t-4 -58q0 -14 4 -25.5t4 -25.5q0 -15 -6 -24q-11 17 -34 27t-46 10v-134q0 -13 6 -23.5t12.5 -21t12.5 -21.5t6 -24
q-17 0 -33 3.5t-31.5 7l-31 7t-31.5 3.5q-25 0 -45 -8.5t-47 -8.5zM1210 524l-110 -182h110v182z" />
    <glyph glyph-name="onehalf" unicode="&#xbd;" horiz-adv-x="1589" 
d="M459 -43q-59 34 -109.5 55.5t-102 34t-108 17t-125.5 4.5q34 45 72.5 84.5t81.5 74.5l940 1196v238q54 -33 110.5 -53t114.5 -30.5t116.5 -13.5t117.5 -3q-12 -13 -33.5 -36t-44.5 -47.5t-43 -48t-29 -38.5l-950 -1225q-5 -9 -5.5 -20t-0.5 -25l4 -107q0 -15 -1.5 -30
t-4.5 -27zM252 1440q0 15 -8.5 26t-18 21.5t-18 22.5t-8.5 28q0 5 14 7t34.5 3t42.5 1.5t38 2.5q15 3 29.5 9.5t28.5 13t29 11.5t31 5q4 0 5.5 -4.5t1.5 -7.5q-8 -28 -18 -56t-15 -57v-589q0 -12 6.5 -24t15 -23t15 -22t6.5 -22q-18 0 -34 2.5t-32 6t-32.5 6t-34.5 2.5
q-32 0 -59 -6t-56 -6q0 15 6 28.5t12.5 26.5t12.5 26t6 27v541zM1315 -2q-48 0 -92.5 8t-96.5 8q0 90 12.5 154t32.5 109.5t46 75t52.5 51.5t52.5 40t46 39t32.5 49t12.5 70q0 25 -9 45.5t-38 20.5q-39 0 -65 -13.5t-43.5 -34t-28 -44t-18.5 -44t-14 -34t-15 -13.5l4 101
q0 29 -6 58t-12.5 57t-12.5 56t-6 56q13 0 25.5 -4.5t25 -10t25 -10t26.5 -4.5q19 0 36 4t33.5 8.5t33 8.5t35.5 4q40 0 73.5 -16.5t57 -43.5t36.5 -62t13 -73q0 -65 -20 -110.5t-50 -79t-65.5 -59.5t-65.5 -52t-50 -56t-20 -71q0 -23 10.5 -40t34.5 -17q27 0 50.5 11t43 29
t34.5 40.5t26 44.5q4 6 6 13.5t4.5 14.5t6.5 13.5t12 11.5q-3 -20 -3.5 -38.5t-0.5 -35.5q0 -40 2.5 -75.5t5.5 -75.5q0 -13 3.5 -23.5t7.5 -20t7.5 -19t3.5 -21.5q-13 0 -24 4t-22 8.5t-23 8.5t-27 4q-20 0 -37.5 -4t-34.5 -8.5t-34 -8.5t-35 -4z" />
    <glyph glyph-name="threequarters" unicode="&#xbe;" horiz-adv-x="1587" 
d="M463 -43q-59 34 -109.5 55.5t-102 34t-108 17t-125.5 4.5q34 45 72.5 84.5t81.5 74.5l940 1196v238q54 -33 110.5 -53t114.5 -30.5t116.5 -13.5t117.5 -3q-12 -13 -33.5 -36t-44.5 -47.5t-43 -48t-29 -38.5l-950 -1225q-5 -9 -5.5 -20t-0.5 -25l4 -107q0 -15 -1.5 -30
t-4.5 -27zM182 821q-26 0 -49.5 -11t-46.5 -11q7 34 12.5 59.5t8.5 54t4.5 65.5t1.5 95v29q9 0 17.5 -12.5t18.5 -32t22 -41.5t28 -41.5t36 -32t46 -12.5q24 0 37 11t20 27.5t8.5 35.5t1.5 36q0 44 -8.5 69.5t-21.5 40t-27.5 20.5t-27.5 10t-21.5 9t-8.5 17q0 13 8.5 20.5
t21.5 14t28.5 13.5t28.5 20.5t21.5 35t8.5 56.5q0 21 -2.5 41.5t-11 37.5t-25.5 27.5t-45 10.5q-29 0 -50 -12.5t-36.5 -32t-26 -41.5t-18 -41.5t-14 -32t-12.5 -12.5q3 46 4.5 78.5t1.5 58.5q0 24 -4.5 49t-10 46.5t-10 38.5t-4.5 26q26 0 46.5 -8.5t45.5 -8.5
q19 0 35.5 3.5t31.5 8t30 8t32 3.5q44 0 79.5 -18.5t61 -49.5t39 -70t13.5 -79q0 -27 -4 -55t-14 -53.5t-25.5 -47.5t-38.5 -37q38 -37 60 -85.5t22 -102.5q0 -40 -12 -79t-35 -69.5t-57 -49.5t-79 -19q-35 0 -69 11t-66 11zM1190 14q0 11 6 22.5t12.5 34t12.5 60.5t6 102
h-180q-16 0 -27.5 -9t-24.5 -9q-2 4 -2 10q0 11 2 23.5t2 21.5q0 26 -8.5 47t-23.5 41q32 21 61.5 50t51.5 63t35 71.5t13 75.5q0 19 -3 34t-3 30q29 0 47.5 10t33.5 25t30 32.5t37 32.5t54.5 25t82.5 10q0 -10 -5 -24t-11.5 -30.5t-11.5 -34t-5 -34.5v-354q15 0 27 6.5
t22.5 15t19.5 15t17 6.5q0 -29 -4 -53t-4 -58q0 -14 4 -25.5t4 -25.5q0 -15 -6 -24q-11 17 -34 26.5t-46 9.5v-133q0 -13 6 -23.5t12.5 -21t12.5 -21.5t6 -24q-17 0 -33 3.5t-31.5 7l-31 7t-31.5 3.5q-12 0 -23 -2.5t-21.5 -6t-22 -6t-25.5 -2.5zM1227 522l-111 -182h111
v182z" />
    <glyph glyph-name="questiondown" unicode="&#xbf;" horiz-adv-x="872" 
d="M334 815q25 0 47.5 -4t45.5 -9.5t47.5 -9.5t53.5 -4q22 0 44 4t45 9.5t50 9.5t60 4q-35 -42 -45 -92.5t-10 -104.5q0 -30 6 -59t13.5 -58t13.5 -59.5t6 -64.5q-24 0 -44 6t-40.5 12.5t-42.5 12.5t-49 6q-52 0 -90.5 -18.5t-64 -50.5t-38 -74.5t-12.5 -90.5q0 -39 9 -76
t27 -65.5t44 -46t61 -17.5q51 0 95 19t78.5 50.5t58.5 73.5t36 87q10 0 14 -7t7 -14q14 -125 36 -249t60 -242q-23 0 -41.5 7t-36 15.5t-34.5 15.5t-37 7q-37 0 -69.5 -9t-64 -19.5t-65.5 -19.5t-74 -9q-105 0 -184.5 41.5t-132.5 110t-80 157.5t-27 184q0 84 21.5 164.5
t65 144t109 104t152.5 46.5q0 31 -4 54.5t-8.5 44.5t-8 40.5t-3.5 42.5zM539 961q-26 0 -51 -4.5t-49.5 -10t-49 -10t-49.5 -4.5q0 23 3.5 44t7.5 42.5t7.5 44.5t3.5 49q0 40 -6 80.5t-6 83.5q25 0 46 -2t40.5 -5t39.5 -5t42 -2q25 0 47.5 3.5t44.5 7.5t44.5 7.5t47.5 3.5
q0 -25 -3 -47.5t-6 -43.5t-6 -41.5t-3 -41.5q0 -22 4 -44.5t8.5 -44.5t8.5 -44t4 -43q-23 1 -44 5t-42 9t-42 9t-42 4z" />
    <glyph glyph-name="Agrave" unicode="&#xc0;" 
d="M655 18q0 25 4 50.5t9.5 51t9.5 50.5t4 49q0 35 -12 70h-271q-8 -23 -11 -46.5t-3 -47.5q0 -57 20 -111t58 -96q-6 -2 -13 -2h-12q-30 0 -59.5 7t-58.5 15.5t-58.5 15.5t-60.5 7q-26 0 -49 -5t-45.5 -10.5t-45 -10.5t-45.5 -5h-4q33 23 61 78.5t52 134t45.5 176.5
t41.5 206t39 222.5t39 226.5t41.5 217.5t45.5 196.5q0 19 -5.5 36t-12 33.5t-12 34.5t-5.5 40q32 0 61 -8t57.5 -17t57.5 -17t62 -8q34 0 63.5 7.5t58.5 16t58 16t61 7.5q0 -27 -6 -50t-12.5 -47t-12.5 -50t-6 -57q21 -87 41.5 -189.5t40.5 -212t40 -221.5t40.5 -217.5
t41 -199.5t41.5 -167.5t43.5 -123t45.5 -64.5q-33 0 -68.5 5t-72 10.5t-73.5 10.5t-73 5q-45 0 -86.5 -6.5t-89.5 -6.5zM428 494h205l-98 526zM412 2070q23 0 51.5 -18t60 -46.5t65.5 -65.5t68.5 -75t69 -74t66.5 -63v-12q-42 10 -92.5 30.5t-101 47t-97.5 55.5t-83.5 57.5
t-58.5 53t-22 40.5q0 29 22.5 49.5t51.5 20.5z" />
    <glyph glyph-name="Aacute" unicode="&#xc1;" 
d="M655 18q0 25 4 50.5t9.5 51t9.5 50.5t4 49q0 35 -12 70h-271q-8 -23 -11 -46.5t-3 -47.5q0 -57 20 -111t58 -96q-6 -2 -13 -2h-12q-30 0 -59.5 7t-58.5 15.5t-58.5 15.5t-60.5 7q-26 0 -49 -5t-45.5 -10.5t-45 -10.5t-45.5 -5h-4q33 23 61 78.5t52 134t45.5 176.5
t41.5 206t39 222.5t39 226.5t41.5 217.5t45.5 196.5q0 19 -5.5 36t-12 33.5t-12 34.5t-5.5 40q32 0 61 -8t57.5 -17t57.5 -17t62 -8q34 0 63.5 7.5t58.5 16t58 16t61 7.5q0 -27 -6 -50t-12.5 -47t-12.5 -50t-6 -57q21 -87 41.5 -189.5t40.5 -212t40 -221.5t40.5 -217.5
t41 -199.5t41.5 -167.5t43.5 -123t45.5 -64.5q-33 0 -68.5 5t-72 10.5t-73.5 10.5t-73 5q-45 0 -86.5 -6.5t-89.5 -6.5zM428 494h205l-98 526zM718 2070q29 0 51.5 -20.5t22.5 -49.5q0 -16 -22 -40.5t-58 -53t-83 -57.5t-97.5 -55.5t-101 -47t-92.5 -30.5v12q32 27 66.5 63
t68.5 74t68 75t65.5 65.5t59.5 46.5t52 18z" />
    <glyph glyph-name="Acircumflex" unicode="&#xc2;" 
d="M655 18q0 25 4 50.5t9.5 51t9.5 50.5t4 49q0 35 -12 70h-271q-8 -23 -11 -46.5t-3 -47.5q0 -57 20 -111t58 -96q-6 -2 -13 -2h-12q-30 0 -59.5 7t-58.5 15.5t-58.5 15.5t-60.5 7q-26 0 -49 -5t-45.5 -10.5t-45 -10.5t-45.5 -5h-4q33 23 61 78.5t52 134t45.5 176.5
t41.5 206t39 222.5t39 226.5t41.5 217.5t45.5 196.5q0 19 -5.5 36t-12 33.5t-12 34.5t-5.5 40q32 0 61 -8t57.5 -17t57.5 -17t62 -8q34 0 63.5 7.5t58.5 16t58 16t61 7.5q0 -27 -6 -50t-12.5 -47t-12.5 -50t-6 -57q21 -87 41.5 -189.5t40.5 -212t40 -221.5t40.5 -217.5
t41 -199.5t41.5 -167.5t43.5 -123t45.5 -64.5q-33 0 -68.5 5t-72 10.5t-73.5 10.5t-73 5q-45 0 -86.5 -6.5t-89.5 -6.5zM428 494h205l-98 526zM553 1855q-18 0 -44 -16t-58 -39.5t-68 -51t-73 -51.5t-74 -40.5t-70 -16.5q31 37 65 85.5t69 100.5t69.5 102t67 89.5t61.5 63.5
t53 24q30 0 60 -24t61.5 -62.5t65 -88t69.5 -100t75 -98.5t83 -84q-43 0 -82.5 15t-75.5 38t-69.5 49.5t-64.5 49.5t-61 38.5t-59 16.5z" />
    <glyph glyph-name="Atilde" unicode="&#xc3;" 
d="M655 18q0 25 4 50.5t9.5 51t9.5 50.5t4 49q0 35 -12 70h-271q-8 -23 -11 -46.5t-3 -47.5q0 -57 20 -111t58 -96q-6 -2 -13 -2h-12q-30 0 -59.5 7t-58.5 15.5t-58.5 15.5t-60.5 7q-26 0 -49 -5t-45.5 -10.5t-45 -10.5t-45.5 -5h-4q33 23 61 78.5t52 134t45.5 176.5
t41.5 206t39 222.5t39 226.5t41.5 217.5t45.5 196.5q0 19 -5.5 36t-12 33.5t-12 34.5t-5.5 40q32 0 61 -8t57.5 -17t57.5 -17t62 -8q34 0 63.5 7.5t58.5 16t58 16t61 7.5q0 -27 -6 -50t-12.5 -47t-12.5 -50t-6 -57q21 -87 41.5 -189.5t40.5 -212t40 -221.5t40.5 -217.5
t41 -199.5t41.5 -167.5t43.5 -123t45.5 -64.5q-33 0 -68.5 5t-72 10.5t-73.5 10.5t-73 5q-45 0 -86.5 -6.5t-89.5 -6.5zM428 494h205l-98 526zM100 1689q-7 0 -11.5 8.5t-7.5 21t-4 26t-1 22.5q0 82 32 135t80 83.5t104.5 42t104.5 11.5t100.5 -18t103.5 -45t99.5 -58.5
t88.5 -58.5t70.5 -45t45.5 -18q31 0 51.5 21t33.5 53.5t18.5 70.5t5.5 72q8 16 18 16q5 0 9 -7.5t7 -19t4.5 -25.5t1.5 -26q0 -65 -20.5 -116.5t-53.5 -87.5t-75.5 -55t-87.5 -19q-53 0 -106.5 17t-106 43t-103 55.5t-97 55.5t-87.5 43t-74 17q-38 0 -62.5 -15.5t-38.5 -41
t-20 -58.5t-6 -67q0 -33 -16 -33z" />
    <glyph glyph-name="Adieresis" unicode="&#xc4;" 
d="M655 18q0 25 4 50.5t9.5 51t9.5 50.5t4 49q0 35 -12 70h-271q-8 -23 -11 -46.5t-3 -47.5q0 -57 20 -111t58 -96q-6 -2 -13 -2h-12q-30 0 -59.5 7t-58.5 15.5t-58.5 15.5t-60.5 7q-26 0 -49 -5t-45.5 -10.5t-45 -10.5t-45.5 -5h-4q33 23 61 78.5t52 134t45.5 176.5
t41.5 206t39 222.5t39 226.5t41.5 217.5t45.5 196.5q0 19 -5.5 36t-12 33.5t-12 34.5t-5.5 40q32 0 61 -8t57.5 -17t57.5 -17t62 -8q34 0 63.5 7.5t58.5 16t58 16t61 7.5q0 -27 -6 -50t-12.5 -47t-12.5 -50t-6 -57q21 -87 41.5 -189.5t40.5 -212t40 -221.5t40.5 -217.5
t41 -199.5t41.5 -167.5t43.5 -123t45.5 -64.5q-33 0 -68.5 5t-72 10.5t-73.5 10.5t-73 5q-45 0 -86.5 -6.5t-89.5 -6.5zM428 494h205l-98 526zM246 1767q0 24 10 42.5t26.5 31t38 19.5t43.5 7q45 0 76 -22t31 -72q0 -48 -33 -73t-78 -25q-23 0 -43.5 5t-36.5 15.5t-25 28
t-9 43.5zM651 1769q0 51 31 74.5t78 23.5q21 0 43 -6.5t40 -19t30 -31t12 -43.5q0 -24 -11 -41.5t-28 -29t-37.5 -17.5t-40.5 -6q-22 0 -43 6t-37.5 18t-26.5 30t-10 42z" />
    <glyph glyph-name="Aring" unicode="&#xc5;" 
d="M655 18q0 25 4 50.5t9.5 51t9.5 50.5t4 49q0 35 -12 70h-271q-8 -23 -11 -46.5t-3 -47.5q0 -57 20 -111t58 -96q-6 -2 -13 -2h-12q-30 0 -59.5 7t-58.5 15.5t-58.5 15.5t-60.5 7q-26 0 -49 -5t-45.5 -10.5t-45 -10.5t-45.5 -5h-4q33 23 61 78.5t52 134t45.5 176.5
t41.5 206t39 222.5t39 226.5t41.5 217.5t45.5 196.5q0 19 -5.5 36t-12 33.5t-12 34.5t-5.5 40q32 0 61 -8t57.5 -17t57.5 -17t62 -8q34 0 63.5 7.5t58.5 16t58 16t61 7.5q0 -27 -6 -50t-12.5 -47t-12.5 -50t-6 -57q21 -87 41.5 -189.5t40.5 -212t40 -221.5t40.5 -217.5
t41 -199.5t41.5 -167.5t43.5 -123t45.5 -64.5q-33 0 -68.5 5t-72 10.5t-73.5 10.5t-73 5q-45 0 -86.5 -6.5t-89.5 -6.5zM428 494h205l-98 526zM417 1794q0 32 11 59t30.5 46.5t47 30.5t59.5 11q31 0 58 -10.5t47 -29.5t31 -46t11 -59q0 -30 -12 -57t-32.5 -48t-47.5 -33
t-57 -12q-32 0 -58.5 11.5t-46 31t-30.5 46.5t-11 59zM503 1800q0 -32 17 -50t51 -18q23 0 39 19t16 41q0 32 -13.5 47.5t-45.5 15.5q-23 0 -43.5 -15t-20.5 -40z" />
    <glyph glyph-name="AE" unicode="&#xc6;" horiz-adv-x="1753" 
d="M268 66q-36 0 -68.5 -5t-63.5 -11.5t-62 -11.5t-64 -5l152 213l483 1075q14 38 23.5 80t9.5 84q0 19 -6 35t-13.5 31t-13.5 30t-6 33q32 0 63 -7.5t62.5 -17t63 -17t65.5 -7.5q46 0 90.5 6t88 12.5t87 12.5t88.5 6q32 0 63 -7t62.5 -16t64.5 -16t68 -7q28 0 53 8.5
t50 18.5t49.5 18.5t50.5 8.5q0 -44 -9.5 -89.5t-21 -92t-21 -93.5t-9.5 -94q0 -32 3 -59t6 -53t6 -52.5t3 -56.5q-23 36 -46.5 75.5t-49.5 77.5t-56 72.5t-64.5 61t-75.5 42t-89 15.5q-20 0 -40.5 -3t-37 -11.5t-27 -23t-10.5 -36.5v-362q13 -3 23.5 -3.5t19.5 -0.5
q34 0 63.5 12.5t56.5 30.5t53 38t55 35q5 -11 7.5 -21.5t2.5 -23.5q0 -24 -5 -48.5t-11.5 -49t-11.5 -49.5t-5 -49q0 -26 5 -47t11.5 -41.5t11.5 -40.5t5 -43v-25q-29 15 -57.5 34.5t-58 36.5t-61 28.5t-65.5 11.5q-12 0 -23.5 -1.5t-25.5 -4.5v-342q0 -26 9.5 -44t26 -30
t38 -17.5t45.5 -5.5q62 0 110.5 25.5t86 63.5t66 83t50.5 83t39.5 63.5t34.5 25.5q-5 -52 -8.5 -103t-3.5 -103q0 -106 16 -208t60 -198q-30 0 -59 10.5t-58 22.5t-58.5 22.5t-60.5 10.5q-39 0 -76.5 -5.5t-75 -12t-75.5 -12t-78 -5.5q-31 0 -60.5 5.5t-59.5 12t-60.5 12
t-61.5 5.5q-25 0 -49.5 -3.5t-48.5 -8t-48 -8t-48 -3.5q10 32 23 61.5t24 60.5t18.5 66.5t7.5 79.5h-311q-25 -15 -36 -41t-11 -55q0 -24 7 -50.5t19.5 -51t29.5 -45.5t36 -35q-38 0 -74.5 5t-72.5 11.5t-72 11.5t-72 5zM588 526h280v652z" />
    <glyph glyph-name="Ccedilla" unicode="&#xc7;" horiz-adv-x="891" 
d="M344 408q0 -31 16 -55t40 -40.5t53 -25t55 -8.5q38 0 72.5 16t60.5 42.5t41.5 61t15.5 72.5q0 21 -5.5 39.5t-11.5 36.5t-11.5 36.5t-5.5 39.5q0 20 22 20q47 0 81.5 -24.5t57.5 -62.5t34 -83.5t11 -87.5q0 -77 -30.5 -146.5t-82.5 -122.5t-121 -84.5t-147 -31.5
q-50 0 -104 9.5t-105.5 28.5t-98.5 47.5t-82 66.5t-55.5 86t-20.5 106v866q0 75 33.5 147t89 128.5t127 90.5t147.5 34q39 0 75 -7t71.5 -15.5t71 -15.5t73.5 -7t75.5 7.5t71.5 24.5q-3 -35 -12 -68.5t-20 -67.5t-22.5 -68t-19.5 -68q-12 -49 -19 -99.5t-13 -101.5
q-6 -17 -9.5 -35.5l-7 -37t-9.5 -35.5t-17 -31q-9 32 -18.5 70t-21.5 76.5t-28.5 74t-40 63t-56.5 44t-77 16.5q-22 0 -44 -9.5t-39.5 -25.5t-28.5 -37.5t-11 -46.5v-802zM510 20q-5 -6 -5.5 -14t-0.5 -16v-21q27 0 50 -10.5t39.5 -27.5t26 -39t9.5 -44q0 -37 -17 -70.5
t-46.5 -59t-70 -41t-87.5 -15.5q-37 0 -75 3.5t-70 19.5q17 35 25 74t11 79q23 -29 51.5 -51.5t71.5 -22.5q15 0 32.5 3t32.5 10.5t24.5 19t9.5 29.5q0 12 -6 20t-15 12.5t-19.5 6.5t-19.5 2q-25 0 -46.5 -4t-43.5 -4l10 110q0 14 -2 26.5t-8 24.5h139z" />
    <glyph glyph-name="Egrave" unicode="&#xc8;" horiz-adv-x="1018" 
d="M219 39q-27 0 -50 -4t-46.5 -8.5t-48 -8.5t-54.5 -4q60 198 82.5 401.5t22.5 411.5q0 195 -18 386.5t-66 373.5q22 0 42.5 -3.5t41 -7.5t42 -7.5t46.5 -3.5q42 0 80.5 7t76 15.5t75 15.5t77.5 7q33 0 63.5 -5.5t61.5 -12t63 -12t68 -5.5q30 0 55.5 5.5t49 12t47 12
t49.5 5.5q-14 -112 -30.5 -224t-16.5 -225q0 -35 2.5 -72.5t7.5 -72.5q-36 52 -72.5 113.5t-80.5 114.5t-99.5 88.5t-130.5 35.5q-18 0 -40 -2.5t-41.5 -10t-32.5 -20.5t-13 -35v-380l45 -5q38 0 70.5 11.5t62 29.5t55.5 39.5t52 40.5q0 -28 -4 -57.5t-8.5 -59.5t-8.5 -60.5
t-4 -61.5q0 -51 12 -102t21 -99q-33 0 -61 16.5t-56 36.5t-57 36.5t-64 16.5h-55v-378q0 -27 11.5 -43t29.5 -24t40.5 -10.5t43.5 -2.5q57 0 98 18.5t71 49t53.5 68.5t46 77.5t47.5 76.5t59 64q-2 -31 -3 -63t-1 -64q0 -127 16.5 -253t54.5 -247q-32 0 -61 10.5t-58 23.5
t-58.5 23.5t-61.5 10.5q-39 0 -75 -6t-72 -12.5t-73.5 -12.5t-78.5 -6q-35 0 -65.5 6t-59.5 12.5t-57.5 12.5t-59.5 6zM354 2070q23 0 51.5 -18t60 -46.5t65.5 -65.5t68.5 -75t69 -74t66.5 -63v-12q-42 10 -92.5 30.5t-101 47t-97.5 55.5t-83.5 57.5t-58.5 53t-22 40.5
q0 29 22.5 49.5t51.5 20.5z" />
    <glyph glyph-name="Eacute" unicode="&#xc9;" horiz-adv-x="1018" 
d="M219 39q-27 0 -50 -4t-46.5 -8.5t-48 -8.5t-54.5 -4q60 198 82.5 401.5t22.5 411.5q0 195 -18 386.5t-66 373.5q22 0 42.5 -3.5t41 -7.5t42 -7.5t46.5 -3.5q42 0 80.5 7t76 15.5t75 15.5t77.5 7q33 0 63.5 -5.5t61.5 -12t63 -12t68 -5.5q30 0 55.5 5.5t49 12t47 12
t49.5 5.5q-14 -112 -30.5 -224t-16.5 -225q0 -35 2.5 -72.5t7.5 -72.5q-36 52 -72.5 113.5t-80.5 114.5t-99.5 88.5t-130.5 35.5q-18 0 -40 -2.5t-41.5 -10t-32.5 -20.5t-13 -35v-380l45 -5q38 0 70.5 11.5t62 29.5t55.5 39.5t52 40.5q0 -28 -4 -57.5t-8.5 -59.5t-8.5 -60.5
t-4 -61.5q0 -51 12 -102t21 -99q-33 0 -61 16.5t-56 36.5t-57 36.5t-64 16.5h-55v-378q0 -27 11.5 -43t29.5 -24t40.5 -10.5t43.5 -2.5q57 0 98 18.5t71 49t53.5 68.5t46 77.5t47.5 76.5t59 64q-2 -31 -3 -63t-1 -64q0 -127 16.5 -253t54.5 -247q-32 0 -61 10.5t-58 23.5
t-58.5 23.5t-61.5 10.5q-39 0 -75 -6t-72 -12.5t-73.5 -12.5t-78.5 -6q-35 0 -65.5 6t-59.5 12.5t-57.5 12.5t-59.5 6zM661 2070q29 0 51.5 -20.5t22.5 -49.5q0 -16 -22 -40.5t-58 -53t-83 -57.5t-97.5 -55.5t-101 -47t-92.5 -30.5v12q32 27 66.5 63t68.5 74t68 75
t65.5 65.5t59.5 46.5t52 18z" />
    <glyph glyph-name="Ecircumflex" unicode="&#xca;" horiz-adv-x="1018" 
d="M219 39q-27 0 -50 -4t-46.5 -8.5t-48 -8.5t-54.5 -4q60 198 82.5 401.5t22.5 411.5q0 195 -18 386.5t-66 373.5q22 0 42.5 -3.5t41 -7.5t42 -7.5t46.5 -3.5q42 0 80.5 7t76 15.5t75 15.5t77.5 7q33 0 63.5 -5.5t61.5 -12t63 -12t68 -5.5q30 0 55.5 5.5t49 12t47 12
t49.5 5.5q-14 -112 -30.5 -224t-16.5 -225q0 -35 2.5 -72.5t7.5 -72.5q-36 52 -72.5 113.5t-80.5 114.5t-99.5 88.5t-130.5 35.5q-18 0 -40 -2.5t-41.5 -10t-32.5 -20.5t-13 -35v-380l45 -5q38 0 70.5 11.5t62 29.5t55.5 39.5t52 40.5q0 -28 -4 -57.5t-8.5 -59.5t-8.5 -60.5
t-4 -61.5q0 -51 12 -102t21 -99q-33 0 -61 16.5t-56 36.5t-57 36.5t-64 16.5h-55v-378q0 -27 11.5 -43t29.5 -24t40.5 -10.5t43.5 -2.5q57 0 98 18.5t71 49t53.5 68.5t46 77.5t47.5 76.5t59 64q-2 -31 -3 -63t-1 -64q0 -127 16.5 -253t54.5 -247q-32 0 -61 10.5t-58 23.5
t-58.5 23.5t-61.5 10.5q-39 0 -75 -6t-72 -12.5t-73.5 -12.5t-78.5 -6q-35 0 -65.5 6t-59.5 12.5t-57.5 12.5t-59.5 6zM495 1855q-18 0 -44 -16t-58 -39.5t-68 -51t-73 -51.5t-74 -40.5t-70 -16.5q31 37 65 85.5t69 100.5t69.5 102t67 89.5t61.5 63.5t53 24q30 0 60 -24
t61.5 -62.5t65 -88t69.5 -100t75 -98.5t83 -84q-43 0 -82.5 15t-75.5 38t-69.5 49.5t-64.5 49.5t-61 38.5t-59 16.5z" />
    <glyph glyph-name="Edieresis" unicode="&#xcb;" horiz-adv-x="1018" 
d="M219 39q-27 0 -50 -4t-46.5 -8.5t-48 -8.5t-54.5 -4q60 198 82.5 401.5t22.5 411.5q0 195 -18 386.5t-66 373.5q22 0 42.5 -3.5t41 -7.5t42 -7.5t46.5 -3.5q42 0 80.5 7t76 15.5t75 15.5t77.5 7q33 0 63.5 -5.5t61.5 -12t63 -12t68 -5.5q30 0 55.5 5.5t49 12t47 12
t49.5 5.5q-14 -112 -30.5 -224t-16.5 -225q0 -35 2.5 -72.5t7.5 -72.5q-36 52 -72.5 113.5t-80.5 114.5t-99.5 88.5t-130.5 35.5q-18 0 -40 -2.5t-41.5 -10t-32.5 -20.5t-13 -35v-380l45 -5q38 0 70.5 11.5t62 29.5t55.5 39.5t52 40.5q0 -28 -4 -57.5t-8.5 -59.5t-8.5 -60.5
t-4 -61.5q0 -51 12 -102t21 -99q-33 0 -61 16.5t-56 36.5t-57 36.5t-64 16.5h-55v-378q0 -27 11.5 -43t29.5 -24t40.5 -10.5t43.5 -2.5q57 0 98 18.5t71 49t53.5 68.5t46 77.5t47.5 76.5t59 64q-2 -31 -3 -63t-1 -64q0 -127 16.5 -253t54.5 -247q-32 0 -61 10.5t-58 23.5
t-58.5 23.5t-61.5 10.5q-39 0 -75 -6t-72 -12.5t-73.5 -12.5t-78.5 -6q-35 0 -65.5 6t-59.5 12.5t-57.5 12.5t-59.5 6zM189 1767q0 24 10 42.5t26.5 31t38 19.5t43.5 7q45 0 76 -22t31 -72q0 -48 -33 -73t-78 -25q-23 0 -43.5 5t-36.5 15.5t-25 28t-9 43.5zM594 1769
q0 51 31 74.5t78 23.5q21 0 43 -6.5t40 -19t30 -31t12 -43.5q0 -24 -11 -41.5t-28 -29t-37.5 -17.5t-40.5 -6q-22 0 -43 6t-37.5 18t-26.5 30t-10 42z" />
    <glyph glyph-name="Igrave" unicode="&#xcc;" horiz-adv-x="547" 
d="M113 1376q0 44 -15 82t-33.5 68.5t-34 53t-16.5 34.5q31 0 63 -8.5t63.5 -19t62.5 -19t61 -8.5q27 0 63 8.5t73 19t70.5 19t55.5 8.5q-1 -30 -14.5 -55.5t-29.5 -55.5t-29 -68.5t-13 -93.5l9 -1114q0 -32 13.5 -65.5t29.5 -65t29.5 -60t13.5 -50.5q-42 0 -78.5 7
t-72 15.5t-73 15.5t-82.5 7q-23 0 -46.5 -3.5t-48 -8t-49.5 -8t-52 -3.5q0 13 13.5 41t30 60.5t30.5 64.5t14 53zM119 2070q23 0 51.5 -18t60 -46.5t65.5 -65.5t68.5 -75t69 -74t66.5 -63v-12q-42 10 -92.5 30.5t-101 47t-97.5 55.5t-83.5 57.5t-58.5 53t-22 40.5
q0 29 22.5 49.5t51.5 20.5z" />
    <glyph glyph-name="Iacute" unicode="&#xcd;" horiz-adv-x="547" 
d="M113 1376q0 44 -15 82t-33.5 68.5t-34 53t-16.5 34.5q31 0 63 -8.5t63.5 -19t62.5 -19t61 -8.5q27 0 63 8.5t73 19t70.5 19t55.5 8.5q-1 -30 -14.5 -55.5t-29.5 -55.5t-29 -68.5t-13 -93.5l9 -1114q0 -32 13.5 -65.5t29.5 -65t29.5 -60t13.5 -50.5q-42 0 -78.5 7
t-72 15.5t-73 15.5t-82.5 7q-23 0 -46.5 -3.5t-48 -8t-49.5 -8t-52 -3.5q0 13 13.5 41t30 60.5t30.5 64.5t14 53zM426 2070q29 0 51.5 -20.5t22.5 -49.5q0 -16 -22 -40.5t-58 -53t-83 -57.5t-97.5 -55.5t-101 -47t-92.5 -30.5v12q32 27 66.5 63t68.5 74t68 75t65.5 65.5
t59.5 46.5t52 18z" />
    <glyph glyph-name="Icircumflex" unicode="&#xce;" horiz-adv-x="547" 
d="M113 1376q0 44 -15 82t-33.5 68.5t-34 53t-16.5 34.5q31 0 63 -8.5t63.5 -19t62.5 -19t61 -8.5q27 0 63 8.5t73 19t70.5 19t55.5 8.5q-1 -30 -14.5 -55.5t-29.5 -55.5t-29 -68.5t-13 -93.5l9 -1114q0 -32 13.5 -65.5t29.5 -65t29.5 -60t13.5 -50.5q-42 0 -78.5 7
t-72 15.5t-73 15.5t-82.5 7q-23 0 -46.5 -3.5t-48 -8t-49.5 -8t-52 -3.5q0 13 13.5 41t30 60.5t30.5 64.5t14 53zM263 1855q-18 0 -44 -16t-58 -39.5t-68 -51t-73 -51.5t-74 -40.5t-70 -16.5q31 37 65 85.5t69 100.5t69.5 102t67 89.5t61.5 63.5t53 24q30 0 60 -24
t61.5 -62.5t65 -88t69.5 -100t75 -98.5t83 -84q-43 0 -82.5 15t-75.5 38t-69.5 49.5t-64.5 49.5t-61 38.5t-59 16.5z" />
    <glyph glyph-name="Idieresis" unicode="&#xcf;" horiz-adv-x="547" 
d="M113 1376q0 44 -15 82t-33.5 68.5t-34 53t-16.5 34.5q31 0 63 -8.5t63.5 -19t62.5 -19t61 -8.5q27 0 63 8.5t73 19t70.5 19t55.5 8.5q-1 -30 -14.5 -55.5t-29.5 -55.5t-29 -68.5t-13 -93.5l9 -1114q0 -32 13.5 -65.5t29.5 -65t29.5 -60t13.5 -50.5q-42 0 -78.5 7
t-72 15.5t-73 15.5t-82.5 7q-23 0 -46.5 -3.5t-48 -8t-49.5 -8t-52 -3.5q0 13 13.5 41t30 60.5t30.5 64.5t14 53zM-44 1767q0 24 10 42.5t26.5 31t38 19.5t43.5 7q45 0 76 -22t31 -72q0 -48 -33 -73t-78 -25q-23 0 -43.5 5t-36.5 15.5t-25 28t-9 43.5zM361 1769
q0 51 31 74.5t78 23.5q21 0 43 -6.5t40 -19t30 -31t12 -43.5q0 -24 -11 -41.5t-28 -29t-37.5 -17.5t-40.5 -6q-22 0 -43 6t-37.5 18t-26.5 30t-10 42z" />
    <glyph glyph-name="Eth" unicode="&#xd0;" horiz-adv-x="1034" 
d="M260 45q-31 0 -60 -7t-57.5 -15.5t-57 -15.5t-58.5 -7q18 36 37.5 73t35 75t25.5 78t10 81v445q-29 -4 -47.5 -9.5t-31 -10t-20.5 -8t-16 -3.5q0 26 7.5 50t7.5 58q0 13 -2 27.5t-4 28t-4 24.5t-2 17q7 0 16 -4.5t21.5 -10.5t30.5 -12t44 -10v428q0 39 -12 82t-26 83
t-26 74.5t-12 57.5q26 0 51.5 -7.5t50.5 -16t50.5 -16t52.5 -7.5q39 0 75 7.5t70.5 16t69 16t70.5 7.5q110 0 187.5 -39t129.5 -104t81.5 -150.5t44.5 -177.5t18.5 -185t3.5 -174q0 -74 -4 -161t-18.5 -174t-42.5 -168t-75.5 -143.5t-118 -100t-169.5 -37.5q-42 0 -82 7
t-80 15.5t-81 15.5t-83 7zM453 887q35 1 57 5.5t36 9t23 8t19 3.5q0 -21 -6.5 -45t-6.5 -47q2 -25 4.5 -50t2.5 -42q-10 0 -19 3.5t-22.5 7.5t-34 8t-53.5 6v-482q12 -5 25 -6.5t26 -1.5q36 0 70.5 13t61.5 36.5t43.5 55t16.5 69.5v756q0 40 -15.5 70.5t-41 51.5t-58.5 31.5
t-67 10.5q-15 0 -30.5 -2.5t-30.5 -5.5v-463z" />
    <glyph glyph-name="Ntilde" unicode="&#xd1;" horiz-adv-x="1221" 
d="M106 1348q0 42 -13.5 75t-29.5 61t-29.5 51.5t-13.5 47.5q23 0 49.5 -5.5t54 -12t56 -12t56.5 -5.5q79 0 132 8.5t92 18.5t68 18.5t60 8.5q0 -13 -5.5 -29t-12 -33.5t-12 -37t-5.5 -38.5q0 -57 12 -123.5t32 -137.5t45.5 -145t52.5 -146.5t53 -142t47 -130.5v518
q0 84 -9 142t-22.5 98t-29 65.5t-29 45.5t-22.5 38.5t-9 44.5q29 0 63 -5t70 -11t72 -11t71 -5q31 0 61 8.5t58.5 19t57.5 19t59 8.5q0 -15 -9.5 -31t-23.5 -38t-30.5 -53.5t-30.5 -77.5t-23.5 -110t-9.5 -151v-889q0 -62 21.5 -107t48 -80t48 -63.5t21.5 -58.5
q-42 0 -82.5 13.5t-82 29.5t-85 29.5t-92.5 13.5q-35 0 -69 -6.5t-67.5 -15t-67 -15t-66.5 -6.5q-3 6 -3.5 11.5t-0.5 8.5q0 13 6 24.5t13.5 30t13.5 48.5t6 80q-32 94 -62 189t-61 189.5t-64 188t-72 184.5q0 -156 5 -313.5t8 -312.5q1 -46 21.5 -92.5t45 -90t44.5 -81.5
t20 -66q-33 0 -63 7.5t-58.5 16t-57 16t-59.5 7.5q-32 0 -62.5 -7.5t-60.5 -16t-61 -16t-64 -7.5q0 31 13.5 53.5t29.5 46t29.5 53t13.5 74.5v1125zM145 1689q-7 0 -11.5 8.5t-7.5 21t-4 26t-1 22.5q0 82 32 135t80 83.5t104.5 42t104.5 11.5t100.5 -18t103.5 -45
t99.5 -58.5t88.5 -58.5t70.5 -45t45.5 -18q31 0 51.5 21t33.5 53.5t18.5 70.5t5.5 72q8 16 18 16q5 0 9 -7.5t7 -19t4.5 -25.5t1.5 -26q0 -65 -20.5 -116.5t-53.5 -87.5t-75.5 -55t-87.5 -19q-53 0 -106.5 17t-106 43t-103 55.5t-97 55.5t-87.5 43t-74 17q-38 0 -62.5 -15.5
t-38.5 -41t-20 -58.5t-6 -67q0 -33 -16 -33z" />
    <glyph glyph-name="Ograve" unicode="&#xd2;" horiz-adv-x="913" 
d="M23 1161q0 113 37 198t97.5 141.5t139 85t162.5 28.5q85 0 163 -29t138 -87.5t95.5 -145.5t35.5 -203v-651q0 -108 -34.5 -199t-94 -157.5t-139.5 -104t-172 -37.5q-78 0 -153.5 24.5t-135.5 74.5t-98 125.5t-41 176.5v760zM565 1161q0 39 -8.5 67.5t-22.5 47t-32 28
t-37 9.5q-21 0 -43 -10.5t-40 -31.5t-29 -51.5t-11 -70.5v-715q5 -63 39.5 -94t75.5 -31q21 0 40.5 7.5t34.5 23.5t24 39t9 55v727zM303 2070q23 0 51.5 -18t60 -46.5t65.5 -65.5t68.5 -75t69 -74t66.5 -63v-12q-42 10 -92.5 30.5t-101 47t-97.5 55.5t-83.5 57.5t-58.5 53
t-22 40.5q0 29 22.5 49.5t51.5 20.5z" />
    <glyph glyph-name="Oacute" unicode="&#xd3;" horiz-adv-x="913" 
d="M23 1161q0 113 37 198t97.5 141.5t139 85t162.5 28.5q85 0 163 -29t138 -87.5t95.5 -145.5t35.5 -203v-651q0 -108 -34.5 -199t-94 -157.5t-139.5 -104t-172 -37.5q-78 0 -153.5 24.5t-135.5 74.5t-98 125.5t-41 176.5v760zM565 1161q0 39 -8.5 67.5t-22.5 47t-32 28
t-37 9.5q-21 0 -43 -10.5t-40 -31.5t-29 -51.5t-11 -70.5v-715q5 -63 39.5 -94t75.5 -31q21 0 40.5 7.5t34.5 23.5t24 39t9 55v727zM610 2070q29 0 51.5 -20.5t22.5 -49.5q0 -16 -22 -40.5t-58 -53t-83 -57.5t-97.5 -55.5t-101 -47t-92.5 -30.5v12q32 27 66.5 63t68.5 74
t68 75t65.5 65.5t59.5 46.5t52 18z" />
    <glyph glyph-name="Ocircumflex" unicode="&#xd4;" horiz-adv-x="913" 
d="M23 1161q0 113 37 198t97.5 141.5t139 85t162.5 28.5q85 0 163 -29t138 -87.5t95.5 -145.5t35.5 -203v-651q0 -108 -34.5 -199t-94 -157.5t-139.5 -104t-172 -37.5q-78 0 -153.5 24.5t-135.5 74.5t-98 125.5t-41 176.5v760zM565 1161q0 39 -8.5 67.5t-22.5 47t-32 28
t-37 9.5q-21 0 -43 -10.5t-40 -31.5t-29 -51.5t-11 -70.5v-715q5 -63 39.5 -94t75.5 -31q21 0 40.5 7.5t34.5 23.5t24 39t9 55v727zM444 1855q-18 0 -44 -16t-58 -39.5t-68 -51t-73 -51.5t-74 -40.5t-70 -16.5q31 37 65 85.5t69 100.5t69.5 102t67 89.5t61.5 63.5t53 24
q30 0 60 -24t61.5 -62.5t65 -88t69.5 -100t75 -98.5t83 -84q-43 0 -82.5 15t-75.5 38t-69.5 49.5t-64.5 49.5t-61 38.5t-59 16.5z" />
    <glyph glyph-name="Otilde" unicode="&#xd5;" horiz-adv-x="913" 
d="M23 1161q0 113 37 198t97.5 141.5t139 85t162.5 28.5q85 0 163 -29t138 -87.5t95.5 -145.5t35.5 -203v-651q0 -108 -34.5 -199t-94 -157.5t-139.5 -104t-172 -37.5q-78 0 -153.5 24.5t-135.5 74.5t-98 125.5t-41 176.5v760zM565 1161q0 39 -8.5 67.5t-22.5 47t-32 28
t-37 9.5q-21 0 -43 -10.5t-40 -31.5t-29 -51.5t-11 -70.5v-715q5 -63 39.5 -94t75.5 -31q21 0 40.5 7.5t34.5 23.5t24 39t9 55v727zM-7 1689q-7 0 -11.5 8.5t-7.5 21t-4 26t-1 22.5q0 82 32 135t80 83.5t104.5 42t104.5 11.5t100.5 -18t103.5 -45t99.5 -58.5t88.5 -58.5
t70.5 -45t45.5 -18q31 0 51.5 21t33.5 53.5t18.5 70.5t5.5 72q8 16 18 16q5 0 9 -7.5t7 -19t4.5 -25.5t1.5 -26q0 -65 -20.5 -116.5t-53.5 -87.5t-75.5 -55t-87.5 -19q-53 0 -106.5 17t-106 43t-103 55.5t-97 55.5t-87.5 43t-74 17q-38 0 -62.5 -15.5t-38.5 -41t-20 -58.5
t-6 -67q0 -33 -16 -33z" />
    <glyph glyph-name="Odieresis" unicode="&#xd6;" horiz-adv-x="913" 
d="M23 1161q0 113 37 198t97.5 141.5t139 85t162.5 28.5q85 0 163 -29t138 -87.5t95.5 -145.5t35.5 -203v-651q0 -108 -34.5 -199t-94 -157.5t-139.5 -104t-172 -37.5q-78 0 -153.5 24.5t-135.5 74.5t-98 125.5t-41 176.5v760zM565 1161q0 39 -8.5 67.5t-22.5 47t-32 28
t-37 9.5q-21 0 -43 -10.5t-40 -31.5t-29 -51.5t-11 -70.5v-715q5 -63 39.5 -94t75.5 -31q21 0 40.5 7.5t34.5 23.5t24 39t9 55v727zM138 1767q0 24 10 42.5t26.5 31t38 19.5t43.5 7q45 0 76 -22t31 -72q0 -48 -33 -73t-78 -25q-23 0 -43.5 5t-36.5 15.5t-25 28t-9 43.5z
M543 1769q0 51 31 74.5t78 23.5q21 0 43 -6.5t40 -19t30 -31t12 -43.5q0 -24 -11 -41.5t-28 -29t-37.5 -17.5t-40.5 -6q-22 0 -43 6t-37.5 18t-26.5 30t-10 42z" />
    <glyph glyph-name="multiply" unicode="&#xd7;" horiz-adv-x="1038" 
d="M727 956q14 14 23 34t15.5 40.5t12.5 38.5t13 27q13 -8 21 -19.5t15 -25t13.5 -27t15.5 -25.5q35 -44 80 -78t88 -69q-11 -10 -27 -18t-35 -16t-39.5 -19t-39.5 -27q-39 -29 -66.5 -52t-46.5 -40q-17 -17 -36.5 -37t-39.5 -43l195 -192q15 -12 32.5 -20t35.5 -16
t34.5 -17t30.5 -21q-37 -13 -69 -36.5t-60 -49.5q-34 -32 -59.5 -69t-53.5 -73q-18 44 -40.5 86t-51.5 80q-18 25 -36 46.5t-36.5 41t-39 38.5t-44.5 40q-8 -8 -29 -28.5t-45.5 -44.5t-46 -45.5t-28.5 -30.5l-2 -2q-31 -48 -55 -100t-52 -103q-13 12 -22.5 26.5t-17.5 30
t-16.5 31.5t-18.5 31q-17 24 -39.5 41.5t-46 34t-46 34t-40.5 41.5q25 14 52 25t53.5 22.5t52 25.5t46.5 34q8 7 28.5 27t43 42t42.5 42t26 28q-39 48 -78.5 85.5t-87.5 72.5q-44 32 -92.5 58t-98.5 46q19 21 43.5 36.5t50 30.5t49.5 31.5t42 38.5q20 29 39 58.5t36 60.5
q22 -20 34.5 -46.5t22.5 -54.5t21 -55t31 -49q7 -9 28.5 -30.5l45.5 -45.5l45.5 -45.5l29.5 -29.5z" />
    <glyph glyph-name="Oslash" unicode="&#xd8;" horiz-adv-x="1034" 
d="M303 61q-9 -25 -14.5 -50t-10.5 -50.5t-11 -53t-17 -57.5q-28 19 -56 33.5t-57 26.5t-59.5 23.5t-63.5 23.5q48 57 89.5 117.5t66.5 138.5q-44 92 -59 193v747q0 90 36.5 173t98 146.5t143 102t172.5 39.5q50 0 99.5 -13t91.5 -40q9 18 14.5 39t10.5 42t10 41t14 37l10 2
q16 0 29.5 -8t26.5 -18t26.5 -19t28.5 -10q21 0 47 -5t49 -17q-35 -59 -68.5 -120t-58.5 -124q35 -54 54.5 -121t19.5 -135v-643q0 -100 -35 -191t-95.5 -160.5t-142 -111t-174.5 -41.5q-54 0 -108 15.5t-107 47.5zM686 961q-60 -147 -122 -293t-122 -295q31 -64 78 -64
q29 0 58.5 20t53.5 50.5t39 66.5t15 68v447zM379 649l244 602v9q0 13 -8.5 23t-21 17t-27 11t-27.5 4q-48 0 -79 -20t-49 -54t-25 -79.5t-7 -96.5v-27v-389z" />
    <glyph glyph-name="Ugrave" unicode="&#xd9;" horiz-adv-x="1042" 
d="M82 1450q0 40 -9.5 65.5t-21.5 44t-21.5 33.5t-9.5 33q26 0 56 -5.5t65 -12t75 -12t87 -5.5q30 0 53.5 3.5t43.5 8t39.5 8t41.5 3.5q0 -16 -11.5 -33t-26 -41t-26 -59t-11.5 -86v-1010q0 -21 12 -38t30.5 -29t42.5 -18.5t48 -6.5q27 0 52.5 8.5t44.5 24t30.5 39
t11.5 53.5v1009q0 26 -10.5 50t-22.5 47t-22.5 46.5t-10.5 49.5q44 0 87 -9t89 -9q31 0 61 3.5t59.5 8t58 8.5t57.5 4q0 -25 -13.5 -50t-29.5 -58.5t-29.5 -79t-13.5 -111.5v-987q0 -52 -26 -111.5t-78.5 -110.5t-131.5 -84.5t-184 -33.5q-109 0 -191 38.5t-136.5 95.5
t-81.5 121.5t-27 117.5v1077zM367 2070q23 0 51.5 -18t60 -46.5t65.5 -65.5t68.5 -75t69 -74t66.5 -63v-12q-42 10 -92.5 30.5t-101 47t-97.5 55.5t-83.5 57.5t-58.5 53t-22 40.5q0 29 22.5 49.5t51.5 20.5z" />
    <glyph glyph-name="Uacute" unicode="&#xda;" horiz-adv-x="1042" 
d="M82 1450q0 40 -9.5 65.5t-21.5 44t-21.5 33.5t-9.5 33q26 0 56 -5.5t65 -12t75 -12t87 -5.5q30 0 53.5 3.5t43.5 8t39.5 8t41.5 3.5q0 -16 -11.5 -33t-26 -41t-26 -59t-11.5 -86v-1010q0 -21 12 -38t30.5 -29t42.5 -18.5t48 -6.5q27 0 52.5 8.5t44.5 24t30.5 39
t11.5 53.5v1009q0 26 -10.5 50t-22.5 47t-22.5 46.5t-10.5 49.5q44 0 87 -9t89 -9q31 0 61 3.5t59.5 8t58 8.5t57.5 4q0 -25 -13.5 -50t-29.5 -58.5t-29.5 -79t-13.5 -111.5v-987q0 -52 -26 -111.5t-78.5 -110.5t-131.5 -84.5t-184 -33.5q-109 0 -191 38.5t-136.5 95.5
t-81.5 121.5t-27 117.5v1077zM673 2070q29 0 51.5 -20.5t22.5 -49.5q0 -16 -22 -40.5t-58 -53t-83 -57.5t-97.5 -55.5t-101 -47t-92.5 -30.5v12q32 27 66.5 63t68.5 74t68 75t65.5 65.5t59.5 46.5t52 18z" />
    <glyph glyph-name="Ucircumflex" unicode="&#xdb;" horiz-adv-x="1042" 
d="M82 1450q0 40 -9.5 65.5t-21.5 44t-21.5 33.5t-9.5 33q26 0 56 -5.5t65 -12t75 -12t87 -5.5q30 0 53.5 3.5t43.5 8t39.5 8t41.5 3.5q0 -16 -11.5 -33t-26 -41t-26 -59t-11.5 -86v-1010q0 -21 12 -38t30.5 -29t42.5 -18.5t48 -6.5q27 0 52.5 8.5t44.5 24t30.5 39
t11.5 53.5v1009q0 26 -10.5 50t-22.5 47t-22.5 46.5t-10.5 49.5q44 0 87 -9t89 -9q31 0 61 3.5t59.5 8t58 8.5t57.5 4q0 -25 -13.5 -50t-29.5 -58.5t-29.5 -79t-13.5 -111.5v-987q0 -52 -26 -111.5t-78.5 -110.5t-131.5 -84.5t-184 -33.5q-109 0 -191 38.5t-136.5 95.5
t-81.5 121.5t-27 117.5v1077zM508 1855q-18 0 -44 -16t-58 -39.5t-68 -51t-73 -51.5t-74 -40.5t-70 -16.5q31 37 65 85.5t69 100.5t69.5 102t67 89.5t61.5 63.5t53 24q30 0 60 -24t61.5 -62.5t65 -88t69.5 -100t75 -98.5t83 -84q-43 0 -82.5 15t-75.5 38t-69.5 49.5
t-64.5 49.5t-61 38.5t-59 16.5z" />
    <glyph glyph-name="Udieresis" unicode="&#xdc;" horiz-adv-x="1042" 
d="M82 1450q0 40 -9.5 65.5t-21.5 44t-21.5 33.5t-9.5 33q26 0 56 -5.5t65 -12t75 -12t87 -5.5q30 0 53.5 3.5t43.5 8t39.5 8t41.5 3.5q0 -16 -11.5 -33t-26 -41t-26 -59t-11.5 -86v-1010q0 -21 12 -38t30.5 -29t42.5 -18.5t48 -6.5q27 0 52.5 8.5t44.5 24t30.5 39
t11.5 53.5v1009q0 26 -10.5 50t-22.5 47t-22.5 46.5t-10.5 49.5q44 0 87 -9t89 -9q31 0 61 3.5t59.5 8t58 8.5t57.5 4q0 -25 -13.5 -50t-29.5 -58.5t-29.5 -79t-13.5 -111.5v-987q0 -52 -26 -111.5t-78.5 -110.5t-131.5 -84.5t-184 -33.5q-109 0 -191 38.5t-136.5 95.5
t-81.5 121.5t-27 117.5v1077zM201 1767q0 24 10 42.5t26.5 31t38 19.5t43.5 7q45 0 76 -22t31 -72q0 -48 -33 -73t-78 -25q-23 0 -43.5 5t-36.5 15.5t-25 28t-9 43.5zM606 1769q0 51 31 74.5t78 23.5q21 0 43 -6.5t40 -19t30 -31t12 -43.5q0 -24 -11 -41.5t-28 -29
t-37.5 -17.5t-40.5 -6q-22 0 -43 6t-37.5 18t-26.5 30t-10 42z" />
    <glyph glyph-name="Yacute" unicode="&#xdd;" horiz-adv-x="1108" 
d="M383 719q0 14 -16.5 66.5t-45 129t-65.5 170t-78.5 189t-84 186.5t-81.5 162q31 0 61 -6t60 -12.5t61 -12.5t64 -6q32 0 59 5.5t51 12t46.5 12t46.5 5.5q-1 -18 -5 -33.5t-9 -31t-9 -31t-4 -33.5q0 -33 14.5 -82t35 -104.5t43.5 -113.5t40 -108q17 57 41 116.5t46 117.5
t37.5 112.5t15.5 102.5q0 15 -6 26t-12.5 20.5t-12.5 19t-6 22.5q29 0 56 -7t53.5 -15.5t54 -15.5t59.5 -7q29 0 55 3.5t51 7.5t49 7.5t50 3.5q-46 -69 -94 -158t-92.5 -185t-84 -190t-68.5 -173t-46 -134.5t-17 -72.5v-457q0 -52 20.5 -90.5t45 -65.5t45 -44t20.5 -27
q-38 0 -75.5 6.5t-75 15t-76 15t-80.5 6.5q-31 0 -61.5 -5t-61 -10.5t-62 -10.5t-63.5 -5q0 20 17.5 52t38 69.5t38 79t17.5 80.5v426zM706 2070q29 0 51.5 -20.5t22.5 -49.5q0 -16 -22 -40.5t-58 -53t-83 -57.5t-97.5 -55.5t-101 -47t-92.5 -30.5v12q32 27 66.5 63t68.5 74
t68 75t65.5 65.5t59.5 46.5t52 18z" />
    <glyph glyph-name="Thorn" unicode="&#xde;" horiz-adv-x="907" 
d="M39 -4q0 16 11 35t24.5 44.5t25 60.5t11.5 83v1172q0 56 -14 93t-31.5 62.5t-31.5 43t-14 32.5q31 0 61.5 -6.5t60.5 -14t59.5 -14t60.5 -6.5q24 0 47.5 6.5t46.5 14t46.5 14t46.5 6.5q0 -22 -11 -43.5t-24 -46t-24 -54t-11 -67.5v-143h33l6 -2h155q81 0 142 -39
t102.5 -102.5t62.5 -144t21 -163.5q0 -79 -19.5 -154.5t-59 -134t-100.5 -94t-144 -35.5h-199v-249q0 -36 11.5 -61t25.5 -43.5t25.5 -35t11.5 -35.5q-37 0 -70 6t-64.5 13.5t-63.5 13.5t-67 6zM418 1032q-9 0 -19.5 -0.5t-19.5 -3.5v-428h18q45 0 82 19.5t64 51.5t42 72.5
t15 81.5q0 40 -13.5 77.5t-37.5 66t-57.5 46t-73.5 17.5z" />
    <glyph glyph-name="uni00DF" unicode="&#xdf;" horiz-adv-x="1550" 
d="M20 10q0 23 15.5 40t34 40.5t34 60t15.5 99.5v993q0 61 23 126.5t64 120t97 89.5t121 35h395q61 0 119.5 -24.5t104.5 -67t74 -101t28 -127.5q0 -67 -19 -113.5t-47 -80.5t-61 -59.5t-61 -48.5t-47 -48t-19 -59q0 -38 27.5 -60.5t73 -36.5t103.5 -24.5t118.5 -25.5
t118.5 -38.5t103.5 -64t73 -102t27.5 -152.5q0 -82 -36 -152t-95 -121t-134.5 -79.5t-154.5 -28.5q-50 0 -97.5 7t-95 15.5t-96 15.5t-100.5 7q-24 0 -43 -4t-36.5 -8.5t-35.5 -8.5t-39 -4q0 30 5.5 57.5t12 54.5t12 56t5.5 62q0 43 -3 83t-7 79t-7 77t-3 78
q51 -59 108.5 -116t123 -101.5t140.5 -72t160 -27.5q23 0 40 10.5t28 27t16.5 36.5t5.5 38q0 57 -27 91.5t-70.5 56.5t-100 35t-115 27.5t-114.5 34.5t-99.5 55t-70.5 89.5t-27 137.5q0 60 19 104t47 76.5t61 57t61 46t47 43.5t19 50q0 27 -17 42.5t-41.5 22.5t-52.5 8.5
t-49 1.5q-35 0 -77.5 -3.5t-80 -17t-63 -40t-25.5 -72.5v-1069q0 -21 2.5 -35t5 -26t5 -23t2.5 -26q-16 0 -37 1.5t-52.5 3.5t-76.5 3.5t-109 1.5q-17 0 -36.5 -4.5t-39.5 -10t-40 -10t-38 -4.5z" />
    <glyph glyph-name="agrave" unicode="&#xe0;" 
d="M655 23q0 18 4 35.5t9.5 35t9.5 34.5t4 34q0 25 -12 49h-271q-14 -32 -14 -66q0 -40 20 -78t58 -67q-6 -2 -13 -2h-12q-30 0 -59.5 5t-58.5 11.5t-58.5 11.5t-60.5 5q-26 0 -49 -3.5t-45.5 -8t-45 -8t-45.5 -3.5h-4q44 22 79 82.5t65 146t56 188t52 209t53.5 209
t59.5 187.5q0 13 -5.5 24.5t-12 23.5t-12 24.5t-5.5 27.5q32 0 61 -5.5t57.5 -11.5t57.5 -11.5t62 -5.5q34 0 63.5 5t58.5 11t58 11t61 5q0 -19 -6 -35.5t-12.5 -33t-12.5 -34.5t-6 -40q28 -81 55 -180.5t54 -203.5t53.5 -204t54.5 -181.5t57 -137.5t60 -70q-33 0 -68.5 3.5
t-72 8t-73.5 8t-73 3.5q-45 0 -86.5 -4t-89.5 -4zM428 354h205l-98 369zM412 1583q23 0 51.5 -18t60 -46.5t65.5 -65.5t68.5 -75t69 -74t66.5 -63v-12q-42 10 -92.5 30.5t-101 47t-97.5 55.5t-83.5 57.5t-58.5 53t-22 40.5q0 29 22.5 49.5t51.5 20.5z" />
    <glyph glyph-name="aacute" unicode="&#xe1;" 
d="M655 23q0 18 4 35.5t9.5 35t9.5 34.5t4 34q0 25 -12 49h-271q-14 -32 -14 -66q0 -40 20 -78t58 -67q-6 -2 -13 -2h-12q-30 0 -59.5 5t-58.5 11.5t-58.5 11.5t-60.5 5q-26 0 -49 -3.5t-45.5 -8t-45 -8t-45.5 -3.5h-4q44 22 79 82.5t65 146t56 188t52 209t53.5 209
t59.5 187.5q0 13 -5.5 24.5t-12 23.5t-12 24.5t-5.5 27.5q32 0 61 -5.5t57.5 -11.5t57.5 -11.5t62 -5.5q34 0 63.5 5t58.5 11t58 11t61 5q0 -19 -6 -35.5t-12.5 -33t-12.5 -34.5t-6 -40q28 -81 55 -180.5t54 -203.5t53.5 -204t54.5 -181.5t57 -137.5t60 -70q-33 0 -68.5 3.5
t-72 8t-73.5 8t-73 3.5q-45 0 -86.5 -4t-89.5 -4zM428 354h205l-98 369zM718 1583q29 0 51.5 -20.5t22.5 -49.5q0 -16 -22 -40.5t-58 -53t-83 -57.5t-97.5 -55.5t-101 -47t-92.5 -30.5v12q32 27 66.5 63t68.5 74t68 75t65.5 65.5t59.5 46.5t52 18z" />
    <glyph glyph-name="acircumflex" unicode="&#xe2;" 
d="M655 23q0 18 4 35.5t9.5 35t9.5 34.5t4 34q0 25 -12 49h-271q-14 -32 -14 -66q0 -40 20 -78t58 -67q-6 -2 -13 -2h-12q-30 0 -59.5 5t-58.5 11.5t-58.5 11.5t-60.5 5q-26 0 -49 -3.5t-45.5 -8t-45 -8t-45.5 -3.5h-4q44 22 79 82.5t65 146t56 188t52 209t53.5 209
t59.5 187.5q0 13 -5.5 24.5t-12 23.5t-12 24.5t-5.5 27.5q32 0 61 -5.5t57.5 -11.5t57.5 -11.5t62 -5.5q34 0 63.5 5t58.5 11t58 11t61 5q0 -19 -6 -35.5t-12.5 -33t-12.5 -34.5t-6 -40q28 -81 55 -180.5t54 -203.5t53.5 -204t54.5 -181.5t57 -137.5t60 -70q-33 0 -68.5 3.5
t-72 8t-73.5 8t-73 3.5q-45 0 -86.5 -4t-89.5 -4zM428 354h205l-98 369zM553 1368q-18 0 -44 -16t-58 -39.5t-68 -51t-73 -51.5t-74 -40.5t-70 -16.5q31 37 65 85.5t69 100.5t69.5 102t67 89.5t61.5 63.5t53 24q30 0 60 -24t61.5 -62.5t65 -88t69.5 -100t75 -98.5t83 -84
q-43 0 -82.5 15t-75.5 38t-69.5 49.5t-64.5 49.5t-61 38.5t-59 16.5z" />
    <glyph glyph-name="atilde" unicode="&#xe3;" 
d="M655 23q0 18 4 35.5t9.5 35t9.5 34.5t4 34q0 25 -12 49h-271q-14 -32 -14 -66q0 -40 20 -78t58 -67q-6 -2 -13 -2h-12q-30 0 -59.5 5t-58.5 11.5t-58.5 11.5t-60.5 5q-26 0 -49 -3.5t-45.5 -8t-45 -8t-45.5 -3.5h-4q44 22 79 82.5t65 146t56 188t52 209t53.5 209
t59.5 187.5q0 13 -5.5 24.5t-12 23.5t-12 24.5t-5.5 27.5q32 0 61 -5.5t57.5 -11.5t57.5 -11.5t62 -5.5q34 0 63.5 5t58.5 11t58 11t61 5q0 -19 -6 -35.5t-12.5 -33t-12.5 -34.5t-6 -40q28 -81 55 -180.5t54 -203.5t53.5 -204t54.5 -181.5t57 -137.5t60 -70q-33 0 -68.5 3.5
t-72 8t-73.5 8t-73 3.5q-45 0 -86.5 -4t-89.5 -4zM428 354h205l-98 369zM100 1202q-7 0 -11.5 8.5t-7.5 21t-4 26t-1 22.5q0 82 32 135t80 83.5t104.5 42t104.5 11.5t100.5 -18t103.5 -45t99.5 -58.5t88.5 -58.5t70.5 -45t45.5 -18q31 0 51.5 21t33.5 53.5t18.5 70.5t5.5 72
q8 16 18 16q5 0 9 -7.5t7 -19t4.5 -25.5t1.5 -26q0 -65 -20.5 -116.5t-53.5 -87.5t-75.5 -55t-87.5 -19q-53 0 -106.5 17t-106 43t-103 55.5t-97 55.5t-87.5 43t-74 17q-38 0 -62.5 -15.5t-38.5 -41t-20 -58.5t-6 -67q0 -33 -16 -33z" />
    <glyph glyph-name="adieresis" unicode="&#xe4;" 
d="M655 23q0 18 4 35.5t9.5 35t9.5 34.5t4 34q0 25 -12 49h-271q-14 -32 -14 -66q0 -40 20 -78t58 -67q-6 -2 -13 -2h-12q-30 0 -59.5 5t-58.5 11.5t-58.5 11.5t-60.5 5q-26 0 -49 -3.5t-45.5 -8t-45 -8t-45.5 -3.5h-4q44 22 79 82.5t65 146t56 188t52 209t53.5 209
t59.5 187.5q0 13 -5.5 24.5t-12 23.5t-12 24.5t-5.5 27.5q32 0 61 -5.5t57.5 -11.5t57.5 -11.5t62 -5.5q34 0 63.5 5t58.5 11t58 11t61 5q0 -19 -6 -35.5t-12.5 -33t-12.5 -34.5t-6 -40q28 -81 55 -180.5t54 -203.5t53.5 -204t54.5 -181.5t57 -137.5t60 -70q-33 0 -68.5 3.5
t-72 8t-73.5 8t-73 3.5q-45 0 -86.5 -4t-89.5 -4zM428 354h205l-98 369zM246 1280q0 24 10 42.5t26.5 31t38 19.5t43.5 7q45 0 76 -22t31 -72q0 -48 -33 -73t-78 -25q-23 0 -43.5 5t-36.5 15.5t-25 28t-9 43.5zM651 1282q0 51 31 74.5t78 23.5q21 0 43 -6.5t40 -19t30 -31
t12 -43.5q0 -24 -11 -41.5t-28 -29t-37.5 -17.5t-40.5 -6q-22 0 -43 6t-37.5 18t-26.5 30t-10 42z" />
    <glyph glyph-name="aring" unicode="&#xe5;" 
d="M655 23q0 18 4 35.5t9.5 35t9.5 34.5t4 34q0 25 -12 49h-271q-14 -32 -14 -66q0 -40 20 -78t58 -67q-6 -2 -13 -2h-12q-30 0 -59.5 5t-58.5 11.5t-58.5 11.5t-60.5 5q-26 0 -49 -3.5t-45.5 -8t-45 -8t-45.5 -3.5h-4q44 22 79 82.5t65 146t56 188t52 209t53.5 209
t59.5 187.5q0 13 -5.5 24.5t-12 23.5t-12 24.5t-5.5 27.5q32 0 61 -5.5t57.5 -11.5t57.5 -11.5t62 -5.5q34 0 63.5 5t58.5 11t58 11t61 5q0 -19 -6 -35.5t-12.5 -33t-12.5 -34.5t-6 -40q28 -81 55 -180.5t54 -203.5t53.5 -204t54.5 -181.5t57 -137.5t60 -70q-33 0 -68.5 3.5
t-72 8t-73.5 8t-73 3.5q-45 0 -86.5 -4t-89.5 -4zM428 354h205l-98 369zM417 1307q0 32 11 59t30.5 46.5t47 30.5t59.5 11q31 0 58 -10.5t47 -29.5t31 -46t11 -59q0 -30 -12 -57t-32.5 -48t-47.5 -33t-57 -12q-32 0 -58.5 11.5t-46 31t-30.5 46.5t-11 59zM503 1313
q0 -32 17 -50t51 -18q23 0 39 19t16 41q0 32 -13.5 47.5t-45.5 15.5q-23 0 -43.5 -15t-20.5 -40z" />
    <glyph glyph-name="ae" unicode="&#xe6;" horiz-adv-x="1753" 
d="M268 45q-36 0 -68.5 -3.5t-63.5 -7.5t-62 -7.5t-64 -3.5l152 149l483 754q14 26 23.5 55.5t9.5 58.5q0 13 -6 24t-13.5 21.5t-13.5 21t-6 23.5q32 0 63 -5.5t62.5 -11.5t63 -11.5t65.5 -5.5q46 0 90.5 3.5t88 8t87 8.5t88.5 4q32 0 63 -4.5t62.5 -10.5t64.5 -10.5
t68 -4.5q28 0 53 5.5t50 12.5t49.5 12.5t50.5 5.5q0 -31 -9.5 -62.5t-21 -64t-21 -65.5t-9.5 -66q0 -21 3 -40t6 -37t6 -36.5t3 -39.5q-34 37 -70.5 79.5t-81.5 77.5t-101 58.5t-128 23.5q-20 0 -40.5 -2t-37 -8t-27 -16t-10.5 -25v-254q13 -2 23 -2h20q34 0 63.5 8.5
t56.5 21.5t53 27t55 25q5 -8 7.5 -15.5t2.5 -17.5q0 -16 -5 -33t-11.5 -34.5t-11.5 -35t-5 -34.5q0 -18 5 -33t11.5 -29t11.5 -28.5t5 -30.5v-16q-29 11 -57.5 24.5t-58 25.5t-61 20t-65.5 8q-12 0 -23.5 -1t-25.5 -3v-240q0 -18 9.5 -30.5t26 -21t38 -12.5t45.5 -4
q62 0 110.5 18t86 44.5t66 57.5t50.5 57.5t39.5 44.5t34.5 18q-5 -35 -8.5 -71.5t-3.5 -71.5q0 -75 16 -147t60 -138q-30 0 -59 7t-58 15.5t-58.5 15.5t-60.5 7q-39 0 -76.5 -3.5t-75 -7.5t-75.5 -7.5t-78 -3.5q-31 0 -60.5 3.5t-59.5 7.5t-60.5 7.5t-61.5 3.5q-51 0 -98 -7
t-96 -7q10 22 23 42.5t24 42t18.5 46t7.5 55.5h-311q-25 -11 -36 -28.5t-11 -38.5q0 -17 7 -35.5t19.5 -35.5t29.5 -31.5t36 -24.5q-38 0 -74.5 3.5t-72.5 7.5t-72 7.5t-72 3.5zM588 369h280v456z" />
    <glyph glyph-name="ccedilla" unicode="&#xe7;" horiz-adv-x="891" 
d="M344 285q0 -22 16 -38.5t40 -28t53 -17.5t55 -6q38 0 72.5 11t60.5 30t41.5 43.5t15.5 50.5q0 15 -5.5 27.5t-11.5 25.5t-11.5 25.5t-5.5 27.5t22 15q47 0 81.5 -17.5t57.5 -44.5t34 -59t11 -60q0 -54 -30.5 -102.5t-82.5 -86t-121 -59.5t-147 -22q-50 0 -104 6.5
t-105.5 20t-98.5 33.5t-82 47t-55.5 60.5t-20.5 74.5v606q0 52 33.5 102t89 89t127 63t147.5 24q39 0 75 -4.5t71.5 -10.5t71 -10.5t73.5 -4.5t75.5 5t71.5 17q-3 -24 -12 -48t-20 -47.5t-22.5 -47t-19.5 -47.5q-12 -34 -19 -70t-13 -72q-6 -11 -9.5 -24l-7 -26t-9.5 -25
t-17 -21q-14 34 -28.5 75.5t-39.5 78t-66 61.5t-108 25q-22 0 -44 -6.5t-39.5 -17.5t-28.5 -26t-11 -32v-563zM510 20q-5 -6 -5.5 -14t-0.5 -16v-21q27 0 50 -10.5t39.5 -27.5t26 -39t9.5 -44q0 -37 -17 -70.5t-46.5 -59t-70 -41t-87.5 -15.5q-37 0 -75 3.5t-70 19.5
q17 35 25 74t11 79q23 -29 51.5 -51.5t71.5 -22.5q15 0 32.5 3t32.5 10.5t24.5 19t9.5 29.5q0 12 -6 20t-15 12.5t-19.5 6.5t-19.5 2q-25 0 -46.5 -4t-43.5 -4l10 110q0 14 -2 26.5t-8 24.5h139z" />
    <glyph glyph-name="egrave" unicode="&#xe8;" horiz-adv-x="1018" 
d="M217 45q-26 0 -49 -2t-46 -5t-47.5 -5t-54.5 -2q60 134 82.5 274.5t22.5 284.5q0 133 -18 264t-66 256q44 0 83 -7t87 -7q42 0 80.5 4.5t76 10.5t74.5 10.5t76 4.5q33 0 63.5 -4t61.5 -8.5t63 -8t68 -3.5q29 0 54 3.5t48.5 8t47 8.5t49.5 4q-14 -75 -30.5 -152
t-16.5 -155q0 -25 2.5 -50t7.5 -50q-36 36 -72 78.5t-80 78.5t-99 60.5t-130 24.5q-18 0 -39.5 -1.5t-40.5 -6.5t-32 -14t-13 -24v-262l45 -4q37 0 69 8t61 20t55.5 27t52.5 29q0 -19 -4 -39t-8.5 -41t-8.5 -42.5t-4 -43.5q0 -34 12 -69.5t21 -67.5q-33 0 -61.5 11.5
t-56 25.5t-56 25.5t-62.5 11.5h-55v-262q0 -18 11.5 -28.5t29.5 -16t39.5 -7.5t42.5 -2q57 0 98 13t71 33.5t53.5 47t45.5 53.5t47 52.5t58 44.5q-2 -22 -3 -44t-1 -44q0 -88 16.5 -174t54.5 -170q-32 0 -61 7t-57.5 15.5t-58 15.5t-60.5 7q-39 0 -75 -3.5t-72 -7.5
t-73 -7.5t-77 -3.5q-35 0 -65.5 3.5t-59.5 7.5t-57.5 7.5t-59.5 3.5zM354 1583q23 0 51.5 -18t60 -46.5t65.5 -65.5t68.5 -75t69 -74t66.5 -63v-12q-42 10 -92.5 30.5t-101 47t-97.5 55.5t-83.5 57.5t-58.5 53t-22 40.5q0 29 22.5 49.5t51.5 20.5z" />
    <glyph glyph-name="eacute" unicode="&#xe9;" horiz-adv-x="1018" 
d="M217 45q-26 0 -49 -2t-46 -5t-47.5 -5t-54.5 -2q60 134 82.5 274.5t22.5 284.5q0 133 -18 264t-66 256q44 0 83 -7t87 -7q42 0 80.5 4.5t76 10.5t74.5 10.5t76 4.5q33 0 63.5 -4t61.5 -8.5t63 -8t68 -3.5q29 0 54 3.5t48.5 8t47 8.5t49.5 4q-14 -75 -30.5 -152
t-16.5 -155q0 -25 2.5 -50t7.5 -50q-36 36 -72 78.5t-80 78.5t-99 60.5t-130 24.5q-18 0 -39.5 -1.5t-40.5 -6.5t-32 -14t-13 -24v-262l45 -4q37 0 69 8t61 20t55.5 27t52.5 29q0 -19 -4 -39t-8.5 -41t-8.5 -42.5t-4 -43.5q0 -34 12 -69.5t21 -67.5q-33 0 -61.5 11.5
t-56 25.5t-56 25.5t-62.5 11.5h-55v-262q0 -18 11.5 -28.5t29.5 -16t39.5 -7.5t42.5 -2q57 0 98 13t71 33.5t53.5 47t45.5 53.5t47 52.5t58 44.5q-2 -22 -3 -44t-1 -44q0 -88 16.5 -174t54.5 -170q-32 0 -61 7t-57.5 15.5t-58 15.5t-60.5 7q-39 0 -75 -3.5t-72 -7.5
t-73 -7.5t-77 -3.5q-35 0 -65.5 3.5t-59.5 7.5t-57.5 7.5t-59.5 3.5zM661 1583q29 0 51.5 -20.5t22.5 -49.5q0 -16 -22 -40.5t-58 -53t-83 -57.5t-97.5 -55.5t-101 -47t-92.5 -30.5v12q32 27 66.5 63t68.5 74t68 75t65.5 65.5t59.5 46.5t52 18z" />
    <glyph glyph-name="ecircumflex" unicode="&#xea;" horiz-adv-x="1018" 
d="M217 45q-26 0 -49 -2t-46 -5t-47.5 -5t-54.5 -2q60 134 82.5 274.5t22.5 284.5q0 133 -18 264t-66 256q44 0 83 -7t87 -7q42 0 80.5 4.5t76 10.5t74.5 10.5t76 4.5q33 0 63.5 -4t61.5 -8.5t63 -8t68 -3.5q29 0 54 3.5t48.5 8t47 8.5t49.5 4q-14 -75 -30.5 -152
t-16.5 -155q0 -25 2.5 -50t7.5 -50q-36 36 -72 78.5t-80 78.5t-99 60.5t-130 24.5q-18 0 -39.5 -1.5t-40.5 -6.5t-32 -14t-13 -24v-262l45 -4q37 0 69 8t61 20t55.5 27t52.5 29q0 -19 -4 -39t-8.5 -41t-8.5 -42.5t-4 -43.5q0 -34 12 -69.5t21 -67.5q-33 0 -61.5 11.5
t-56 25.5t-56 25.5t-62.5 11.5h-55v-262q0 -18 11.5 -28.5t29.5 -16t39.5 -7.5t42.5 -2q57 0 98 13t71 33.5t53.5 47t45.5 53.5t47 52.5t58 44.5q-2 -22 -3 -44t-1 -44q0 -88 16.5 -174t54.5 -170q-32 0 -61 7t-57.5 15.5t-58 15.5t-60.5 7q-39 0 -75 -3.5t-72 -7.5
t-73 -7.5t-77 -3.5q-35 0 -65.5 3.5t-59.5 7.5t-57.5 7.5t-59.5 3.5zM495 1368q-18 0 -44 -16t-58 -39.5t-68 -51t-73 -51.5t-74 -40.5t-70 -16.5q31 37 65 85.5t69 100.5t69.5 102t67 89.5t61.5 63.5t53 24q30 0 60 -24t61.5 -62.5t65 -88t69.5 -100t75 -98.5t83 -84
q-43 0 -82.5 15t-75.5 38t-69.5 49.5t-64.5 49.5t-61 38.5t-59 16.5z" />
    <glyph glyph-name="edieresis" unicode="&#xeb;" horiz-adv-x="1018" 
d="M217 45q-26 0 -49 -2t-46 -5t-47.5 -5t-54.5 -2q60 134 82.5 274.5t22.5 284.5q0 133 -18 264t-66 256q44 0 83 -7t87 -7q42 0 80.5 4.5t76 10.5t74.5 10.5t76 4.5q33 0 63.5 -4t61.5 -8.5t63 -8t68 -3.5q29 0 54 3.5t48.5 8t47 8.5t49.5 4q-14 -75 -30.5 -152
t-16.5 -155q0 -25 2.5 -50t7.5 -50q-36 36 -72 78.5t-80 78.5t-99 60.5t-130 24.5q-18 0 -39.5 -1.5t-40.5 -6.5t-32 -14t-13 -24v-262l45 -4q37 0 69 8t61 20t55.5 27t52.5 29q0 -19 -4 -39t-8.5 -41t-8.5 -42.5t-4 -43.5q0 -34 12 -69.5t21 -67.5q-33 0 -61.5 11.5
t-56 25.5t-56 25.5t-62.5 11.5h-55v-262q0 -18 11.5 -28.5t29.5 -16t39.5 -7.5t42.5 -2q57 0 98 13t71 33.5t53.5 47t45.5 53.5t47 52.5t58 44.5q-2 -22 -3 -44t-1 -44q0 -88 16.5 -174t54.5 -170q-32 0 -61 7t-57.5 15.5t-58 15.5t-60.5 7q-39 0 -75 -3.5t-72 -7.5
t-73 -7.5t-77 -3.5q-35 0 -65.5 3.5t-59.5 7.5t-57.5 7.5t-59.5 3.5zM189 1280q0 24 10 42.5t26.5 31t38 19.5t43.5 7q45 0 76 -22t31 -72q0 -48 -33 -73t-78 -25q-23 0 -43.5 5t-36.5 15.5t-25 28t-9 43.5zM594 1282q0 51 31 74.5t78 23.5q21 0 43 -6.5t40 -19t30 -31
t12 -43.5q0 -24 -11 -41.5t-28 -29t-37.5 -17.5t-40.5 -6q-22 0 -43 6t-37.5 18t-26.5 30t-10 42z" />
    <glyph glyph-name="igrave" unicode="&#xec;" horiz-adv-x="547" 
d="M113 963q0 30 -15 56.5t-33.5 48t-34 37.5t-16.5 25q31 0 63 -6t63.5 -13t62.5 -13t61 -6q27 0 63 6t73 13t70.5 13t55.5 6q-1 -21 -14.5 -39t-29.5 -39t-29 -47.5t-13 -64.5v-772q0 -22 13.5 -45.5t29.5 -45.5t29.5 -42.5t13.5 -36.5q-42 0 -78 5t-71.5 11.5t-73 11.5
t-82.5 5q-46 0 -94 -8.5t-102 -8.5q0 9 13.5 28.5t30 42.5t30.5 45.5t14 37.5v795zM119 1583q23 0 51.5 -18t60 -46.5t65.5 -65.5t68.5 -75t69 -74t66.5 -63v-12q-42 10 -92.5 30.5t-101 47t-97.5 55.5t-83.5 57.5t-58.5 53t-22 40.5q0 29 22.5 49.5t51.5 20.5z" />
    <glyph glyph-name="iacute" unicode="&#xed;" horiz-adv-x="547" 
d="M113 963q0 30 -15 56.5t-33.5 48t-34 37.5t-16.5 25q31 0 63 -6t63.5 -13t62.5 -13t61 -6q27 0 63 6t73 13t70.5 13t55.5 6q-1 -21 -14.5 -39t-29.5 -39t-29 -47.5t-13 -64.5v-772q0 -22 13.5 -45.5t29.5 -45.5t29.5 -42.5t13.5 -36.5q-42 0 -78 5t-71.5 11.5t-73 11.5
t-82.5 5q-46 0 -94 -8.5t-102 -8.5q0 9 13.5 28.5t30 42.5t30.5 45.5t14 37.5v795zM426 1583q29 0 51.5 -20.5t22.5 -49.5q0 -16 -22 -40.5t-58 -53t-83 -57.5t-97.5 -55.5t-101 -47t-92.5 -30.5v12q32 27 66.5 63t68.5 74t68 75t65.5 65.5t59.5 46.5t52 18z" />
    <glyph glyph-name="icircumflex" unicode="&#xee;" horiz-adv-x="547" 
d="M113 963q0 30 -15 56.5t-33.5 48t-34 37.5t-16.5 25q31 0 63 -6t63.5 -13t62.5 -13t61 -6q27 0 63 6t73 13t70.5 13t55.5 6q-1 -21 -14.5 -39t-29.5 -39t-29 -47.5t-13 -64.5v-772q0 -22 13.5 -45.5t29.5 -45.5t29.5 -42.5t13.5 -36.5q-42 0 -78 5t-71.5 11.5t-73 11.5
t-82.5 5q-46 0 -94 -8.5t-102 -8.5q0 9 13.5 28.5t30 42.5t30.5 45.5t14 37.5v795zM263 1368q-18 0 -44 -16t-58 -39.5t-68 -51t-73 -51.5t-74 -40.5t-70 -16.5q31 37 65 85.5t69 100.5t69.5 102t67 89.5t61.5 63.5t53 24q30 0 60 -24t61.5 -62.5t65 -88t69.5 -100t75 -98.5
t83 -84q-43 0 -82.5 15t-75.5 38t-69.5 49.5t-64.5 49.5t-61 38.5t-59 16.5z" />
    <glyph glyph-name="idieresis" unicode="&#xef;" horiz-adv-x="547" 
d="M113 963q0 30 -15 56.5t-33.5 48t-34 37.5t-16.5 25q31 0 63 -6t63.5 -13t62.5 -13t61 -6q27 0 63 6t73 13t70.5 13t55.5 6q-1 -21 -14.5 -39t-29.5 -39t-29 -47.5t-13 -64.5v-772q0 -22 13.5 -45.5t29.5 -45.5t29.5 -42.5t13.5 -36.5q-42 0 -78 5t-71.5 11.5t-73 11.5
t-82.5 5q-46 0 -94 -8.5t-102 -8.5q0 9 13.5 28.5t30 42.5t30.5 45.5t14 37.5v795zM-44 1280q0 24 10 42.5t26.5 31t38 19.5t43.5 7q45 0 76 -22t31 -72q0 -48 -33 -73t-78 -25q-23 0 -43.5 5t-36.5 15.5t-25 28t-9 43.5zM361 1282q0 51 31 74.5t78 23.5q21 0 43 -6.5
t40 -19t30 -31t12 -43.5q0 -24 -11 -41.5t-28 -29t-37.5 -17.5t-40.5 -6q-22 0 -43 6t-37.5 18t-26.5 30t-10 42z" />
    <glyph glyph-name="eth" unicode="&#xf0;" horiz-adv-x="1036" 
d="M260 31q-31 0 -60 -5t-57.5 -10.5t-57 -10.5t-58.5 -5q18 25 37.5 51t35 52.5t25.5 54.5t10 57v311q-29 -3 -47.5 -7t-31 -7t-20.5 -5.5t-16 -2.5q0 18 7.5 35.5t7.5 40.5q0 18 -6 39.5t-6 27.5q7 0 16 -3t21.5 -7t30.5 -8t44 -6v299q0 27 -12 57t-26 58t-26 52.5
t-12 40.5q26 0 51.5 -5.5t50.5 -11.5t50.5 -11.5t52.5 -5.5q39 0 75 5.5t70.5 11.5t69 11.5t70.5 5.5q110 0 187.5 -27.5t129.5 -73t81.5 -105t44.5 -124t18.5 -129.5t3.5 -122q0 -52 -4 -112.5t-18.5 -121.5t-42.5 -118t-75.5 -100.5t-118 -70t-169.5 -26.5q-42 0 -82 5
t-80 10.5t-81 10.5t-83 5zM453 621q35 1 57 4t36 6t23 5.5t19 2.5q0 -16 -6.5 -32t-6.5 -32q2 -18 4.5 -35.5t2.5 -29.5q-10 0 -19 2l-22.5 5t-34 6t-53.5 5v-338q24 -6 51 -6q36 0 70.5 9.5t61.5 26t43.5 39t16.5 48.5v529q0 28 -15.5 49.5t-41 35.5t-58.5 21.5t-67 7.5
q-31 0 -61 -6v-323z" />
    <glyph glyph-name="ntilde" unicode="&#xf1;" horiz-adv-x="1221" 
d="M106 944q0 29 -13.5 52t-29.5 42.5t-29.5 36t-13.5 33.5q23 0 49.5 -4t54 -8.5t56 -8.5t56.5 -4q79 0 132 6t92 12.5t68 12.5t60 6q0 -9 -5.5 -20t-12 -23t-12 -25t-5.5 -26q0 -61 26 -135t63.5 -151.5t79 -153.5t73.5 -140v365q0 59 -9 99.5t-22.5 68t-29 45.5t-29 32
t-22.5 27t-9 31q29 0 63 -3.5t70 -7.5t72 -7.5t71 -3.5q31 0 61 6t58.5 13t57.5 13t59 6q0 -11 -9.5 -22t-23.5 -26.5t-30.5 -37.5t-30.5 -54.5t-23.5 -77t-9.5 -105.5v-623q0 -43 21.5 -74t48 -55.5t48 -44.5t21.5 -41q-42 0 -82.5 9.5t-82 20.5t-85 20.5t-92.5 9.5
q-35 0 -69 -5t-67.5 -10.5t-67 -10.5t-66.5 -5q-3 5 -3.5 8.5t-0.5 5.5q0 9 6 17.5t13.5 21.5t13.5 34t6 56q-32 65 -62 131.5t-61 133t-64 132t-72 130.5q0 -110 5 -220.5t8 -220.5q1 -32 21.5 -64.5t45 -62.5t44.5 -56t20 -46q-33 0 -63 5t-58.5 11.5t-57 11.5t-59.5 5
q-32 0 -62.5 -5t-60.5 -11.5t-61 -11.5t-64 -5q0 21 13.5 37t29.5 32.5t29.5 37t13.5 51.5v788zM145 1202q-7 0 -11.5 8.5t-7.5 21t-4 26t-1 22.5q0 82 32 135t80 83.5t104.5 42t104.5 11.5t100.5 -18t103.5 -45t99.5 -58.5t88.5 -58.5t70.5 -45t45.5 -18q31 0 51.5 21
t33.5 53.5t18.5 70.5t5.5 72q8 16 18 16q5 0 9 -7.5t7 -19t4.5 -25.5t1.5 -26q0 -65 -20.5 -116.5t-53.5 -87.5t-75.5 -55t-87.5 -19q-53 0 -106.5 17t-106 43t-103 55.5t-97 55.5t-87.5 43t-74 17q-38 0 -62.5 -15.5t-38.5 -41t-20 -58.5t-6 -67q0 -33 -16 -33z" />
    <glyph glyph-name="ograve" unicode="&#xf2;" horiz-adv-x="913" 
d="M23 813q0 79 37 138.5t97.5 99t139 59.5t162.5 20q85 0 163 -20.5t138 -61.5t95.5 -101.5t35.5 -141.5v-457q0 -75 -34.5 -139t-94 -110.5t-139.5 -72.5t-172 -26q-78 0 -153.5 17.5t-135.5 52.5t-98 87.5t-41 123.5v532zM565 813q0 27 -8.5 47t-22.5 33.5t-32 20
t-37 6.5q-21 0 -43 -7.5t-40 -22t-29 -36t-11 -49.5v-502q5 -43 39.5 -64.5t75.5 -21.5q21 0 40.5 5.5t34.5 16t24 27t9 37.5v510zM303 1583q23 0 51.5 -18t60 -46.5t65.5 -65.5t68.5 -75t69 -74t66.5 -63v-12q-42 10 -92.5 30.5t-101 47t-97.5 55.5t-83.5 57.5t-58.5 53
t-22 40.5q0 29 22.5 49.5t51.5 20.5z" />
    <glyph glyph-name="oacute" unicode="&#xf3;" horiz-adv-x="913" 
d="M23 813q0 79 37 138.5t97.5 99t139 59.5t162.5 20q85 0 163 -20.5t138 -61.5t95.5 -101.5t35.5 -141.5v-457q0 -75 -34.5 -139t-94 -110.5t-139.5 -72.5t-172 -26q-78 0 -153.5 17.5t-135.5 52.5t-98 87.5t-41 123.5v532zM565 813q0 27 -8.5 47t-22.5 33.5t-32 20
t-37 6.5q-21 0 -43 -7.5t-40 -22t-29 -36t-11 -49.5v-502q5 -43 39.5 -64.5t75.5 -21.5q21 0 40.5 5.5t34.5 16t24 27t9 37.5v510zM610 1583q29 0 51.5 -20.5t22.5 -49.5q0 -16 -22 -40.5t-58 -53t-83 -57.5t-97.5 -55.5t-101 -47t-92.5 -30.5v12q32 27 66.5 63t68.5 74
t68 75t65.5 65.5t59.5 46.5t52 18z" />
    <glyph glyph-name="ocircumflex" unicode="&#xf4;" horiz-adv-x="913" 
d="M23 813q0 79 37 138.5t97.5 99t139 59.5t162.5 20q85 0 163 -20.5t138 -61.5t95.5 -101.5t35.5 -141.5v-457q0 -75 -34.5 -139t-94 -110.5t-139.5 -72.5t-172 -26q-78 0 -153.5 17.5t-135.5 52.5t-98 87.5t-41 123.5v532zM565 813q0 27 -8.5 47t-22.5 33.5t-32 20
t-37 6.5q-21 0 -43 -7.5t-40 -22t-29 -36t-11 -49.5v-502q5 -43 39.5 -64.5t75.5 -21.5q21 0 40.5 5.5t34.5 16t24 27t9 37.5v510zM444 1368q-18 0 -44 -16t-58 -39.5t-68 -51t-73 -51.5t-74 -40.5t-70 -16.5q31 37 65 85.5t69 100.5t69.5 102t67 89.5t61.5 63.5t53 24
q30 0 60 -24t61.5 -62.5t65 -88t69.5 -100t75 -98.5t83 -84q-43 0 -82.5 15t-75.5 38t-69.5 49.5t-64.5 49.5t-61 38.5t-59 16.5z" />
    <glyph glyph-name="otilde" unicode="&#xf5;" horiz-adv-x="913" 
d="M23 813q0 79 37 138.5t97.5 99t139 59.5t162.5 20q85 0 163 -20.5t138 -61.5t95.5 -101.5t35.5 -141.5v-457q0 -75 -34.5 -139t-94 -110.5t-139.5 -72.5t-172 -26q-78 0 -153.5 17.5t-135.5 52.5t-98 87.5t-41 123.5v532zM565 813q0 27 -8.5 47t-22.5 33.5t-32 20
t-37 6.5q-21 0 -43 -7.5t-40 -22t-29 -36t-11 -49.5v-502q5 -43 39.5 -64.5t75.5 -21.5q21 0 40.5 5.5t34.5 16t24 27t9 37.5v510zM-7 1202q-7 0 -11.5 8.5t-7.5 21t-4 26t-1 22.5q0 82 32 135t80 83.5t104.5 42t104.5 11.5t100.5 -18t103.5 -45t99.5 -58.5t88.5 -58.5
t70.5 -45t45.5 -18q31 0 51.5 21t33.5 53.5t18.5 70.5t5.5 72q8 16 18 16q5 0 9 -7.5t7 -19t4.5 -25.5t1.5 -26q0 -65 -20.5 -116.5t-53.5 -87.5t-75.5 -55t-87.5 -19q-53 0 -106.5 17t-106 43t-103 55.5t-97 55.5t-87.5 43t-74 17q-38 0 -62.5 -15.5t-38.5 -41t-20 -58.5
t-6 -67q0 -33 -16 -33z" />
    <glyph glyph-name="odieresis" unicode="&#xf6;" horiz-adv-x="913" 
d="M23 813q0 79 37 138.5t97.5 99t139 59.5t162.5 20q85 0 163 -20.5t138 -61.5t95.5 -101.5t35.5 -141.5v-457q0 -75 -34.5 -139t-94 -110.5t-139.5 -72.5t-172 -26q-78 0 -153.5 17.5t-135.5 52.5t-98 87.5t-41 123.5v532zM565 813q0 27 -8.5 47t-22.5 33.5t-32 20
t-37 6.5q-21 0 -43 -7.5t-40 -22t-29 -36t-11 -49.5v-502q5 -43 39.5 -64.5t75.5 -21.5q21 0 40.5 5.5t34.5 16t24 27t9 37.5v510zM138 1280q0 24 10 42.5t26.5 31t38 19.5t43.5 7q45 0 76 -22t31 -72q0 -48 -33 -73t-78 -25q-23 0 -43.5 5t-36.5 15.5t-25 28t-9 43.5z
M543 1282q0 51 31 74.5t78 23.5q21 0 43 -6.5t40 -19t30 -31t12 -43.5q0 -24 -11 -41.5t-28 -29t-37.5 -17.5t-40.5 -6q-22 0 -43 6t-37.5 18t-26.5 30t-10 42z" />
    <glyph glyph-name="divide" unicode="&#xf7;" horiz-adv-x="934" 
d="M10 508q0 23 5 46t11.5 46t11.5 46.5t5 47.5q0 22 -5 43t-11.5 42t-11.5 41.5t-5 41.5q56 0 111.5 -3.5t111 -7.5t111.5 -7.5t115 -3.5t116.5 3.5t115.5 7.5t116 7.5t117 3.5q0 -45 -9.5 -89t-9.5 -93q0 -44 10.5 -86t10.5 -86q-57 0 -113.5 3.5t-112.5 7.5t-113.5 7.5
t-115.5 3.5q-59 0 -117 -3.5t-115 -7.5t-114 -7.5t-115 -3.5zM301 1006q0 27 11 49.5t29.5 38t42.5 24t50 8.5q25 0 50.5 -9.5t46.5 -26t34 -39t13 -47.5q0 -30 -11 -52.5t-30 -37t-44 -22t-53 -7.5q-27 0 -52 8t-44.5 24t-31 38t-11.5 51zM307 350q0 28 11 50t29.5 38
t42.5 24.5t50 8.5q25 0 50.5 -9.5t46.5 -26.5t34 -39.5t13 -47.5q0 -30 -11 -52.5t-30 -37t-44 -22t-53 -7.5q-27 0 -52 8t-44.5 24t-31 38t-11.5 51z" />
    <glyph glyph-name="oslash" unicode="&#xf8;" horiz-adv-x="1034" 
d="M303 43q-9 -18 -14.5 -35.5t-10.5 -35.5t-11 -36.5t-17 -39.5q-56 24 -113 40t-123 33q48 41 89.5 83t66.5 98q-44 66 -59 135v522q0 63 36.5 121t98 102.5t143 71.5t172.5 28q50 0 99.5 -9t91.5 -29q9 13 14.5 27.5t10.5 29.5t10 29.5t14 25.5l10 2q16 0 29.5 -6
t26.5 -13t26.5 -13t28.5 -7q21 0 47 -3.5t49 -12.5q-35 -42 -68.5 -83.5t-58.5 -86.5q35 -38 54.5 -85t19.5 -95v-449q0 -70 -35 -134t-95.5 -113t-142 -78t-174.5 -29q-54 0 -108 11t-107 34zM686 672q-60 -100 -122 -203t-122 -209q31 -43 78 -43q29 0 58.5 14t53.5 35.5
t39 46.5t15 47v312zM379 455l244 422v6q0 9 -8.5 16t-21 11.5t-27 7t-27.5 2.5q-48 0 -79 -13.5t-49 -37t-25 -55.5t-7 -69v-18v-272z" />
    <glyph glyph-name="ugrave" unicode="&#xf9;" horiz-adv-x="1042" 
d="M82 1016q0 28 -9.5 45.5t-21.5 30.5t-21.5 23.5t-9.5 23.5q26 0 56 -4t65 -8.5t75 -8.5t87 -4q30 0 53.5 2.5t43.5 5.5t39.5 5.5t41.5 2.5q0 -11 -11.5 -23t-26 -29t-26 -41t-11.5 -60v-707q0 -15 12 -27.5t30.5 -20.5t42.5 -12.5t48 -4.5q27 0 52.5 6t44.5 17.5
t30.5 27.5t11.5 37v706q0 19 -10.5 35.5t-22.5 33t-22.5 33t-10.5 34.5q44 0 87 -7.5t89 -7.5q62 0 120.5 9.5t115.5 9.5q0 -18 -13.5 -35.5t-29.5 -40.5t-29.5 -55t-13.5 -78v-692q0 -36 -26 -78t-78.5 -77.5t-131.5 -59t-184 -23.5q-109 0 -191 27t-136.5 67t-81.5 85
t-27 81v756zM367 1583q23 0 51.5 -18t60 -46.5t65.5 -65.5t68.5 -75t69 -74t66.5 -63v-12q-42 10 -92.5 30.5t-101 47t-97.5 55.5t-83.5 57.5t-58.5 53t-22 40.5q0 29 22.5 49.5t51.5 20.5z" />
    <glyph glyph-name="uacute" unicode="&#xfa;" horiz-adv-x="1042" 
d="M82 1016q0 28 -9.5 45.5t-21.5 30.5t-21.5 23.5t-9.5 23.5q26 0 56 -4t65 -8.5t75 -8.5t87 -4q30 0 53.5 2.5t43.5 5.5t39.5 5.5t41.5 2.5q0 -11 -11.5 -23t-26 -29t-26 -41t-11.5 -60v-707q0 -15 12 -27.5t30.5 -20.5t42.5 -12.5t48 -4.5q27 0 52.5 6t44.5 17.5
t30.5 27.5t11.5 37v706q0 19 -10.5 35.5t-22.5 33t-22.5 33t-10.5 34.5q44 0 87 -7.5t89 -7.5q62 0 120.5 9.5t115.5 9.5q0 -18 -13.5 -35.5t-29.5 -40.5t-29.5 -55t-13.5 -78v-692q0 -36 -26 -78t-78.5 -77.5t-131.5 -59t-184 -23.5q-109 0 -191 27t-136.5 67t-81.5 85
t-27 81v756zM673 1583q29 0 51.5 -20.5t22.5 -49.5q0 -16 -22 -40.5t-58 -53t-83 -57.5t-97.5 -55.5t-101 -47t-92.5 -30.5v12q32 27 66.5 63t68.5 74t68 75t65.5 65.5t59.5 46.5t52 18z" />
    <glyph glyph-name="ucircumflex" unicode="&#xfb;" horiz-adv-x="1042" 
d="M82 1016q0 28 -9.5 45.5t-21.5 30.5t-21.5 23.5t-9.5 23.5q26 0 56 -4t65 -8.5t75 -8.5t87 -4q30 0 53.5 2.5t43.5 5.5t39.5 5.5t41.5 2.5q0 -11 -11.5 -23t-26 -29t-26 -41t-11.5 -60v-707q0 -15 12 -27.5t30.5 -20.5t42.5 -12.5t48 -4.5q27 0 52.5 6t44.5 17.5
t30.5 27.5t11.5 37v706q0 19 -10.5 35.5t-22.5 33t-22.5 33t-10.5 34.5q44 0 87 -7.5t89 -7.5q62 0 120.5 9.5t115.5 9.5q0 -18 -13.5 -35.5t-29.5 -40.5t-29.5 -55t-13.5 -78v-692q0 -36 -26 -78t-78.5 -77.5t-131.5 -59t-184 -23.5q-109 0 -191 27t-136.5 67t-81.5 85
t-27 81v756zM508 1368q-18 0 -44 -16t-58 -39.5t-68 -51t-73 -51.5t-74 -40.5t-70 -16.5q31 37 65 85.5t69 100.5t69.5 102t67 89.5t61.5 63.5t53 24q30 0 60 -24t61.5 -62.5t65 -88t69.5 -100t75 -98.5t83 -84q-43 0 -82.5 15t-75.5 38t-69.5 49.5t-64.5 49.5t-61 38.5
t-59 16.5z" />
    <glyph glyph-name="udieresis" unicode="&#xfc;" horiz-adv-x="1042" 
d="M82 1016q0 28 -9.5 45.5t-21.5 30.5t-21.5 23.5t-9.5 23.5q26 0 56 -4t65 -8.5t75 -8.5t87 -4q30 0 53.5 2.5t43.5 5.5t39.5 5.5t41.5 2.5q0 -11 -11.5 -23t-26 -29t-26 -41t-11.5 -60v-707q0 -15 12 -27.5t30.5 -20.5t42.5 -12.5t48 -4.5q27 0 52.5 6t44.5 17.5
t30.5 27.5t11.5 37v706q0 19 -10.5 35.5t-22.5 33t-22.5 33t-10.5 34.5q44 0 87 -7.5t89 -7.5q62 0 120.5 9.5t115.5 9.5q0 -18 -13.5 -35.5t-29.5 -40.5t-29.5 -55t-13.5 -78v-692q0 -36 -26 -78t-78.5 -77.5t-131.5 -59t-184 -23.5q-109 0 -191 27t-136.5 67t-81.5 85
t-27 81v756zM201 1280q0 24 10 42.5t26.5 31t38 19.5t43.5 7q45 0 76 -22t31 -72q0 -48 -33 -73t-78 -25q-23 0 -43.5 5t-36.5 15.5t-25 28t-9 43.5zM606 1282q0 51 31 74.5t78 23.5q21 0 43 -6.5t40 -19t30 -31t12 -43.5q0 -24 -11 -41.5t-28 -29t-37.5 -17.5t-40.5 -6
q-22 0 -43 6t-37.5 18t-26.5 30t-10 42z" />
    <glyph glyph-name="yacute" unicode="&#xfd;" horiz-adv-x="1108" 
d="M383 504q0 10 -16.5 46.5t-45 90t-65.5 119t-78.5 132t-84 130t-81.5 113.5q31 0 61 -4t60 -8.5t61 -8.5t64 -4q32 0 59 4t51 8.5t46.5 8.5t46.5 4q-1 -12 -5 -23.5t-9 -22t-9 -22t-4 -23.5q0 -23 14.5 -57.5t35 -73.5t43.5 -79.5t40 -75.5q17 40 41 81.5t46 82t37.5 79
t15.5 72.5q0 11 -6 18.5t-12.5 14t-12.5 13.5t-6 16q29 0 56 -5t53.5 -11.5t54 -11.5t59.5 -5q58 0 106 8t99 8q-46 -48 -94 -110.5t-92.5 -129.5t-84 -133t-68.5 -121t-46 -94t-17 -51v-319q0 -37 20.5 -64t45 -46t45 -31t20.5 -19q-38 0 -75.5 5t-75 10.5t-76 10.5
t-80.5 5q-31 0 -61.5 -3.5t-61 -8t-62 -8t-63.5 -3.5q0 14 17.5 36t38 48.5t38 55.5t17.5 57v299zM706 1583q29 0 51.5 -20.5t22.5 -49.5q0 -16 -22 -40.5t-58 -53t-83 -57.5t-97.5 -55.5t-101 -47t-92.5 -30.5v12q32 27 66.5 63t68.5 74t68 75t65.5 65.5t59.5 46.5t52 18z
" />
    <glyph glyph-name="thorn" unicode="&#xfe;" horiz-adv-x="1196" 
d="M240 -377q-25 0 -49 -4t-48.5 -9t-49.5 -9t-50 -4q0 21 14.5 46.5t32.5 60t32.5 80.5t14.5 110l2 1406q0 75 -18.5 124.5t-41 83.5t-41 57t-18.5 43q42 0 81.5 -9t79 -19.5t79 -19t80.5 -8.5q32 0 63.5 8.5t63 19t62 19.5t61.5 9q0 -29 -14.5 -57.5t-32.5 -61.5
t-32.5 -72t-14.5 -90l-2 -37h43l8 -2h209q71 0 131 -23.5t108.5 -65.5t85 -98.5t61.5 -123t37.5 -139t12.5 -146.5q0 -105 -26 -205t-79 -178.5t-134 -126t-191 -47.5h-266v-334q0 -48 15.5 -80t33.5 -57t33.5 -46.5t15.5 -47.5q-48 0 -91.5 8.5t-86 18t-85 18t-89.5 8.5z
M547 979q-26 0 -53 -6v-570h26q58 0 107.5 26t85 68.5t55.5 96t20 108.5q0 53 -18 103t-50 88.5t-76 62t-97 23.5z" />
    <glyph glyph-name="ydieresis" unicode="&#xff;" horiz-adv-x="1108" 
d="M383 504q0 10 -16.5 46.5t-45 90t-65.5 119t-78.5 132t-84 130t-81.5 113.5q31 0 61 -4t60 -8.5t61 -8.5t64 -4q32 0 59 4t51 8.5t46.5 8.5t46.5 4q-1 -12 -5 -23.5t-9 -22t-9 -22t-4 -23.5q0 -23 14.5 -57.5t35 -73.5t43.5 -79.5t40 -75.5q17 40 41 81.5t46 82t37.5 79
t15.5 72.5q0 11 -6 18.5t-12.5 14t-12.5 13.5t-6 16q29 0 56 -5t53.5 -11.5t54 -11.5t59.5 -5q58 0 106 8t99 8q-46 -48 -94 -110.5t-92.5 -129.5t-84 -133t-68.5 -121t-46 -94t-17 -51v-319q0 -37 20.5 -64t45 -46t45 -31t20.5 -19q-38 0 -75.5 5t-75 10.5t-76 10.5
t-80.5 5q-31 0 -61.5 -3.5t-61 -8t-62 -8t-63.5 -3.5q0 14 17.5 36t38 48.5t38 55.5t17.5 57v299zM234 1280q0 24 10 42.5t26.5 31t38 19.5t43.5 7q45 0 76 -22t31 -72q0 -48 -33 -73t-78 -25q-23 0 -43.5 5t-36.5 15.5t-25 28t-9 43.5zM639 1282q0 51 31 74.5t78 23.5
q21 0 43 -6.5t40 -19t30 -31t12 -43.5q0 -24 -11 -41.5t-28 -29t-37.5 -17.5t-40.5 -6q-22 0 -43 6t-37.5 18t-26.5 30t-10 42z" />
    <glyph glyph-name="Abreve" unicode="&#x102;" 
d="M655 18q0 25 4 50.5t9.5 51t9.5 50.5t4 49q0 35 -12 70h-271q-8 -23 -11 -46.5t-3 -47.5q0 -57 20 -111t58 -96q-6 -2 -13 -2h-12q-30 0 -59.5 7t-58.5 15.5t-58.5 15.5t-60.5 7q-26 0 -49 -5t-45.5 -10.5t-45 -10.5t-45.5 -5h-4q33 23 61 78.5t52 134t45.5 176.5
t41.5 206t39 222.5t39 226.5t41.5 217.5t45.5 196.5q0 19 -5.5 36t-12 33.5t-12 34.5t-5.5 40q32 0 61 -8t57.5 -17t57.5 -17t62 -8q34 0 63.5 7.5t58.5 16t58 16t61 7.5q0 -27 -6 -50t-12.5 -47t-12.5 -50t-6 -57q21 -87 41.5 -189.5t40.5 -212t40 -221.5t40.5 -217.5
t41 -199.5t41.5 -167.5t43.5 -123t45.5 -64.5q-33 0 -68.5 5t-72 10.5t-73.5 10.5t-73 5q-45 0 -86.5 -6.5t-89.5 -6.5zM428 494h205l-98 526zM545 1691q-62 0 -118 22t-99.5 67t-69 112.5t-25.5 159.5q19 -1 40 -16.5t44 -38.5t48.5 -49.5t55 -49.5t62.5 -38t72 -15
q38 0 71.5 14.5t63.5 36.5t57 48t52.5 48t49.5 36.5t48 14.5q0 -87 -31.5 -152.5t-81.5 -110t-113 -67t-126 -22.5z" />
    <glyph glyph-name="abreve" unicode="&#x103;" 
d="M655 23q0 18 4 35.5t9.5 35t9.5 34.5t4 34q0 25 -12 49h-271q-14 -32 -14 -66q0 -40 20 -78t58 -67q-6 -2 -13 -2h-12q-30 0 -59.5 5t-58.5 11.5t-58.5 11.5t-60.5 5q-26 0 -49 -3.5t-45.5 -8t-45 -8t-45.5 -3.5h-4q44 22 79 82.5t65 146t56 188t52 209t53.5 209
t59.5 187.5q0 13 -5.5 24.5t-12 23.5t-12 24.5t-5.5 27.5q32 0 61 -5.5t57.5 -11.5t57.5 -11.5t62 -5.5q34 0 63.5 5t58.5 11t58 11t61 5q0 -19 -6 -35.5t-12.5 -33t-12.5 -34.5t-6 -40q28 -81 55 -180.5t54 -203.5t53.5 -204t54.5 -181.5t57 -137.5t60 -70q-33 0 -68.5 3.5
t-72 8t-73.5 8t-73 3.5q-45 0 -86.5 -4t-89.5 -4zM428 354h205l-98 369zM545 1204q-62 0 -118 22t-99.5 67t-69 112.5t-25.5 159.5q19 -1 40 -16.5t44 -38.5t48.5 -49.5t55 -49.5t62.5 -38t72 -15q38 0 71.5 14.5t63.5 36.5t57 48t52.5 48t49.5 36.5t48 14.5
q0 -87 -31.5 -152.5t-81.5 -110t-113 -67t-126 -22.5z" />
    <glyph glyph-name="Aogonek" unicode="&#x104;" 
d="M655 18q0 25 4 50.5t9.5 51t9.5 50.5t4 49q0 35 -12 70h-271q-8 -23 -11 -46.5t-3 -47.5q0 -57 20 -111t58 -96q-6 -2 -13 -2h-12q-30 0 -59.5 7t-58.5 15.5t-58.5 15.5t-60.5 7q-26 0 -49 -5t-45.5 -10.5t-45 -10.5t-45.5 -5h-4q33 23 61 78.5t52 134t45.5 176.5
t41.5 206t39 222.5t39 226.5t41.5 217.5t45.5 196.5q0 19 -5.5 36t-12 33.5t-12 34.5t-5.5 40q32 0 61 -8t57.5 -17t57.5 -17t62 -8q34 0 63.5 7.5t58.5 16t58 16t61 7.5q0 -27 -6 -50t-12.5 -47t-12.5 -50t-6 -57q21 -87 41.5 -189.5t40.5 -212t40 -221.5t40.5 -217.5
t41 -199.5t41.5 -167.5t43.5 -123t45.5 -64.5q-33 0 -68.5 5t-72 10.5t-73.5 10.5t-73 5q-45 0 -86.5 -6.5t-89.5 -6.5zM428 494h205l-98 526zM864 -395q-8 0 -15.5 3.5t-14.5 8t-14.5 8.5t-16.5 4q-20 0 -38 -6t-36 -12.5t-36 -12.5t-38 -6q-38 0 -76.5 13.5t-69.5 37.5
t-50 58t-19 76q0 62 26 118t69.5 98.5t100.5 67.5t119 25q17 0 36 -3t28 -20q-43 -11 -87 -31.5t-80 -50.5t-58.5 -69.5t-22.5 -89.5q0 -16 5 -32.5t14.5 -29.5t23 -21.5t31.5 -8.5q48 0 79.5 17t52.5 37t35 37t27 17q0 -45 4 -75.5t8.5 -55.5t8.5 -48.5t4 -53.5z" />
    <glyph glyph-name="aogonek" unicode="&#x105;" 
d="M655 23q0 18 4 35.5t9.5 35t9.5 34.5t4 34q0 25 -12 49h-271q-14 -32 -14 -66q0 -40 20 -78t58 -67q-6 -2 -13 -2h-12q-30 0 -59.5 5t-58.5 11.5t-58.5 11.5t-60.5 5q-26 0 -49 -3.5t-45.5 -8t-45 -8t-45.5 -3.5h-4q44 22 79 82.5t65 146t56 188t52 209t53.5 209
t59.5 187.5q0 13 -5.5 24.5t-12 23.5t-12 24.5t-5.5 27.5q32 0 61 -5.5t57.5 -11.5t57.5 -11.5t62 -5.5q34 0 63.5 5t58.5 11t58 11t61 5q0 -19 -6 -35.5t-12.5 -33t-12.5 -34.5t-6 -40q28 -81 55 -180.5t54 -203.5t53.5 -204t54.5 -181.5t57 -137.5t60 -70q-33 0 -68.5 3.5
t-72 8t-73.5 8t-73 3.5q-45 0 -86.5 -4t-89.5 -4zM428 354h205l-98 369zM845.527 -299.878q-6.53125 0 -12.6543 2.84668t-11.8379 6.50684q-5.71484 3.65918 -11.8379 6.91309q-6.12305 3.25293 -13.4707 3.25293q-16.3281 0 -31.0234 -4.87988t-29.3906 -10.166
t-29.3906 -10.166t-31.0234 -4.87988q-31.0234 0 -62.4551 10.9795t-56.7402 30.498q-25.3086 19.5195 -40.8203 47.1709q-15.5117 27.6523 -15.5117 61.8105q0 50.4248 21.2266 95.9688q21.2266 45.5449 56.7402 80.1094q35.5137 34.5654 82.0488 54.8975t97.1523 20.332
q13.8789 0 29.3906 -2.43945q15.5117 -2.44043 22.8594 -16.2656q-35.1055 -8.94629 -71.0273 -25.6191t-65.3125 -41.0713t-47.7598 -56.5244q-18.3691 -32.125 -18.3691 -72.7891q0 -13.0127 4.08203 -26.4326q4.08203 -13.4189 11.8379 -23.9922
q7.75586 -10.5723 18.7773 -17.4854t25.7168 -6.91309q39.1875 0 64.9043 13.8262t42.8613 30.0918t28.5742 30.0918t22.043 13.8262q0 -36.5986 3.26562 -61.4043q3.26562 -24.8047 6.93945 -45.1377q3.67383 -20.332 6.93945 -39.4443t3.26562 -43.5117z" />
    <glyph glyph-name="Cacute" unicode="&#x106;" horiz-adv-x="891" 
d="M344 408q0 -31 16 -55t40 -40.5t53 -25t55 -8.5q38 0 72.5 16t60.5 42.5t41.5 61t15.5 72.5q0 21 -5.5 39.5t-11.5 36.5t-11.5 36.5t-5.5 39.5q0 20 22 20q47 0 81.5 -24.5t57.5 -62.5t34 -83.5t11 -87.5q0 -77 -30.5 -146.5t-82.5 -122.5t-121 -84.5t-147 -31.5
q-50 0 -104 9.5t-105.5 28.5t-98.5 47.5t-82 66.5t-55.5 86t-20.5 106v866q0 75 33.5 147t89 128.5t127 90.5t147.5 34q39 0 75 -7t71.5 -15.5t71 -15.5t73.5 -7t75.5 7.5t71.5 24.5q-3 -35 -12 -68.5t-20 -67.5t-22.5 -68t-19.5 -68q-12 -49 -19 -99.5t-13 -101.5
q-6 -17 -9.5 -35.5l-7 -37t-9.5 -35.5t-17 -31q-9 32 -18.5 70t-21.5 76.5t-28.5 74t-40 63t-56.5 44t-77 16.5q-22 0 -44 -9.5t-39.5 -25.5t-28.5 -37.5t-11 -46.5v-802zM598 2070q29 0 51.5 -20.5t22.5 -49.5q0 -16 -22 -40.5t-58 -53t-83 -57.5t-97.5 -55.5t-101 -47
t-92.5 -30.5v12q32 27 66.5 63t68.5 74t68 75t65.5 65.5t59.5 46.5t52 18z" />
    <glyph glyph-name="cacute" unicode="&#x107;" horiz-adv-x="891" 
d="M344 285q0 -22 16 -38.5t40 -28t53 -17.5t55 -6q38 0 72.5 11t60.5 30t41.5 43.5t15.5 50.5q0 15 -5.5 27.5t-11.5 25.5t-11.5 25.5t-5.5 27.5t22 15q47 0 81.5 -17.5t57.5 -44.5t34 -59t11 -60q0 -54 -30.5 -102.5t-82.5 -86t-121 -59.5t-147 -22q-50 0 -104 6.5
t-105.5 20t-98.5 33.5t-82 47t-55.5 60.5t-20.5 74.5v606q0 52 33.5 102t89 89t127 63t147.5 24q39 0 75 -4.5t71.5 -10.5t71 -10.5t73.5 -4.5t75.5 5t71.5 17q-3 -24 -12 -48t-20 -47.5t-22.5 -47t-19.5 -47.5q-12 -34 -19 -70t-13 -72q-6 -11 -9.5 -24l-7 -26t-9.5 -25
t-17 -21q-14 34 -28.5 75.5t-39.5 78t-66 61.5t-108 25q-22 0 -44 -6.5t-39.5 -17.5t-28.5 -26t-11 -32v-563zM598 1583q29 0 51.5 -20.5t22.5 -49.5q0 -16 -22 -40.5t-58 -53t-83 -57.5t-97.5 -55.5t-101 -47t-92.5 -30.5v12q32 27 66.5 63t68.5 74t68 75t65.5 65.5
t59.5 46.5t52 18z" />
    <glyph glyph-name="Ccaron" unicode="&#x10c;" horiz-adv-x="891" 
d="M344 408q0 -31 16 -55t40 -40.5t53 -25t55 -8.5q38 0 72.5 16t60.5 42.5t41.5 61t15.5 72.5q0 21 -5.5 39.5t-11.5 36.5t-11.5 36.5t-5.5 39.5q0 20 22 20q47 0 81.5 -24.5t57.5 -62.5t34 -83.5t11 -87.5q0 -77 -30.5 -146.5t-82.5 -122.5t-121 -84.5t-147 -31.5
q-50 0 -104 9.5t-105.5 28.5t-98.5 47.5t-82 66.5t-55.5 86t-20.5 106v866q0 75 33.5 147t89 128.5t127 90.5t147.5 34q39 0 75 -7t71.5 -15.5t71 -15.5t73.5 -7t75.5 7.5t71.5 24.5q-3 -35 -12 -68.5t-20 -67.5t-22.5 -68t-19.5 -68q-12 -49 -19 -99.5t-13 -101.5
q-6 -17 -9.5 -35.5l-7 -37t-9.5 -35.5t-17 -31q-9 32 -18.5 70t-21.5 76.5t-28.5 74t-40 63t-56.5 44t-77 16.5q-22 0 -44 -9.5t-39.5 -25.5t-28.5 -37.5t-11 -46.5v-802zM457 1888q18 0 44.5 16t58.5 39.5t68 51t73 51.5t73.5 40t69.5 17q-31 -37 -65 -86t-69 -100.5
t-69.5 -101.5t-67 -89.5t-62 -63.5t-52.5 -24q-30 0 -60 24t-61.5 62.5t-65 88t-69.5 100t-75.5 98.5t-82.5 84q43 0 82.5 -15t75.5 -38t69.5 -49.5t64.5 -49.5t61 -39t59 -16z" />
    <glyph glyph-name="ccaron" unicode="&#x10d;" horiz-adv-x="891" 
d="M344 285q0 -22 16 -38.5t40 -28t53 -17.5t55 -6q38 0 72.5 11t60.5 30t41.5 43.5t15.5 50.5q0 15 -5.5 27.5t-11.5 25.5t-11.5 25.5t-5.5 27.5t22 15q47 0 81.5 -17.5t57.5 -44.5t34 -59t11 -60q0 -54 -30.5 -102.5t-82.5 -86t-121 -59.5t-147 -22q-50 0 -104 6.5
t-105.5 20t-98.5 33.5t-82 47t-55.5 60.5t-20.5 74.5v606q0 52 33.5 102t89 89t127 63t147.5 24q39 0 75 -4.5t71.5 -10.5t71 -10.5t73.5 -4.5t75.5 5t71.5 17q-3 -24 -12 -48t-20 -47.5t-22.5 -47t-19.5 -47.5q-12 -34 -19 -70t-13 -72q-6 -11 -9.5 -24l-7 -26t-9.5 -25
t-17 -21q-14 34 -28.5 75.5t-39.5 78t-66 61.5t-108 25q-22 0 -44 -6.5t-39.5 -17.5t-28.5 -26t-11 -32v-563zM457 1401q18 0 44.5 16t58.5 39.5t68 51t73 51.5t73.5 40t69.5 17q-31 -37 -65 -86t-69 -100.5t-69.5 -101.5t-67 -89.5t-62 -63.5t-52.5 -24q-30 0 -60 24
t-61.5 62.5t-65 88t-69.5 100t-75.5 98.5t-82.5 84q43 0 82.5 -15t75.5 -38t69.5 -49.5t64.5 -49.5t61 -39t59 -16z" />
    <glyph glyph-name="Dcaron" unicode="&#x10e;" horiz-adv-x="1028" 
d="M254 45q-31 0 -60 -7t-57.5 -15.5t-57.5 -15.5t-59 -7q19 36 38 73t35 75t26 78t10 81v1010q0 39 -12 82t-26 83t-26 74.5t-12 57.5q26 0 51.5 -7.5t50.5 -16t50.5 -16t52.5 -7.5q39 0 75 7.5t70.5 16t69 16t70.5 7.5q110 0 187.5 -39t129.5 -104t81.5 -150.5
t44.5 -177.5t18.5 -185t3.5 -174q0 -74 -4 -161t-18.5 -174t-42.5 -168t-75.5 -143.5t-118 -100t-169.5 -37.5q-42 0 -82 7t-80 15.5t-81 15.5t-83 7zM446 272q13 -5 26 -6.5t26 -1.5q36 0 70.5 13t61.5 36.5t43.5 55t16.5 69.5v756q0 40 -15.5 70.5t-41 51.5t-58.5 31.5
t-67 10.5q-16 0 -31 -2.5t-31 -5.5v-1078zM526 1888q18 0 44.5 16t58.5 39.5t68 51t73 51.5t73.5 40t69.5 17q-31 -37 -65 -86t-69 -100.5t-69.5 -101.5t-67 -89.5t-62 -63.5t-52.5 -24q-30 0 -60 24t-61.5 62.5t-65 88t-69.5 100t-75.5 98.5t-82.5 84q43 0 82.5 -15
t75.5 -38t69.5 -49.5t64.5 -49.5t61 -39t59 -16z" />
    <glyph glyph-name="dcaron" unicode="&#x10f;" horiz-adv-x="1030" 
d="M254 31q-31 0 -60 -5t-57.5 -10.5t-57.5 -10.5t-59 -5q19 25 38 51t35 52.5t26 54.5t10 57v707q0 27 -12 57t-26 58t-26 52.5t-12 40.5q26 0 51.5 -5.5t50.5 -11.5t50.5 -11.5t52.5 -5.5q39 0 75 5.5t70.5 11.5t69 11.5t70.5 5.5q110 0 187.5 -27.5t129.5 -73t81.5 -105
t44.5 -124t18.5 -129.5t3.5 -122q0 -52 -4 -112.5t-18.5 -121.5t-42.5 -118t-75.5 -100.5t-118 -70t-169.5 -26.5q-42 0 -82 5t-80 10.5t-81 10.5t-83 5zM446 190q25 -6 52 -6q36 0 70.5 9.5t61.5 26t43.5 39t16.5 48.5v529q0 28 -15.5 49.5t-41 35.5t-58.5 21.5t-67 7.5
q-31 0 -62 -6v-754zM526 1401q18 0 44.5 16t58.5 39.5t68 51t73 51.5t73.5 40t69.5 17q-31 -37 -65 -86t-69 -100.5t-69.5 -101.5t-67 -89.5t-62 -63.5t-52.5 -24q-30 0 -60 24t-61.5 62.5t-65 88t-69.5 100t-75.5 98.5t-82.5 84q43 0 82.5 -15t75.5 -38t69.5 -49.5
t64.5 -49.5t61 -39t59 -16z" />
    <glyph glyph-name="uni0110" unicode="&#x110;" horiz-adv-x="1034" 
d="M260 45q-31 0 -60 -7t-57.5 -15.5t-57 -15.5t-58.5 -7q18 36 37.5 73t35 75t25.5 78t10 81v445q-29 -4 -47.5 -9.5t-31 -10t-20.5 -8t-16 -3.5q0 26 7.5 50t7.5 58q0 13 -2 27.5t-4 28t-4 24.5t-2 17q7 0 16 -4.5t21.5 -10.5t30.5 -12t44 -10v428q0 39 -12 82t-26 83
t-26 74.5t-12 57.5q26 0 51.5 -7.5t50.5 -16t50.5 -16t52.5 -7.5q39 0 75 7.5t70.5 16t69 16t70.5 7.5q110 0 187.5 -39t129.5 -104t81.5 -150.5t44.5 -177.5t18.5 -185t3.5 -174q0 -74 -4 -161t-18.5 -174t-42.5 -168t-75.5 -143.5t-118 -100t-169.5 -37.5q-42 0 -82 7
t-80 15.5t-81 15.5t-83 7zM453 887q35 1 57 5.5t36 9t23 8t19 3.5q0 -21 -6.5 -45t-6.5 -47q2 -25 4.5 -50t2.5 -42q-10 0 -19 3.5t-22.5 7.5t-34 8t-53.5 6v-482q12 -5 25 -6.5t26 -1.5q36 0 70.5 13t61.5 36.5t43.5 55t16.5 69.5v756q0 40 -15.5 70.5t-41 51.5t-58.5 31.5
t-67 10.5q-15 0 -30.5 -2.5t-30.5 -5.5v-463z" />
    <glyph glyph-name="uni0111" unicode="&#x111;" horiz-adv-x="1036" 
d="M260 31q-31 0 -60 -5t-57.5 -10.5t-57 -10.5t-58.5 -5q18 25 37.5 51t35 52.5t25.5 54.5t10 57v311q-29 -3 -47.5 -7t-31 -7t-20.5 -5.5t-16 -2.5q0 18 7.5 35.5t7.5 40.5q0 18 -6 39.5t-6 27.5q7 0 16 -3t21.5 -7t30.5 -8t44 -6v299q0 27 -12 57t-26 58t-26 52.5
t-12 40.5q26 0 51.5 -5.5t50.5 -11.5t50.5 -11.5t52.5 -5.5q39 0 75 5.5t70.5 11.5t69 11.5t70.5 5.5q110 0 187.5 -27.5t129.5 -73t81.5 -105t44.5 -124t18.5 -129.5t3.5 -122q0 -52 -4 -112.5t-18.5 -121.5t-42.5 -118t-75.5 -100.5t-118 -70t-169.5 -26.5q-42 0 -82 5
t-80 10.5t-81 10.5t-83 5zM453 621q35 1 57 4t36 6t23 5.5t19 2.5q0 -16 -6.5 -32t-6.5 -32q2 -18 4.5 -35.5t2.5 -29.5q-10 0 -19 2l-22.5 5t-34 6t-53.5 5v-338q24 -6 51 -6q36 0 70.5 9.5t61.5 26t43.5 39t16.5 48.5v529q0 28 -15.5 49.5t-41 35.5t-58.5 21.5t-67 7.5
q-31 0 -61 -6v-323z" />
    <glyph glyph-name="Eogonek" unicode="&#x118;" horiz-adv-x="1018" 
d="M219 39q-27 0 -50 -4t-46.5 -8.5t-48 -8.5t-54.5 -4q60 198 82.5 401.5t22.5 411.5q0 195 -18 386.5t-66 373.5q22 0 42.5 -3.5t41 -7.5t42 -7.5t46.5 -3.5q42 0 80.5 7t76 15.5t75 15.5t77.5 7q33 0 63.5 -5.5t61.5 -12t63 -12t68 -5.5q30 0 55.5 5.5t49 12t47 12
t49.5 5.5q-14 -112 -30.5 -224t-16.5 -225q0 -35 2.5 -72.5t7.5 -72.5q-36 52 -72.5 113.5t-80.5 114.5t-99.5 88.5t-130.5 35.5q-18 0 -40 -2.5t-41.5 -10t-32.5 -20.5t-13 -35v-380l45 -5q38 0 70.5 11.5t62 29.5t55.5 39.5t52 40.5q0 -28 -4 -57.5t-8.5 -59.5t-8.5 -60.5
t-4 -61.5q0 -51 12 -102t21 -99q-33 0 -61 16.5t-56 36.5t-57 36.5t-64 16.5h-55v-378q0 -27 11.5 -43t29.5 -24t40.5 -10.5t43.5 -2.5q57 0 98 18.5t71 49t53.5 68.5t46 77.5t47.5 76.5t59 64q-2 -31 -3 -63t-1 -64q0 -127 16.5 -253t54.5 -247q-32 0 -61 10.5t-58 23.5
t-58.5 23.5t-61.5 10.5q-39 0 -75 -6t-72 -12.5t-73.5 -12.5t-78.5 -6q-35 0 -65.5 6t-59.5 12.5t-57.5 12.5t-59.5 6zM721 -397q-8 0 -15.5 3.5t-14.5 8t-14.5 8.5t-16.5 4q-20 0 -38 -6t-36 -12.5t-36 -12.5t-38 -6q-38 0 -76.5 13.5t-69.5 37.5t-50 58t-19 76
q0 62 26 118t69.5 98.5t100.5 67.5t119 25q17 0 36 -3t28 -20q-43 -11 -87 -31.5t-80 -50.5t-58.5 -69.5t-22.5 -89.5q0 -16 5 -32.5t14.5 -29.5t23 -21.5t31.5 -8.5q48 0 79.5 17t52.5 37t35 37t27 17q0 -45 4 -75.5t8.5 -55.5t8.5 -48.5t4 -53.5z" />
    <glyph glyph-name="eogonek" unicode="&#x119;" horiz-adv-x="1018" 
d="M217 45q-26 0 -49 -2t-46 -5t-47.5 -5t-54.5 -2q60 134 82.5 274.5t22.5 284.5q0 133 -18 264t-66 256q44 0 83 -7t87 -7q42 0 80.5 4.5t76 10.5t74.5 10.5t76 4.5q33 0 63.5 -4t61.5 -8.5t63 -8t68 -3.5q29 0 54 3.5t48.5 8t47 8.5t49.5 4q-14 -75 -30.5 -152
t-16.5 -155q0 -25 2.5 -50t7.5 -50q-36 36 -72 78.5t-80 78.5t-99 60.5t-130 24.5q-18 0 -39.5 -1.5t-40.5 -6.5t-32 -14t-13 -24v-262l45 -4q37 0 69 8t61 20t55.5 27t52.5 29q0 -19 -4 -39t-8.5 -41t-8.5 -42.5t-4 -43.5q0 -34 12 -69.5t21 -67.5q-33 0 -61.5 11.5
t-56 25.5t-56 25.5t-62.5 11.5h-55v-262q0 -18 11.5 -28.5t29.5 -16t39.5 -7.5t42.5 -2q57 0 98 13t71 33.5t53.5 47t45.5 53.5t47 52.5t58 44.5q-2 -22 -3 -44t-1 -44q0 -88 16.5 -174t54.5 -170q-32 0 -61 7t-57.5 15.5t-58 15.5t-60.5 7q-39 0 -75 -3.5t-72 -7.5
t-73 -7.5t-77 -3.5q-35 0 -65.5 3.5t-59.5 7.5t-57.5 7.5t-59.5 3.5zM721 -397q-8 0 -15.5 3.5t-14.5 8t-14.5 8.5t-16.5 4q-20 0 -38 -6t-36 -12.5t-36 -12.5t-38 -6q-38 0 -76.5 13.5t-69.5 37.5t-50 58t-19 76q0 62 26 118t69.5 98.5t100.5 67.5t119 25q17 0 36 -3
t28 -20q-43 -11 -87 -31.5t-80 -50.5t-58.5 -69.5t-22.5 -89.5q0 -16 5 -32.5t14.5 -29.5t23 -21.5t31.5 -8.5q48 0 79.5 17t52.5 37t35 37t27 17q0 -45 4 -75.5t8.5 -55.5t8.5 -48.5t4 -53.5z" />
    <glyph glyph-name="Ecaron" unicode="&#x11a;" horiz-adv-x="1018" 
d="M219 39q-27 0 -50 -4t-46.5 -8.5t-48 -8.5t-54.5 -4q60 198 82.5 401.5t22.5 411.5q0 195 -18 386.5t-66 373.5q22 0 42.5 -3.5t41 -7.5t42 -7.5t46.5 -3.5q42 0 80.5 7t76 15.5t75 15.5t77.5 7q33 0 63.5 -5.5t61.5 -12t63 -12t68 -5.5q30 0 55.5 5.5t49 12t47 12
t49.5 5.5q-14 -112 -30.5 -224t-16.5 -225q0 -35 2.5 -72.5t7.5 -72.5q-36 52 -72.5 113.5t-80.5 114.5t-99.5 88.5t-130.5 35.5q-18 0 -40 -2.5t-41.5 -10t-32.5 -20.5t-13 -35v-380l45 -5q38 0 70.5 11.5t62 29.5t55.5 39.5t52 40.5q0 -28 -4 -57.5t-8.5 -59.5t-8.5 -60.5
t-4 -61.5q0 -51 12 -102t21 -99q-33 0 -61 16.5t-56 36.5t-57 36.5t-64 16.5h-55v-378q0 -27 11.5 -43t29.5 -24t40.5 -10.5t43.5 -2.5q57 0 98 18.5t71 49t53.5 68.5t46 77.5t47.5 76.5t59 64q-2 -31 -3 -63t-1 -64q0 -127 16.5 -253t54.5 -247q-32 0 -61 10.5t-58 23.5
t-58.5 23.5t-61.5 10.5q-39 0 -75 -6t-72 -12.5t-73.5 -12.5t-78.5 -6q-35 0 -65.5 6t-59.5 12.5t-57.5 12.5t-59.5 6zM520 1888q18 0 44.5 16t58.5 39.5t68 51t73 51.5t73.5 40t69.5 17q-31 -37 -65 -86t-69 -100.5t-69.5 -101.5t-67 -89.5t-62 -63.5t-52.5 -24
q-30 0 -60 24t-61.5 62.5t-65 88t-69.5 100t-75.5 98.5t-82.5 84q43 0 82.5 -15t75.5 -38t69.5 -49.5t64.5 -49.5t61 -39t59 -16z" />
    <glyph glyph-name="ecaron" unicode="&#x11b;" horiz-adv-x="1018" 
d="M217 45q-26 0 -49 -2t-46 -5t-47.5 -5t-54.5 -2q60 134 82.5 274.5t22.5 284.5q0 133 -18 264t-66 256q44 0 83 -7t87 -7q42 0 80.5 4.5t76 10.5t74.5 10.5t76 4.5q33 0 63.5 -4t61.5 -8.5t63 -8t68 -3.5q29 0 54 3.5t48.5 8t47 8.5t49.5 4q-14 -75 -30.5 -152
t-16.5 -155q0 -25 2.5 -50t7.5 -50q-36 36 -72 78.5t-80 78.5t-99 60.5t-130 24.5q-18 0 -39.5 -1.5t-40.5 -6.5t-32 -14t-13 -24v-262l45 -4q37 0 69 8t61 20t55.5 27t52.5 29q0 -19 -4 -39t-8.5 -41t-8.5 -42.5t-4 -43.5q0 -34 12 -69.5t21 -67.5q-33 0 -61.5 11.5
t-56 25.5t-56 25.5t-62.5 11.5h-55v-262q0 -18 11.5 -28.5t29.5 -16t39.5 -7.5t42.5 -2q57 0 98 13t71 33.5t53.5 47t45.5 53.5t47 52.5t58 44.5q-2 -22 -3 -44t-1 -44q0 -88 16.5 -174t54.5 -170q-32 0 -61 7t-57.5 15.5t-58 15.5t-60.5 7q-39 0 -75 -3.5t-72 -7.5
t-73 -7.5t-77 -3.5q-35 0 -65.5 3.5t-59.5 7.5t-57.5 7.5t-59.5 3.5zM520 1401q18 0 44.5 16t58.5 39.5t68 51t73 51.5t73.5 40t69.5 17q-31 -37 -65 -86t-69 -100.5t-69.5 -101.5t-67 -89.5t-62 -63.5t-52.5 -24q-30 0 -60 24t-61.5 62.5t-65 88t-69.5 100t-75.5 98.5
t-82.5 84q43 0 82.5 -15t75.5 -38t69.5 -49.5t64.5 -49.5t61 -39t59 -16z" />
    <glyph glyph-name="dotlessi" unicode="&#x131;" horiz-adv-x="547" 
d="M113 963q0 30 -15 56.5t-33.5 48t-34 37.5t-16.5 25q31 0 63 -6t63.5 -13t62.5 -13t61 -6q27 0 63 6t73 13t70.5 13t55.5 6q-1 -21 -14.5 -39t-29.5 -39t-29 -47.5t-13 -64.5v-772q0 -22 13.5 -45.5t29.5 -45.5t29.5 -42.5t13.5 -36.5q-42 0 -78 5t-71.5 11.5t-73 11.5
t-82.5 5q-46 0 -94 -8.5t-102 -8.5q0 9 13.5 28.5t30 42.5t30.5 45.5t14 37.5v795z" />
    <glyph glyph-name="Lacute" unicode="&#x139;" horiz-adv-x="987" 
d="M623 1614q0 -11 -25 -34t-55 -56.5t-55 -78.5t-25 -99q-2 -73 -2 -142v-133v-485q0 -113 2 -181.5t12.5 -106t33.5 -50t64 -12.5q58 1 103.5 18.5t81 47t62 69t48.5 82.5t40.5 87t37.5 85q0 -38 -2 -80t-5 -86t-5 -88t-2 -86q0 -45 7 -87t15.5 -78t15.5 -66.5t7 -53.5
q-25 0 -45.5 6.5t-39.5 15t-37.5 15t-39.5 6.5q-35 0 -67 -6.5t-64.5 -15t-66.5 -15t-72 -6.5q-43 0 -81 8.5t-74.5 18t-72.5 18t-75 8.5q-29 0 -60 -8t-60.5 -17.5t-56 -17.5t-45.5 -8q0 36 16.5 59t37 46.5t37 53t16.5 77.5v1140q0 55 -13.5 84.5t-30 49t-30 36.5
t-14.5 47q37 0 71.5 -7.5t67.5 -16t65.5 -16t67.5 -7.5q42 0 81.5 10.5t77.5 22.5t76 22.5t77 10.5zM647 2070q29 0 51.5 -20.5t22.5 -49.5q0 -16 -22 -40.5t-58 -53t-83 -57.5t-97.5 -55.5t-101 -47t-92.5 -30.5v12q32 27 66.5 63t68.5 74t68 75t65.5 65.5t59.5 46.5t52 18
z" />
    <glyph glyph-name="lacute" unicode="&#x13a;" horiz-adv-x="987" 
d="M623 1130q0 -8 -25 -23.5t-55 -39.5t-55 -55.5t-25 -69.5q-2 -51 -2 -99v-93v-340q0 -79 2 -127t12.5 -74t33.5 -34.5t64 -8.5q88 0 146.5 26.5t100 67t70 88t56.5 90.5q0 -54 -7 -116.5t-7 -122.5q0 -32 7 -60.5t15.5 -54t15.5 -47t7 -37.5q-25 0 -45.5 5t-39.5 10.5
t-37.5 10.5t-39.5 5q-35 0 -67 -5t-64.5 -10.5t-66.5 -10.5t-72 -5q-43 0 -81 6t-74.5 12.5t-72.5 12.5t-75 6q-29 0 -60 -5.5t-60.5 -12t-56 -12t-45.5 -5.5q0 25 16.5 41.5t37 32.5t37 36t16.5 54v799q0 38 -13.5 59t-30 34.5t-30 25t-14.5 32.5q37 0 71.5 -5t67.5 -11.5
t65.5 -11.5t67.5 -5q42 0 81.5 7.5t77.5 16t76 16t77 7.5zM647 1583q29 0 51.5 -20.5t22.5 -49.5q0 -16 -22 -40.5t-58 -53t-83 -57.5t-97.5 -55.5t-101 -47t-92.5 -30.5v12q32 27 66.5 63t68.5 74t68 75t65.5 65.5t59.5 46.5t52 18z" />
    <glyph glyph-name="Lcaron" unicode="&#x13d;" horiz-adv-x="987" 
d="M623 1614q0 -11 -25 -34t-55 -56.5t-55 -78.5t-25 -99q-2 -73 -2 -142v-133v-485q0 -113 2 -181.5t12.5 -106t33.5 -50t64 -12.5q58 1 103.5 18.5t81 47t62 69t48.5 82.5t40.5 87t37.5 85q0 -38 -2 -80t-5 -86t-5 -88t-2 -86q0 -45 7 -87t15.5 -78t15.5 -66.5t7 -53.5
q-25 0 -45.5 6.5t-39.5 15t-37.5 15t-39.5 6.5q-35 0 -67 -6.5t-64.5 -15t-66.5 -15t-72 -6.5q-43 0 -81 8.5t-74.5 18t-72.5 18t-75 8.5q-29 0 -60 -8t-60.5 -17.5t-56 -17.5t-45.5 -8q0 36 16.5 59t37 46.5t37 53t16.5 77.5v1140q0 55 -13.5 84.5t-30 49t-30 36.5
t-14.5 47q37 0 71.5 -7.5t67.5 -16t65.5 -16t67.5 -7.5q42 0 81.5 10.5t77.5 22.5t76 22.5t77 10.5zM729 1041q-6 34 -11.5 58.5t-14 43.5t-21 35.5t-33.5 34.5q5 14 6.5 26.5t1.5 24.5q0 28 -6 55.5t-13.5 53.5t-13.5 51.5t-6 50.5q35 0 69.5 -7.5t72.5 -10.5h8
q40 3 78.5 12.5t79.5 11.5q-1 -26 -7.5 -51.5t-14 -51.5t-13.5 -52t-6 -52q0 -14 1.5 -26.5t6.5 -26.5q-26 -19 -40 -39t-22.5 -41.5t-13 -46.5t-10.5 -53h-78v0z" />
    <glyph glyph-name="lcaron" unicode="&#x13e;" horiz-adv-x="987" 
d="M623 1130q0 -8 -25 -23.5t-55 -39.5t-55 -55.5t-25 -69.5q-2 -51 -2 -99v-93v-340q0 -79 2 -127t12.5 -74t33.5 -34.5t64 -8.5q88 0 146.5 26.5t100 67t70 88t56.5 90.5q0 -54 -7 -116.5t-7 -122.5q0 -32 7 -60.5t15.5 -54t15.5 -47t7 -37.5q-25 0 -45.5 5t-39.5 10.5
t-37.5 10.5t-39.5 5q-35 0 -67 -5t-64.5 -10.5t-66.5 -10.5t-72 -5q-43 0 -81 6t-74.5 12.5t-72.5 12.5t-75 6q-29 0 -60 -5.5t-60.5 -12t-56 -12t-45.5 -5.5q0 25 16.5 41.5t37 32.5t37 36t16.5 54v799q0 38 -13.5 59t-30 34.5t-30 25t-14.5 32.5q37 0 71.5 -5t67.5 -11.5
t65.5 -11.5t67.5 -5q42 0 81.5 7.5t77.5 16t76 16t77 7.5zM707 577q-6 34 -11.5 58.5t-14 43.5t-21 35.5t-33.5 34.5q5 14 6.5 26.5t1.5 24.5q0 28 -6 55.5t-13.5 53.5t-13.5 51.5t-6 50.5q35 0 69.5 -7.5t72.5 -10.5h8q40 3 78.5 12.5t79.5 11.5q-1 -26 -7.5 -51.5
t-14 -51.5t-13.5 -52t-6 -52q0 -14 1.5 -26.5t6.5 -26.5q-26 -19 -40 -39t-22.5 -41.5t-13 -46.5t-10.5 -53h-78v0z" />
    <glyph glyph-name="Lslash" unicode="&#x141;" horiz-adv-x="1044" 
d="M678 1614q0 -11 -25 -34t-55 -56.5t-55 -78.5t-25 -99q-2 -73 -2 -142v-133v-72l49 17q65 21 103.5 39.5t62 33t36.5 24.5t28 15l2 -18l-6 -84v-13t2 -14q5 -31 11 -62.5t9 -55.5q-15 -6 -30.5 -5.5t-42 -1t-68.5 -9.5t-111 -31l-45 -17v-231q0 -113 2 -181.5t13 -106
t33.5 -50t64.5 -12.5q58 1 103.5 18.5t80.5 47t62 69t49 82.5t40.5 87t36.5 85q0 -38 -2 -80t-5 -86t-5 -88t-2 -86q0 -45 7 -87t15.5 -78t15.5 -66.5t7 -53.5q-24 0 -44.5 6.5t-39.5 15t-38 15t-40 6.5q-35 0 -67 -6.5t-64.5 -15t-66.5 -15t-72 -6.5q-43 0 -81 8.5
t-74.5 18t-72.5 18t-75 8.5q-29 0 -60 -8t-60.5 -17.5t-55.5 -17.5t-45 -8q0 36 16.5 59t36.5 46.5t36.5 53t16.5 77.5v462q-35 -17 -57.5 -31t-37.5 -25.5t-25 -19t-19 -10.5v148q-2 18 -6.5 36.5t-8.5 35t-7.5 30t-4.5 21.5q3 2 7 2h10q12 0 28.5 -2t40.5 -2q16 0 36 1.5
t44 6.5v487q0 55 -13.5 84.5t-30 49t-30 36.5t-14.5 47q38 0 72 -7.5t67 -16t66 -16t68 -7.5q41 0 80.5 10.5t77.5 22.5t76 22.5t77 10.5z" />
    <glyph glyph-name="lslash" unicode="&#x142;" horiz-adv-x="1044" 
d="M678 1130q0 -8 -25 -23.5t-55 -39.5t-55 -55.5t-25 -69.5q-2 -51 -2 -99v-93v-50l49 11q65 15 103.5 28.5t62 23.5t36.5 17.5t28 10.5l2 -15l-6 -57v-10t2 -9q5 -21 11 -44t9 -40q-8 -2 -15 -2h-14h-34q-26 0 -69.5 -5.5t-119.5 -24.5l-45 -13v-161q0 -79 2 -127t13 -74
t33.5 -34.5t64.5 -8.5q87 0 146 26.5t100 67t70 88t56 90.5q0 -54 -7 -116.5t-7 -122.5q0 -32 7 -60.5t15.5 -54t15.5 -47t7 -37.5q-24 0 -44.5 5t-39.5 10.5t-38 10.5t-40 5q-35 0 -67 -5t-64.5 -10.5t-66.5 -10.5t-72 -5q-43 0 -81 6t-74.5 12.5t-72.5 12.5t-75 6
q-29 0 -60 -5.5t-60.5 -12t-55.5 -12t-45 -5.5q0 25 16.5 41.5t36.5 32.5t36.5 36t16.5 54v323q-35 -11 -57.5 -21t-37.5 -17.5t-25 -13t-19 -7.5v102q-5 25 -15 50t-12 36q3 2 7.5 2.5t9.5 0.5q12 0 28.5 -1.5t40.5 -1.5q16 0 36 1t44 6v340q0 38 -13.5 59t-30 34.5t-30 25
t-14.5 32.5q38 0 72 -5t67 -11.5t66 -11.5t68 -5q41 0 80.5 7.5t77.5 16t76 16t77 7.5z" />
    <glyph glyph-name="Nacute" unicode="&#x143;" horiz-adv-x="1221" 
d="M106 1348q0 42 -13.5 75t-29.5 61t-29.5 51.5t-13.5 47.5q23 0 49.5 -5.5t54 -12t56 -12t56.5 -5.5q79 0 132 8.5t92 18.5t68 18.5t60 8.5q0 -13 -5.5 -29t-12 -33.5t-12 -37t-5.5 -38.5q0 -57 12 -123.5t32 -137.5t45.5 -145t52.5 -146.5t53 -142t47 -130.5v518
q0 84 -9 142t-22.5 98t-29 65.5t-29 45.5t-22.5 38.5t-9 44.5q29 0 63 -5t70 -11t72 -11t71 -5q31 0 61 8.5t58.5 19t57.5 19t59 8.5q0 -15 -9.5 -31t-23.5 -38t-30.5 -53.5t-30.5 -77.5t-23.5 -110t-9.5 -151v-889q0 -62 21.5 -107t48 -80t48 -63.5t21.5 -58.5
q-42 0 -82.5 13.5t-82 29.5t-85 29.5t-92.5 13.5q-35 0 -69 -6.5t-67.5 -15t-67 -15t-66.5 -6.5q-3 6 -3.5 11.5t-0.5 8.5q0 13 6 24.5t13.5 30t13.5 48.5t6 80q-32 94 -62 189t-61 189.5t-64 188t-72 184.5q0 -156 5 -313.5t8 -312.5q1 -46 21.5 -92.5t45 -90t44.5 -81.5
t20 -66q-33 0 -63 7.5t-58.5 16t-57 16t-59.5 7.5q-32 0 -62.5 -7.5t-60.5 -16t-61 -16t-64 -7.5q0 31 13.5 53.5t29.5 46t29.5 53t13.5 74.5v1125zM763 2070q29 0 51.5 -20.5t22.5 -49.5q0 -16 -22 -40.5t-58 -53t-83 -57.5t-97.5 -55.5t-101 -47t-92.5 -30.5v12
q32 27 66.5 63t68.5 74t68 75t65.5 65.5t59.5 46.5t52 18z" />
    <glyph glyph-name="nacute" unicode="&#x144;" horiz-adv-x="1221" 
d="M106 944q0 29 -13.5 52t-29.5 42.5t-29.5 36t-13.5 33.5q23 0 49.5 -4t54 -8.5t56 -8.5t56.5 -4q79 0 132 6t92 12.5t68 12.5t60 6q0 -9 -5.5 -20t-12 -23t-12 -25t-5.5 -26q0 -61 26 -135t63.5 -151.5t79 -153.5t73.5 -140v365q0 59 -9 99.5t-22.5 68t-29 45.5t-29 32
t-22.5 27t-9 31q29 0 63 -3.5t70 -7.5t72 -7.5t71 -3.5q31 0 61 6t58.5 13t57.5 13t59 6q0 -11 -9.5 -22t-23.5 -26.5t-30.5 -37.5t-30.5 -54.5t-23.5 -77t-9.5 -105.5v-623q0 -43 21.5 -74t48 -55.5t48 -44.5t21.5 -41q-42 0 -82.5 9.5t-82 20.5t-85 20.5t-92.5 9.5
q-35 0 -69 -5t-67.5 -10.5t-67 -10.5t-66.5 -5q-3 5 -3.5 8.5t-0.5 5.5q0 9 6 17.5t13.5 21.5t13.5 34t6 56q-32 65 -62 131.5t-61 133t-64 132t-72 130.5q0 -110 5 -220.5t8 -220.5q1 -32 21.5 -64.5t45 -62.5t44.5 -56t20 -46q-33 0 -63 5t-58.5 11.5t-57 11.5t-59.5 5
q-32 0 -62.5 -5t-60.5 -11.5t-61 -11.5t-64 -5q0 21 13.5 37t29.5 32.5t29.5 37t13.5 51.5v788zM763 1583q29 0 51.5 -20.5t22.5 -49.5q0 -16 -22 -40.5t-58 -53t-83 -57.5t-97.5 -55.5t-101 -47t-92.5 -30.5v12q32 27 66.5 63t68.5 74t68 75t65.5 65.5t59.5 46.5t52 18z
" />
    <glyph glyph-name="Ncaron" unicode="&#x147;" horiz-adv-x="1221" 
d="M106 1348q0 42 -13.5 75t-29.5 61t-29.5 51.5t-13.5 47.5q23 0 49.5 -5.5t54 -12t56 -12t56.5 -5.5q79 0 132 8.5t92 18.5t68 18.5t60 8.5q0 -13 -5.5 -29t-12 -33.5t-12 -37t-5.5 -38.5q0 -57 12 -123.5t32 -137.5t45.5 -145t52.5 -146.5t53 -142t47 -130.5v518
q0 84 -9 142t-22.5 98t-29 65.5t-29 45.5t-22.5 38.5t-9 44.5q29 0 63 -5t70 -11t72 -11t71 -5q31 0 61 8.5t58.5 19t57.5 19t59 8.5q0 -15 -9.5 -31t-23.5 -38t-30.5 -53.5t-30.5 -77.5t-23.5 -110t-9.5 -151v-889q0 -62 21.5 -107t48 -80t48 -63.5t21.5 -58.5
q-42 0 -82.5 13.5t-82 29.5t-85 29.5t-92.5 13.5q-35 0 -69 -6.5t-67.5 -15t-67 -15t-66.5 -6.5q-3 6 -3.5 11.5t-0.5 8.5q0 13 6 24.5t13.5 30t13.5 48.5t6 80q-32 94 -62 189t-61 189.5t-64 188t-72 184.5q0 -156 5 -313.5t8 -312.5q1 -46 21.5 -92.5t45 -90t44.5 -81.5
t20 -66q-33 0 -63 7.5t-58.5 16t-57 16t-59.5 7.5q-32 0 -62.5 -7.5t-60.5 -16t-61 -16t-64 -7.5q0 31 13.5 53.5t29.5 46t29.5 53t13.5 74.5v1125zM623 1888q18 0 44.5 16t58.5 39.5t68 51t73 51.5t73.5 40t69.5 17q-31 -37 -65 -86t-69 -100.5t-69.5 -101.5t-67 -89.5
t-62 -63.5t-52.5 -24q-30 0 -60 24t-61.5 62.5t-65 88t-69.5 100t-75.5 98.5t-82.5 84q43 0 82.5 -15t75.5 -38t69.5 -49.5t64.5 -49.5t61 -39t59 -16z" />
    <glyph glyph-name="ncaron" unicode="&#x148;" horiz-adv-x="1221" 
d="M106 944q0 29 -13.5 52t-29.5 42.5t-29.5 36t-13.5 33.5q23 0 49.5 -4t54 -8.5t56 -8.5t56.5 -4q79 0 132 6t92 12.5t68 12.5t60 6q0 -9 -5.5 -20t-12 -23t-12 -25t-5.5 -26q0 -61 26 -135t63.5 -151.5t79 -153.5t73.5 -140v365q0 59 -9 99.5t-22.5 68t-29 45.5t-29 32
t-22.5 27t-9 31q29 0 63 -3.5t70 -7.5t72 -7.5t71 -3.5q31 0 61 6t58.5 13t57.5 13t59 6q0 -11 -9.5 -22t-23.5 -26.5t-30.5 -37.5t-30.5 -54.5t-23.5 -77t-9.5 -105.5v-623q0 -43 21.5 -74t48 -55.5t48 -44.5t21.5 -41q-42 0 -82.5 9.5t-82 20.5t-85 20.5t-92.5 9.5
q-35 0 -69 -5t-67.5 -10.5t-67 -10.5t-66.5 -5q-3 5 -3.5 8.5t-0.5 5.5q0 9 6 17.5t13.5 21.5t13.5 34t6 56q-32 65 -62 131.5t-61 133t-64 132t-72 130.5q0 -110 5 -220.5t8 -220.5q1 -32 21.5 -64.5t45 -62.5t44.5 -56t20 -46q-33 0 -63 5t-58.5 11.5t-57 11.5t-59.5 5
q-32 0 -62.5 -5t-60.5 -11.5t-61 -11.5t-64 -5q0 21 13.5 37t29.5 32.5t29.5 37t13.5 51.5v788zM623 1401q18 0 44.5 16t58.5 39.5t68 51t73 51.5t73.5 40t69.5 17q-31 -37 -65 -86t-69 -100.5t-69.5 -101.5t-67 -89.5t-62 -63.5t-52.5 -24q-30 0 -60 24t-61.5 62.5t-65 88
t-69.5 100t-75.5 98.5t-82.5 84q43 0 82.5 -15t75.5 -38t69.5 -49.5t64.5 -49.5t61 -39t59 -16z" />
    <glyph glyph-name="uni0150" unicode="&#x150;" horiz-adv-x="913" 
d="M23 1161q0 113 37 198t97.5 141.5t139 85t162.5 28.5q85 0 163 -29t138 -87.5t95.5 -145.5t35.5 -203v-651q0 -108 -34.5 -199t-94 -157.5t-139.5 -104t-172 -37.5q-78 0 -153.5 24.5t-135.5 74.5t-98 125.5t-41 176.5v760zM565 1161q0 39 -8.5 67.5t-22.5 47t-32 28
t-37 9.5q-21 0 -43 -10.5t-40 -31.5t-29 -51.5t-11 -70.5v-715q5 -63 39.5 -94t75.5 -31q21 0 40.5 7.5t34.5 23.5t24 39t9 55v727zM795 2070q14 0 27.5 -5.5t23.5 -15t16 -22t6 -27.5q0 -16 -22 -40.5t-58 -53t-83 -57.5t-97.5 -55.5t-101 -47t-92.5 -30.5v12
q32 27 66.5 63t68.5 74t68 75t65.5 65.5t60 46.5t52.5 18zM426 2070q29 0 51.5 -20.5t22.5 -49.5q0 -16 -22 -40.5t-58.5 -53t-83.5 -57.5t-97.5 -55.5t-101 -47t-92.5 -30.5v12q32 27 66.5 63t69 74t68.5 75t65.5 65.5t59.5 46.5t52 18z" />
    <glyph glyph-name="uni0151" unicode="&#x151;" horiz-adv-x="913" 
d="M23 813q0 79 37 138.5t97.5 99t139 59.5t162.5 20q85 0 163 -20.5t138 -61.5t95.5 -101.5t35.5 -141.5v-457q0 -75 -34.5 -139t-94 -110.5t-139.5 -72.5t-172 -26q-78 0 -153.5 17.5t-135.5 52.5t-98 87.5t-41 123.5v532zM565 813q0 27 -8.5 47t-22.5 33.5t-32 20
t-37 6.5q-21 0 -43 -7.5t-40 -22t-29 -36t-11 -49.5v-502q5 -43 39.5 -64.5t75.5 -21.5q21 0 40.5 5.5t34.5 16t24 27t9 37.5v510zM795 1583q14 0 27.5 -5.5t23.5 -15t16 -22t6 -27.5q0 -16 -22 -40.5t-58 -53t-83 -57.5t-97.5 -55.5t-101 -47t-92.5 -30.5v12q32 27 66.5 63
t68.5 74t68 75t65.5 65.5t60 46.5t52.5 18zM426 1583q29 0 51.5 -20.5t22.5 -49.5q0 -16 -22 -40.5t-58.5 -53t-83.5 -57.5t-97.5 -55.5t-101 -47t-92.5 -30.5v12q32 27 66.5 63t69 74t68.5 75t65.5 65.5t59.5 46.5t52 18z" />
    <glyph glyph-name="OE" unicode="&#x152;" horiz-adv-x="1477" 
d="M676 66q-101 -66 -223 -66q-78 0 -154.5 24.5t-137 74.5t-98.5 125.5t-38 176.5v760q0 113 37 198t97.5 141.5t139 85t162.5 28.5q112 0 207 -49h2q41 0 79.5 7t76 15.5t75 15.5t76.5 7q33 0 63.5 -5.5t61.5 -12t63 -12t68 -5.5q29 0 54 5.5t48.5 12t47 12t49.5 5.5
q-14 -110 -31 -219.5t-17 -221.5q0 -35 3 -71.5t8 -71.5q-24 34 -48 73t-50 77.5t-55 74t-63 62.5t-75 43t-90 16q-18 0 -39.5 -2.5t-40.5 -9.5t-32 -19.5t-13 -33.5v-84q2 -19 3 -37t1 -37v-217l41 -4q37 0 69 11.5t61 28.5t55.5 38t51.5 41q0 -28 -4 -57t-8.5 -59t-8 -60
t-3.5 -60q0 -50 11.5 -100t21.5 -97q-33 0 -61.5 16.5t-56 36t-56 36t-62.5 16.5h-51v-221q0 -19 -1 -37t-3 -35v-80q0 -26 11.5 -41.5t29 -23.5t39.5 -10.5t43 -2.5q57 0 97.5 18.5t71 48t53.5 67.5t45.5 76.5t47 74.5t57.5 63q-2 -31 -3 -62.5t-1 -61.5q0 -125 17 -249
t55 -243q-32 0 -60 10.5t-56.5 22.5t-58 22.5t-63.5 10.5q-38 0 -74 -5.5t-72 -12t-73 -12t-77 -5.5q-35 0 -65.5 5.5t-59.5 12t-57.5 12t-59.5 5.5zM459 309q28 0 53 13t39 40q5 31 9 61.5t7 61.5v676q0 39 -8.5 67.5t-22.5 47t-32 28t-37 9.5q-21 0 -43 -10.5t-40 -31.5
t-29 -51.5t-11 -70.5v-715q2 -32 13 -55t27 -39t35.5 -23.5t39.5 -7.5z" />
    <glyph glyph-name="oe" unicode="&#x153;" horiz-adv-x="1477" 
d="M676 45q-50 -22 -105.5 -33.5t-117.5 -11.5q-78 0 -154.5 17.5t-137 52.5t-98.5 87.5t-38 123.5v532q0 79 37 138.5t97.5 99t139 59.5t162.5 20q56 0 108 -8.5t99 -25.5h2q41 0 79.5 4.5t76 10.5t75 10.5t76.5 4.5q33 0 63.5 -4t61.5 -8.5t63 -8t68 -3.5q29 0 54 3.5
t48.5 8t47 8.5t49.5 4q-14 -75 -31 -152.5t-17 -154.5q0 -25 3 -50t8 -50q-36 36 -72.5 78.5t-80 78.5t-99 60.5t-129.5 24.5q-18 0 -39.5 -1.5t-40.5 -6.5t-32 -14t-13 -24v-59q2 -12 3 -25.5t1 -25.5v-152l41 -4q37 0 69 8t61 20t55.5 27t51.5 29q0 -19 -4 -39t-8.5 -41
t-8 -42.5t-3.5 -43.5q0 -34 11.5 -69.5t21.5 -67.5q-33 0 -61.5 11.5t-56 25.5t-56 25.5t-62.5 11.5h-51v-156q0 -12 -1 -25t-3 -24v-57q0 -18 11.5 -28.5t29 -16t39.5 -7.5t43 -2q57 0 97.5 13t71 33.5t53.5 47t45.5 53.5t47 52.5t57.5 44.5q-2 -22 -3 -44t-1 -44
q0 -88 17 -174t55 -170q-32 0 -60 7t-56.5 15.5t-58 15.5t-63.5 7q-38 0 -74 -3.5t-72 -7.5t-73 -7.5t-77 -3.5q-35 0 -65.5 3.5t-59.5 7.5t-57.5 7.5t-59.5 3.5zM459 217q28 0 53 8.5t39 28.5q5 22 9 43t7 43v473q0 27 -8.5 47t-22.5 33.5t-32 20t-37 6.5q-21 0 -43 -7.5
t-40 -22t-29 -36t-11 -49.5v-502q2 -21 13 -37.5t27 -27t35.5 -16t39.5 -5.5z" />
    <glyph glyph-name="Racute" unicode="&#x154;" horiz-adv-x="1114" 
d="M129 1391q0 29 -13 53t-28 47.5t-28 47t-13 50.5q30 0 58 -4t56 -8.5t57.5 -8t62.5 -3.5q48 0 91.5 7t86 15.5t84.5 15.5t86 7q100 0 176.5 -38t127.5 -100.5t77 -143.5t26 -167q0 -57 -13 -114t-39 -108t-66 -93.5t-95 -71.5q70 -51 108.5 -118t56.5 -142t21 -154.5
t3 -156.5v-8q0 -42 13 -73.5t29 -58.5t29 -52.5t13 -53.5q-29 0 -67.5 6.5t-85.5 14.5t-102 14.5t-118 7.5h-2q-14 0 -22.5 23.5t-13 57t-6 70t-1.5 62.5q0 42 4 93.5t4 105.5q0 48 -6.5 93.5t-25.5 81t-53.5 57t-90.5 22.5q-14 0 -29 -1.5t-30 -5.5v-483q0 -31 10 -56
t22.5 -47.5t22.5 -43t10 -41.5q-32 0 -65 4t-67.5 9t-68.5 9t-67 4q-28 0 -56.5 -5.5t-57 -11.5t-58 -11.5t-58.5 -5.5q0 20 8 38t20.5 38t27 43t27 53t20.5 68.5t8 88.5v1082zM451 893q21 -8 39.5 -10t35.5 -2q47 0 81.5 21t57.5 55.5t34.5 78t11.5 88.5t-10.5 87.5
t-31.5 75.5t-51.5 53t-70.5 20q-41 0 -96 -29v-438zM710 2070q29 0 51.5 -20.5t22.5 -49.5q0 -16 -22 -40.5t-58 -53t-83 -57.5t-97.5 -55.5t-101 -47t-92.5 -30.5v12q32 27 66.5 63t68.5 74t68 75t65.5 65.5t59.5 46.5t52 18z" />
    <glyph glyph-name="racute" unicode="&#x155;" horiz-adv-x="1114" 
d="M129 973q0 21 -13 38t-28 33t-28 32.5t-13 35.5q30 0 58 -2.5t56 -5.5t57.5 -5.5t62.5 -2.5q48 0 91.5 4.5t86 10.5t84.5 10.5t86 4.5q100 0 176.5 -26.5t127.5 -70t77 -100t26 -116.5q0 -41 -13 -80.5t-39 -75t-66 -65t-95 -49.5q70 -36 108.5 -83.5t56.5 -100
t21 -108.5t3 -110v-6q0 -29 13 -50.5t29 -40.5t29 -37t13 -38q-29 0 -67.5 4.5t-85.5 10t-102 10.5t-118 6h-2q-14 0 -22.5 16.5t-13 40t-6 49t-1.5 44.5q0 29 4 65t4 74q0 34 -6.5 65.5t-25.5 56.5t-53.5 40t-90.5 16q-29 0 -59 -6v-338q0 -21 10 -39t22.5 -33.5
t22.5 -29.5t10 -29q-63 0 -132.5 9t-135.5 9q-28 0 -56.5 -4t-57 -8.5t-58 -8t-58.5 -3.5q0 21 17.5 39.5t38 43.5t38 60t17.5 88v756zM451 625q21 -5 39.5 -7t35.5 -2q47 0 81.5 14.5t57.5 38.5t34.5 54.5t11.5 62.5q0 31 -10.5 61t-31.5 53.5t-51.5 37.5t-70.5 14
q-22 0 -45.5 -5.5t-50.5 -14.5v-307zM710 1583q29 0 51.5 -20.5t22.5 -49.5q0 -16 -22 -40.5t-58 -53t-83 -57.5t-97.5 -55.5t-101 -47t-92.5 -30.5v12q32 27 66.5 63t68.5 74t68 75t65.5 65.5t59.5 46.5t52 18z" />
    <glyph glyph-name="Rcaron" unicode="&#x158;" horiz-adv-x="1114" 
d="M129 1391q0 29 -13 53t-28 47.5t-28 47t-13 50.5q30 0 58 -4t56 -8.5t57.5 -8t62.5 -3.5q48 0 91.5 7t86 15.5t84.5 15.5t86 7q100 0 176.5 -38t127.5 -100.5t77 -143.5t26 -167q0 -57 -13 -114t-39 -108t-66 -93.5t-95 -71.5q70 -51 108.5 -118t56.5 -142t21 -154.5
t3 -156.5v-8q0 -42 13 -73.5t29 -58.5t29 -52.5t13 -53.5q-29 0 -67.5 6.5t-85.5 14.5t-102 14.5t-118 7.5h-2q-14 0 -22.5 23.5t-13 57t-6 70t-1.5 62.5q0 42 4 93.5t4 105.5q0 48 -6.5 93.5t-25.5 81t-53.5 57t-90.5 22.5q-14 0 -29 -1.5t-30 -5.5v-483q0 -31 10 -56
t22.5 -47.5t22.5 -43t10 -41.5q-32 0 -65 4t-67.5 9t-68.5 9t-67 4q-28 0 -56.5 -5.5t-57 -11.5t-58 -11.5t-58.5 -5.5q0 20 8 38t20.5 38t27 43t27 53t20.5 68.5t8 88.5v1082zM451 893q21 -8 39.5 -10t35.5 -2q47 0 81.5 21t57.5 55.5t34.5 78t11.5 88.5t-10.5 87.5
t-31.5 75.5t-51.5 53t-70.5 20q-41 0 -96 -29v-438zM569 1888q18 0 44.5 16t58.5 39.5t68 51t73 51.5t73.5 40t69.5 17q-31 -37 -65 -86t-69 -100.5t-69.5 -101.5t-67 -89.5t-62 -63.5t-52.5 -24q-30 0 -60 24t-61.5 62.5t-65 88t-69.5 100t-75.5 98.5t-82.5 84
q43 0 82.5 -15t75.5 -38t69.5 -49.5t64.5 -49.5t61 -39t59 -16z" />
    <glyph glyph-name="rcaron" unicode="&#x159;" horiz-adv-x="1114" 
d="M129 973q0 21 -13 38t-28 33t-28 32.5t-13 35.5q30 0 58 -2.5t56 -5.5t57.5 -5.5t62.5 -2.5q48 0 91.5 4.5t86 10.5t84.5 10.5t86 4.5q100 0 176.5 -26.5t127.5 -70t77 -100t26 -116.5q0 -41 -13 -80.5t-39 -75t-66 -65t-95 -49.5q70 -36 108.5 -83.5t56.5 -100
t21 -108.5t3 -110v-6q0 -29 13 -50.5t29 -40.5t29 -37t13 -38q-29 0 -67.5 4.5t-85.5 10t-102 10.5t-118 6h-2q-14 0 -22.5 16.5t-13 40t-6 49t-1.5 44.5q0 29 4 65t4 74q0 34 -6.5 65.5t-25.5 56.5t-53.5 40t-90.5 16q-29 0 -59 -6v-338q0 -21 10 -39t22.5 -33.5
t22.5 -29.5t10 -29q-63 0 -132.5 9t-135.5 9q-28 0 -56.5 -4t-57 -8.5t-58 -8t-58.5 -3.5q0 21 17.5 39.5t38 43.5t38 60t17.5 88v756zM451 625q21 -5 39.5 -7t35.5 -2q47 0 81.5 14.5t57.5 38.5t34.5 54.5t11.5 62.5q0 31 -10.5 61t-31.5 53.5t-51.5 37.5t-70.5 14
q-22 0 -45.5 -5.5t-50.5 -14.5v-307zM569 1401q18 0 44.5 16t58.5 39.5t68 51t73 51.5t73.5 40t69.5 17q-31 -37 -65 -86t-69 -100.5t-69.5 -101.5t-67 -89.5t-62 -63.5t-52.5 -24q-30 0 -60 24t-61.5 62.5t-65 88t-69.5 100t-75.5 98.5t-82.5 84q43 0 82.5 -15t75.5 -38
t69.5 -49.5t64.5 -49.5t61 -39t59 -16z" />
    <glyph glyph-name="Sacute" unicode="&#x15a;" horiz-adv-x="942" 
d="M86 705q21 0 41 -33.5t45.5 -83.5t57.5 -108.5t75.5 -108.5t101.5 -83.5t134 -33.5q19 0 35.5 8.5t28.5 22.5t19 32.5t7 38.5q0 69 -26 126.5t-69 108t-97.5 96.5t-111.5 92.5t-111.5 95.5t-97.5 105t-69 122t-26 147q0 73 30.5 139t81.5 116.5t117.5 80t138.5 29.5
q45 0 87.5 -7t83.5 -15.5t82 -15.5t83 -7q27 0 51 7t47 15.5t45.5 15.5t47.5 7q-38 -156 -82.5 -310.5t-87.5 -310.5q-8 39 -18.5 81.5t-26 83t-37.5 77t-53.5 64t-73.5 43.5t-97 16q-24 0 -45.5 -8t-38 -23.5t-26.5 -37.5t-10 -50q0 -34 25.5 -71.5t67.5 -79t96 -87
t110 -96.5t110 -108t96 -120.5t67.5 -133.5t25.5 -148q0 -88 -29.5 -161t-81 -125t-120.5 -80.5t-148 -28.5q-41 0 -81.5 8t-80.5 17.5t-80 17.5t-80 8q-26 0 -53 -8t-53 -17.5t-49 -17.5t-41 -8q0 49 12.5 86.5t27 76t27 83t12.5 108.5q0 52 -2.5 101.5t-5.5 94.5t-5.5 84
t-2.5 71zM624 2070q29 0 51.5 -20.5t22.5 -49.5q0 -16 -22 -40.5t-58 -53t-83 -57.5t-97.5 -55.5t-101 -47t-92.5 -30.5v12q32 27 66.5 63t68.5 74t68 75t65.5 65.5t59.5 46.5t52 18z" />
    <glyph glyph-name="sacute" unicode="&#x15b;" horiz-adv-x="942" 
d="M86 494q21 0 41 -23.5t45.5 -58.5t57.5 -76t75.5 -76t101.5 -58.5t134 -23.5q19 0 35.5 6t28.5 16t19 23t7 27q0 48 -26 88.5t-69 75.5t-97.5 67.5t-111.5 64.5t-111.5 66t-97.5 73.5t-69 86t-26 102.5q0 52 30.5 98.5t81.5 81.5t117.5 55.5t138.5 20.5q45 0 87.5 -5
t83.5 -11t82 -11t83 -5q27 0 51 5t47 11t45.5 11t47.5 5q-38 -109 -82.5 -217t-87.5 -217q-12 41 -30 85.5t-52 82t-88 62t-136 24.5q-24 0 -45.5 -5.5t-38 -16t-26.5 -26t-10 -34.5q0 -24 25.5 -50.5t67.5 -55.5t96 -61t110 -68t110 -76t96 -84t67.5 -93t25.5 -104
q0 -61 -29.5 -112t-81 -87.5t-120.5 -56.5t-148 -20q-41 0 -81.5 5.5t-80.5 12t-80 12t-80 5.5q-26 0 -53 -5.5t-53 -12t-49 -12t-41 -5.5q0 34 12.5 60.5t27 53.5t27 58t12.5 76q0 72 -8 136.5t-8 109.5zM624 1583q29 0 51.5 -20.5t22.5 -49.5q0 -16 -22 -40.5t-58 -53
t-83 -57.5t-97.5 -55.5t-101 -47t-92.5 -30.5v12q32 27 66.5 63t68.5 74t68 75t65.5 65.5t59.5 46.5t52 18z" />
    <glyph glyph-name="Scedilla" unicode="&#x15e;" horiz-adv-x="942" 
d="M86 705q21 0 41 -33.5t45.5 -83.5t57.5 -108.5t75.5 -108.5t101.5 -83.5t134 -33.5q19 0 35.5 8.5t28.5 22.5t19 32.5t7 38.5q0 69 -26 126.5t-69 108t-97.5 96.5t-111.5 92.5t-111.5 95.5t-97.5 105t-69 122t-26 147q0 73 30.5 139t81.5 116.5t117.5 80t138.5 29.5
q45 0 87.5 -7t83.5 -15.5t82 -15.5t83 -7q27 0 51 7t47 15.5t45.5 15.5t47.5 7q-38 -156 -82.5 -310.5t-87.5 -310.5q-8 39 -18.5 81.5t-26 83t-37.5 77t-53.5 64t-73.5 43.5t-97 16q-24 0 -45.5 -8t-38 -23.5t-26.5 -37.5t-10 -50q0 -34 25.5 -71.5t67.5 -79t96 -87
t110 -96.5t110 -108t96 -120.5t67.5 -133.5t25.5 -148q0 -88 -29.5 -161t-81 -125t-120.5 -80.5t-148 -28.5q-41 0 -81.5 8t-80.5 17.5t-80 17.5t-80 8q-26 0 -53 -8t-53 -17.5t-49 -17.5t-41 -8q0 49 12.5 86.5t27 76t27 83t12.5 108.5q0 52 -2.5 101.5t-5.5 94.5t-5.5 84
t-2.5 71zM534 20q-5 -6 -5.5 -14t-0.5 -16v-21q27 0 50 -10.5t39.5 -27.5t26 -39t9.5 -44q0 -37 -17 -70.5t-46.5 -59t-70 -41t-87.5 -15.5q-37 0 -75 3.5t-70 19.5q17 35 25 74t11 79q23 -29 51.5 -51.5t71.5 -22.5q15 0 32.5 3t32.5 10.5t24.5 19t9.5 29.5q0 12 -6 20
t-15 12.5t-19.5 6.5t-19.5 2q-25 0 -46.5 -4t-43.5 -4l10 110q0 14 -2 26.5t-8 24.5h139z" />
    <glyph glyph-name="Scedilla" unicode="&#xf6c1;" horiz-adv-x="942" 
d="M86 705q21 0 41 -33.5t45.5 -83.5t57.5 -108.5t75.5 -108.5t101.5 -83.5t134 -33.5q19 0 35.5 8.5t28.5 22.5t19 32.5t7 38.5q0 69 -26 126.5t-69 108t-97.5 96.5t-111.5 92.5t-111.5 95.5t-97.5 105t-69 122t-26 147q0 73 30.5 139t81.5 116.5t117.5 80t138.5 29.5
q45 0 87.5 -7t83.5 -15.5t82 -15.5t83 -7q27 0 51 7t47 15.5t45.5 15.5t47.5 7q-38 -156 -82.5 -310.5t-87.5 -310.5q-8 39 -18.5 81.5t-26 83t-37.5 77t-53.5 64t-73.5 43.5t-97 16q-24 0 -45.5 -8t-38 -23.5t-26.5 -37.5t-10 -50q0 -34 25.5 -71.5t67.5 -79t96 -87
t110 -96.5t110 -108t96 -120.5t67.5 -133.5t25.5 -148q0 -88 -29.5 -161t-81 -125t-120.5 -80.5t-148 -28.5q-41 0 -81.5 8t-80.5 17.5t-80 17.5t-80 8q-26 0 -53 -8t-53 -17.5t-49 -17.5t-41 -8q0 49 12.5 86.5t27 76t27 83t12.5 108.5q0 52 -2.5 101.5t-5.5 94.5t-5.5 84
t-2.5 71zM534 20q-5 -6 -5.5 -14t-0.5 -16v-21q27 0 50 -10.5t39.5 -27.5t26 -39t9.5 -44q0 -37 -17 -70.5t-46.5 -59t-70 -41t-87.5 -15.5q-37 0 -75 3.5t-70 19.5q17 35 25 74t11 79q23 -29 51.5 -51.5t71.5 -22.5q15 0 32.5 3t32.5 10.5t24.5 19t9.5 29.5q0 12 -6 20
t-15 12.5t-19.5 6.5t-19.5 2q-25 0 -46.5 -4t-43.5 -4l10 110q0 14 -2 26.5t-8 24.5h139z" />
    <glyph glyph-name="scedilla" unicode="&#x15f;" horiz-adv-x="942" 
d="M86 494q21 0 41 -23.5t45.5 -58.5t57.5 -76t75.5 -76t101.5 -58.5t134 -23.5q19 0 35.5 6t28.5 16t19 23t7 27q0 48 -26 88.5t-69 75.5t-97.5 67.5t-111.5 64.5t-111.5 66t-97.5 73.5t-69 86t-26 102.5q0 52 30.5 98.5t81.5 81.5t117.5 55.5t138.5 20.5q45 0 87.5 -5
t83.5 -11t82 -11t83 -5q27 0 51 5t47 11t45.5 11t47.5 5q-38 -109 -82.5 -217t-87.5 -217q-12 41 -30 85.5t-52 82t-88 62t-136 24.5q-24 0 -45.5 -5.5t-38 -16t-26.5 -26t-10 -34.5q0 -24 25.5 -50.5t67.5 -55.5t96 -61t110 -68t110 -76t96 -84t67.5 -93t25.5 -104
q0 -61 -29.5 -112t-81 -87.5t-120.5 -56.5t-148 -20q-41 0 -81.5 5.5t-80.5 12t-80 12t-80 5.5q-26 0 -53 -5.5t-53 -12t-49 -12t-41 -5.5q0 34 12.5 60.5t27 53.5t27 58t12.5 76q0 72 -8 136.5t-8 109.5zM534 20q-5 -6 -5.5 -14t-0.5 -16v-21q27 0 50 -10.5t39.5 -27.5
t26 -39t9.5 -44q0 -37 -17 -70.5t-46.5 -59t-70 -41t-87.5 -15.5q-37 0 -75 3.5t-70 19.5q17 35 25 74t11 79q23 -29 51.5 -51.5t71.5 -22.5q15 0 32.5 3t32.5 10.5t24.5 19t9.5 29.5q0 12 -6 20t-15 12.5t-19.5 6.5t-19.5 2q-25 0 -46.5 -4t-43.5 -4l10 110q0 14 -2 26.5
t-8 24.5h139z" />
    <glyph glyph-name="scedilla" unicode="&#xf6c2;" horiz-adv-x="942" 
d="M86 494q21 0 41 -23.5t45.5 -58.5t57.5 -76t75.5 -76t101.5 -58.5t134 -23.5q19 0 35.5 6t28.5 16t19 23t7 27q0 48 -26 88.5t-69 75.5t-97.5 67.5t-111.5 64.5t-111.5 66t-97.5 73.5t-69 86t-26 102.5q0 52 30.5 98.5t81.5 81.5t117.5 55.5t138.5 20.5q45 0 87.5 -5
t83.5 -11t82 -11t83 -5q27 0 51 5t47 11t45.5 11t47.5 5q-38 -109 -82.5 -217t-87.5 -217q-12 41 -30 85.5t-52 82t-88 62t-136 24.5q-24 0 -45.5 -5.5t-38 -16t-26.5 -26t-10 -34.5q0 -24 25.5 -50.5t67.5 -55.5t96 -61t110 -68t110 -76t96 -84t67.5 -93t25.5 -104
q0 -61 -29.5 -112t-81 -87.5t-120.5 -56.5t-148 -20q-41 0 -81.5 5.5t-80.5 12t-80 12t-80 5.5q-26 0 -53 -5.5t-53 -12t-49 -12t-41 -5.5q0 34 12.5 60.5t27 53.5t27 58t12.5 76q0 72 -8 136.5t-8 109.5zM534 20q-5 -6 -5.5 -14t-0.5 -16v-21q27 0 50 -10.5t39.5 -27.5
t26 -39t9.5 -44q0 -37 -17 -70.5t-46.5 -59t-70 -41t-87.5 -15.5q-37 0 -75 3.5t-70 19.5q17 35 25 74t11 79q23 -29 51.5 -51.5t71.5 -22.5q15 0 32.5 3t32.5 10.5t24.5 19t9.5 29.5q0 12 -6 20t-15 12.5t-19.5 6.5t-19.5 2q-25 0 -46.5 -4t-43.5 -4l10 110q0 14 -2 26.5
t-8 24.5h139z" />
    <glyph glyph-name="Scaron" unicode="&#x160;" horiz-adv-x="942" 
d="M86 705q21 0 41 -33.5t45.5 -83.5t57.5 -108.5t75.5 -108.5t101.5 -83.5t134 -33.5q19 0 35.5 8.5t28.5 22.5t19 32.5t7 38.5q0 69 -26 126.5t-69 108t-97.5 96.5t-111.5 92.5t-111.5 95.5t-97.5 105t-69 122t-26 147q0 73 30.5 139t81.5 116.5t117.5 80t138.5 29.5
q45 0 87.5 -7t83.5 -15.5t82 -15.5t83 -7q27 0 51 7t47 15.5t45.5 15.5t47.5 7q-38 -156 -82.5 -310.5t-87.5 -310.5q-8 39 -18.5 81.5t-26 83t-37.5 77t-53.5 64t-73.5 43.5t-97 16q-24 0 -45.5 -8t-38 -23.5t-26.5 -37.5t-10 -50q0 -34 25.5 -71.5t67.5 -79t96 -87
t110 -96.5t110 -108t96 -120.5t67.5 -133.5t25.5 -148q0 -88 -29.5 -161t-81 -125t-120.5 -80.5t-148 -28.5q-41 0 -81.5 8t-80.5 17.5t-80 17.5t-80 8q-26 0 -53 -8t-53 -17.5t-49 -17.5t-41 -8q0 49 12.5 86.5t27 76t27 83t12.5 108.5q0 52 -2.5 101.5t-5.5 94.5t-5.5 84
t-2.5 71zM483 1888q18 0 44.5 16t58.5 39.5t68 51t73 51.5t73.5 40t69.5 17q-31 -37 -65 -86t-69 -100.5t-69.5 -101.5t-67 -89.5t-62 -63.5t-52.5 -24q-30 0 -60 24t-61.5 62.5t-65 88t-69.5 100t-75.5 98.5t-82.5 84q43 0 82.5 -15t75.5 -38t69.5 -49.5t64.5 -49.5t61 -39
t59 -16z" />
    <glyph glyph-name="scaron" unicode="&#x161;" horiz-adv-x="942" 
d="M86 494q21 0 41 -23.5t45.5 -58.5t57.5 -76t75.5 -76t101.5 -58.5t134 -23.5q19 0 35.5 6t28.5 16t19 23t7 27q0 48 -26 88.5t-69 75.5t-97.5 67.5t-111.5 64.5t-111.5 66t-97.5 73.5t-69 86t-26 102.5q0 52 30.5 98.5t81.5 81.5t117.5 55.5t138.5 20.5q45 0 87.5 -5
t83.5 -11t82 -11t83 -5q27 0 51 5t47 11t45.5 11t47.5 5q-38 -109 -82.5 -217t-87.5 -217q-12 41 -30 85.5t-52 82t-88 62t-136 24.5q-24 0 -45.5 -5.5t-38 -16t-26.5 -26t-10 -34.5q0 -24 25.5 -50.5t67.5 -55.5t96 -61t110 -68t110 -76t96 -84t67.5 -93t25.5 -104
q0 -61 -29.5 -112t-81 -87.5t-120.5 -56.5t-148 -20q-41 0 -81.5 5.5t-80.5 12t-80 12t-80 5.5q-26 0 -53 -5.5t-53 -12t-49 -12t-41 -5.5q0 34 12.5 60.5t27 53.5t27 58t12.5 76q0 72 -8 136.5t-8 109.5zM483 1401q18 0 44.5 16t58.5 39.5t68 51t73 51.5t73.5 40t69.5 17
q-31 -37 -65 -86t-69 -100.5t-69.5 -101.5t-67 -89.5t-62 -63.5t-52.5 -24q-30 0 -60 24t-61.5 62.5t-65 88t-69.5 100t-75.5 98.5t-82.5 84q43 0 82.5 -15t75.5 -38t69.5 -49.5t64.5 -49.5t61 -39t59 -16z" />
    <glyph glyph-name="uni0162" unicode="&#x162;" horiz-adv-x="1032" 
d="M229 -8q0 25 15 50t33.5 53.5t33.5 62t15 75.5q1 125 3.5 261t5.5 275.5t5 280.5t2 277q0 19 -8.5 37t-30.5 18q-31 0 -56.5 -24t-47.5 -60.5t-40.5 -79t-35.5 -79t-33.5 -60.5t-32.5 -24q-2 88 -6 174t-4 174q0 29 -5 57.5t-11.5 56.5t-11.5 56.5t-5 58.5q19 0 37 -7
t35 -15.5t34 -15.5t36 -7q45 0 89 4t87.5 8.5t85.5 8.5t84 4q46 0 89.5 -9t86 -19.5t84.5 -19t86 -8.5q23 0 45 8.5t43.5 18.5t42 18.5t39.5 8.5q-7 -63 -17.5 -118t-20.5 -110.5t-17 -115t-7 -131.5q0 -32 1.5 -69t5.5 -77q-19 0 -33.5 27.5t-28.5 69t-30.5 90t-38 90
t-51 69t-70.5 27.5q-16 0 -29.5 -14t-13.5 -31q0 -147 1 -298.5t2.5 -292t3 -263t1.5 -213.5q0 -38 17 -75.5t37 -73.5t37 -69t17 -61q-34 0 -72 10.5t-78.5 23.5t-82.5 23.5t-84 10.5q-34 0 -64 -7.5t-58.5 -16t-56.5 -16t-59 -7.5zM559 55q-5 -6 -5.5 -14t-0.5 -16v-21
q27 0 50 -10.5t39.5 -27.5t26 -39t9.5 -44q0 -37 -17 -70.5t-46.5 -59t-70 -41t-87.5 -15.5q-37 0 -75 3.5t-70 19.5q17 35 25 74t11 79q23 -29 51.5 -51.5t71.5 -22.5q15 0 32.5 3t32.5 10.5t24.5 19t9.5 29.5q0 12 -6 20t-15 12.5t-19.5 6.5t-19.5 2q-25 0 -46.5 -4
t-43.5 -4l10 110q0 14 -2 26.5t-8 24.5h139z" />
    <glyph glyph-name="uni0163" unicode="&#x163;" horiz-adv-x="1032" 
d="M233 -2q0 18 15 35.5t33.5 37t33.5 43t15 52.5q1 87 3 182t4 192.5t3.5 196t1.5 193.5q0 12 -8.5 25.5t-30.5 13.5q-31 0 -56.5 -17t-47.5 -42.5t-40.5 -55.5t-35.5 -55.5t-33.5 -42.5t-32.5 -17q-2 60 -6 121t-4 123q0 20 -5 39.5t-11.5 39.5t-11.5 40t-5 41q19 0 37 -5
t35 -11.5t34 -11.5t36 -5q91 0 176.5 9t169.5 9q46 0 89.5 -6t86 -13t84.5 -13t86 -6q23 0 45 5.5t43.5 12.5t42 12.5t39.5 5.5q-7 -44 -17.5 -82t-20.5 -76.5t-17 -80t-7 -92.5q0 -23 1.5 -49t5.5 -54q-19 0 -33.5 19.5t-28.5 48.5t-30.5 63t-38 63t-51 48.5t-70.5 19.5
q-16 0 -29.5 -10t-13.5 -22q0 -103 2 -208.5t4 -203.5t4 -183.5t2 -148.5q0 -26 17 -52.5t37 -51.5t37 -48t17 -42q-34 0 -72 7.5t-78.5 16t-82.5 16t-84 7.5q-34 0 -64 -5t-58.5 -11.5t-56.5 -11.5t-59 -5zM557 47q-5 -6 -5.5 -14t-0.5 -16v-21q27 0 50 -10.5t39.5 -27.5
t26 -39t9.5 -44q0 -37 -17 -70.5t-46.5 -59t-70 -41t-87.5 -15.5q-37 0 -75 3.5t-70 19.5q17 35 25 74t11 79q23 -29 51.5 -51.5t71.5 -22.5q15 0 32.5 3t32.5 10.5t24.5 19t9.5 29.5q0 12 -6 20t-15 12.5t-19.5 6.5t-19.5 2q-25 0 -46.5 -4t-43.5 -4l10 110q0 14 -2 26.5
t-8 24.5h139z" />
    <glyph glyph-name="Tcaron" unicode="&#x164;" horiz-adv-x="1032" 
d="M229 -8q0 25 15 50t33.5 53.5t33.5 62t15 75.5q1 125 3.5 261t5.5 275.5t5 280.5t2 277q0 19 -8.5 37t-30.5 18q-31 0 -56.5 -24t-47.5 -60.5t-40.5 -79t-35.5 -79t-33.5 -60.5t-32.5 -24q-2 88 -6 174t-4 174q0 29 -5 57.5t-11.5 56.5t-11.5 56.5t-5 58.5q19 0 37 -7
t35 -15.5t34 -15.5t36 -7q45 0 89 4t87.5 8.5t85.5 8.5t84 4q46 0 89.5 -9t86 -19.5t84.5 -19t86 -8.5q23 0 45 8.5t43.5 18.5t42 18.5t39.5 8.5q-7 -63 -17.5 -118t-20.5 -110.5t-17 -115t-7 -131.5q0 -32 1.5 -69t5.5 -77q-19 0 -33.5 27.5t-28.5 69t-30.5 90t-38 90
t-51 69t-70.5 27.5q-16 0 -29.5 -14t-13.5 -31q0 -147 1 -298.5t2.5 -292t3 -263t1.5 -213.5q0 -38 17 -75.5t37 -73.5t37 -69t17 -61q-34 0 -72 10.5t-78.5 23.5t-82.5 23.5t-84 10.5q-34 0 -64 -7.5t-58.5 -16t-56.5 -16t-59 -7.5zM528 1888q18 0 44.5 16t58.5 39.5t68 51
t73 51.5t73.5 40t69.5 17q-31 -37 -65 -86t-69 -100.5t-69.5 -101.5t-67 -89.5t-62 -63.5t-52.5 -24q-30 0 -60 24t-61.5 62.5t-65 88t-69.5 100t-75.5 98.5t-82.5 84q43 0 82.5 -15t75.5 -38t69.5 -49.5t64.5 -49.5t61 -39t59 -16z" />
    <glyph glyph-name="tcaron" unicode="&#x165;" horiz-adv-x="1376" 
d="M233 -2q0 18 15 35.5t33.5 37t33.5 43t15 52.5q1 87 3 182t4 192.5t3.5 196t1.5 193.5q0 12 -8.5 25.5t-30.5 13.5q-31 0 -56.5 -17t-47.5 -42.5t-40.5 -55.5t-35.5 -55.5t-33.5 -42.5t-32.5 -17q-2 60 -6 121t-4 123q0 20 -5 39.5t-11.5 39.5t-11.5 40t-5 41q19 0 37 -5
t35 -11.5t34 -11.5t36 -5q91 0 176.5 9t169.5 9q46 0 89.5 -6t86 -13t84.5 -13t86 -6q23 0 45 5.5t43.5 12.5t42 12.5t39.5 5.5q-7 -44 -17.5 -82t-20.5 -76.5t-17 -80t-7 -92.5q0 -23 1.5 -49t5.5 -54q-19 0 -33.5 19.5t-28.5 48.5t-30.5 63t-38 63t-51 48.5t-70.5 19.5
q-16 0 -29.5 -10t-13.5 -22q0 -103 2 -208.5t4 -203.5t4 -183.5t2 -148.5q0 -26 17 -52.5t37 -51.5t37 -48t17 -42q-34 0 -72 7.5t-78.5 16t-82.5 16t-84 7.5q-34 0 -64 -5t-58.5 -11.5t-56.5 -11.5t-59 -5zM1165 673q-6 34 -11.5 58.5t-14 43.5t-21 35.5t-33.5 34.5
q5 14 6.5 26.5t1.5 24.5q0 28 -6 55.5t-13.5 53.5t-13.5 51.5t-6 50.5q35 0 69.5 -7.5t72.5 -10.5h8q40 3 78.5 12.5t79.5 11.5q-1 -26 -7.5 -51.5t-14 -51.5t-13.5 -52t-6 -52q0 -14 1.5 -26.5t6.5 -26.5q-26 -19 -40 -39t-22.5 -41.5t-13 -46.5t-10.5 -53h-78v0z" />
    <glyph glyph-name="Uring" unicode="&#x16e;" horiz-adv-x="1042" 
d="M82 1450q0 40 -9.5 65.5t-21.5 44t-21.5 33.5t-9.5 33q26 0 56 -5.5t65 -12t75 -12t87 -5.5q30 0 53.5 3.5t43.5 8t39.5 8t41.5 3.5q0 -16 -11.5 -33t-26 -41t-26 -59t-11.5 -86v-1010q0 -21 12 -38t30.5 -29t42.5 -18.5t48 -6.5q27 0 52.5 8.5t44.5 24t30.5 39
t11.5 53.5v1009q0 26 -10.5 50t-22.5 47t-22.5 46.5t-10.5 49.5q44 0 87 -9t89 -9q31 0 61 3.5t59.5 8t58 8.5t57.5 4q0 -25 -13.5 -50t-29.5 -58.5t-29.5 -79t-13.5 -111.5v-987q0 -52 -26 -111.5t-78.5 -110.5t-131.5 -84.5t-184 -33.5q-109 0 -191 38.5t-136.5 95.5
t-81.5 121.5t-27 117.5v1077zM372 1794q0 32 11 59t30.5 46.5t47 30.5t59.5 11q31 0 58 -10.5t47 -29.5t31 -46t11 -59q0 -30 -12 -57t-32.5 -48t-47.5 -33t-57 -12q-32 0 -58.5 11.5t-46 31t-30.5 46.5t-11 59zM458 1800q0 -32 17 -50t51 -18q23 0 39 19t16 41
q0 32 -13.5 47.5t-45.5 15.5q-23 0 -43.5 -15t-20.5 -40z" />
    </font>
</defs>
</svg>
